<svg height="157" viewBox="0 0 650 157" width="650" xmlns="http://www.w3.org/2000/svg"><path d="m184.7 98-4.8-11.1h-34.9l-4.7 11.1h-18.7l38.1-86.8h5.8l38 86.8zm-10.9-25.4-11.4-28.8-11.4 28.8zm34.1-6.6c-.2-8.9 3.4-17.5 9.9-23.7 6.4-6.4 15.2-9.9 24.3-9.7 12.6 0 21.8 5.3 27.8 15.8l-12.1 9.4c-4.3-6.2-9.4-9.3-15.4-9.3-4.5-.1-8.9 1.7-12 5-3.2 3.4-4.9 7.8-4.7 12.5-.2 4.7 1.5 9.2 4.7 12.6 3.1 3.3 7.5 5.1 12 5 5.9 0 11.1-3.1 15.4-9.2l12.1 9.3c-2.7 4.8-6.6 8.9-11.4 11.7-5 2.8-10.6 4.3-16.3 4.2-9.1.3-17.9-3.3-24.3-9.8-6.6-6.1-10.3-14.8-10-23.8zm74.3 3.9v-35.8h17.4v37.2c-.3 6.4 4.6 11.9 11 12.3h1.2c3.2.1 6.3-1.1 8.5-3.4 2.3-2.4 3.5-5.6 3.4-8.8v-37.3h17.4v35.8c0 8.8-2.8 15.9-8.3 21.4-5.6 5.5-12.6 8.3-21 8.3-8.6 0-15.7-2.7-21.2-8.2-5.6-5.5-8.4-12.7-8.4-21.5zm134.3-11.5v39.6h-17.3v-37.3c.1-3.3-1-6.5-3.3-9-2.3-2.3-5.4-3.5-8.6-3.4-3.3-.1-6.4 1.1-8.7 3.4-2.3 2.4-3.6 5.6-3.4 9v37.3h-17.4v-64h16.1v5.8c4.8-4.8 11.1-7.2 18.7-7.2 7.4 0 13.3 2.3 17.6 7s6.3 10.9 6.3 18.8zm75.5 13.5h-44.8a16.06 16.06 0 0 0 6.3 9.4c3.5 2.3 7.5 3.4 11.7 3.3 6.5-.1 12.8-2.3 17.8-6.5l7.2 11.9a38.92 38.92 0 0 1 -25.6 9.6c-9.3.4-18.3-3.1-25-9.6-6.7-6.1-10.3-14.8-10-23.8-.3-8.9 3.2-17.6 9.7-23.8 6.2-6.5 14.8-10 23.8-9.7 8.8 0 16 2.8 21.6 8.5 5.6 5.6 8.7 13.3 8.5 21.2a38.06 38.06 0 0 1 -1.2 9.5zm-44.8-12.2h29.1c0-3.6-1.5-6.9-4.1-9.3-2.7-2.4-6.2-3.7-9.8-3.6-3.5-.1-7 1.2-9.7 3.5-2.7 2.4-4.7 5.7-5.5 9.4zm107.4-48.8c-.1-2.9 1.1-5.7 3.2-7.8 2.1-2 4.9-3.2 7.9-3.1 3-.1 5.8 1.1 7.9 3.1 2.2 2 3.4 4.8 3.3 7.8.1 2.9-1.1 5.7-3.3 7.6-2.1 2-5 3.2-7.9 3.1-2.9.1-5.8-1.1-7.9-3.1s-3.2-4.8-3.2-7.6zm2.5 87.1v-63.9h17.4v63.9zm92.8 0h-19.5l-13.7-20.4-13.8 20.4h-19.5l23.4-32.9-21.8-31h19.5l12.3 18.5 12.1-18.5h19.5l-22 30.9zm-119-79.3h-17.3v16h-12.6v14.6h12.6.2v48.7h16.9v-48.7h.2 15.4v-14.6h-15.4zm-442.8 36c0-24.7-20-44.7-44.7-44.7h-1v28.2h1c9.1 0 16.6 7.4 16.6 16.6a16.56 16.56 0 0 1 -16.6 16.6h-1v28.2h1c8.7 0 17.3-2.5 24.5-7.3l2.6 6h17.7z" fill="#1c1b29"/><path d="m34.3 98.7c-1.4 0-2.4-1.1-2.4-2.4v-25.2c0-1.4 1.1-2.4 2.4-2.4 1.4 0 2.4 1.1 2.4 2.4v25.2c0 1.3-1.1 2.4-2.4 2.4zm-31.8-25.6c-1.4 0-2.5-1.1-2.5-2.4v-32c.1-1.4 1.3-2.4 2.6-2.3a2.56 2.56 0 0 1 2.3 2.3v31.9c0 1.4-1.1 2.5-2.4 2.5zm10.6-28c-1.4 0-2.5-1.1-2.5-2.4v-18.9c-.1-1.4.9-2.5 2.3-2.6s2.5.9 2.6 2.3v.3 18.9c0 1.3-1.1 2.4-2.4 2.4zm0 43.2c-1.4 0-2.5-1.1-2.5-2.4v-31.3c-.1-1.4.9-2.5 2.3-2.6s2.5.9 2.6 2.3v.3 31.3c0 1.3-1.1 2.4-2.4 2.4zm10.6 6.8c-1.4 0-2.5-1.1-2.5-2.4v-16.8c.1-1.4 1.3-2.4 2.6-2.3a2.56 2.56 0 0 1 2.3 2.3v16.8c0 1.3-1.1 2.4-2.4 2.4zm0-28.8c-1.4 0-2.5-1.1-2.5-2.5v-47.7c-.1-1.4.9-2.5 2.3-2.6s2.5.9 2.6 2.3v.3 47.7c0 1.4-1.1 2.5-2.4 2.5zm10.6-25.4c-1.4 0-2.4-1.1-2.4-2.5v-25.3c0-1.4 1.1-2.4 2.4-2.4 1.4 0 2.4 1.1 2.4 2.4v25.3c0 1.4-1.1 2.5-2.4 2.5z" fill="#fa4216"/><path d="m506.5 140.3c0 1.4-.2 2.7-.7 4-.5 1.1-1.1 2.1-2 3-.8.8-1.8 1.5-2.9 1.9-1.1.5-2.4.7-3.6.7-1 0-1.9-.2-2.8-.5-.7-.3-1.4-.7-2-1.2v1.3h-5.5v-26.5h5.5v9.1c.6-.5 1.2-.8 1.9-1.1.9-.4 1.8-.5 2.8-.5 1.2 0 2.5.2 3.6.7s2.1 1.1 2.9 2c.9.9 1.5 1.9 2 3.1.5 1.3.8 2.6.8 4zm-14.1 0c-.1 1.3.4 2.5 1.2 3.5.8.9 1.9 1.4 3 1.3 1.2 0 2.3-.5 3.1-1.3 1.7-2 1.7-5 0-7-.8-.9-1.9-1.4-3.1-1.3-1.2 0-2.3.5-3 1.3-.8.9-1.2 2.2-1.2 3.5zm25.7 16.6h-5.7l3-7.3-7.2-18.6h6l4.2 11.5 4.3-11.5h5.7zm25.4-7.4v-26.5h5.6v26.5zm16.7-9.2v9.3h-5.4v-18.6h5.3v1.3c.6-.5 1.2-.9 1.9-1.2.8-.3 1.7-.5 2.5-.5 2-.1 4 .7 5.5 2.1 1.5 1.7 2.2 3.9 2.1 6.1v10.8h-5.4v-10.4c0-.9-.2-1.8-.7-2.6-.5-.7-1.4-1.2-2.4-1.1-1.1-.1-2.1.4-2.6 1.3-.6 1.1-.9 2.3-.8 3.5zm33.8-9.3-6.6 18.6h-5.5l-6.5-18.6h5.7l3.6 11.5 3.6-11.5zm3.1-5.3c0-.8.3-1.6.9-2.2s1.4-.9 2.2-.9a3.12 3.12 0 0 1 3.1 3.1c0 .8-.3 1.6-.9 2.2s-1.4.9-2.2.9a3.12 3.12 0 0 1 -3.1-3.1zm.4 23.8v-18.5h5.4v18.6h-5.4zm24.4-7 3.6 3.5c-.9 1.2-2.1 2.2-3.4 2.9-1.5.7-3.1 1.1-4.7 1-1.3 0-2.7-.2-3.9-.7s-2.2-1.1-3.1-2a9.45 9.45 0 0 1 -2.1-3.1c-1-2.5-1-5.2 0-7.7.5-1.1 1.2-2.2 2.1-3 .9-.9 1.9-1.5 3.1-2s2.6-.8 3.9-.7c1.5-.1 3.1.3 4.4 1 1.2.7 2.4 1.6 3.3 2.7l-3.6 3.5c-.5-.6-1.1-1.1-1.7-1.6-.7-.4-1.4-.6-2.2-.6-1.2 0-2.4.4-3.2 1.3a5.04 5.04 0 0 0 0 6.7c.8.9 2 1.3 3.2 1.3.9 0 1.7-.2 2.4-.6.7-.6 1.4-1.2 1.9-1.9zm14.2 7.1c-1.8.1-3.6-.5-4.9-1.7-1.1-1.4-1.7-3.1-1.6-4.9v-7h-2.4v-5h2.4v-5.2h5.4v5.2h4.1v5h-4.1v6.4c-.1.7.1 1.4.6 1.8.6.3 1.2.5 1.8.5h1.6v4.9zm7.6-23.9c0-.8.3-1.6.9-2.2s1.4-.9 2.2-.9a3.12 3.12 0 0 1 3.1 3.1c0 .8-.3 1.6-.9 2.2s-1.4.9-2.2.9-1.6-.3-2.2-.9c-.5-.5-.9-1.3-.9-2.2zm.5 23.8v-18.5h5.4v18.6h-5.4z"/></svg>