<svg width="207" height="55" viewBox="0 0 207 55" fill="none" xmlns="http://www.w3.org/2000/svg">
<g clip-path="url(#clip0_12_57)">
<path d="M47.1148 21.751C47.3529 22.8131 47.7944 23.8121 48.0447 24.8742C48.651 27.4666 48.8488 30.1378 48.6307 32.7912C48.4272 35.2756 47.7598 37.6379 46.9256 39.9656C46.4311 40.9321 45.9998 41.9331 45.4382 42.865C44.6491 44.1809 43.7514 45.4285 42.7543 46.5946C41.1356 48.4663 39.2355 50.0747 37.1221 51.3619C35.7086 52.2231 34.2141 52.9434 32.6599 53.5126C30.9118 54.1341 29.1041 54.5733 27.2657 54.823C25.7185 55.0227 24.1545 55.0568 22.6 54.9247C20.6626 54.7853 18.7494 54.4102 16.9027 53.8077C14.7884 53.1347 12.7757 52.1763 10.9205 50.9591C9.1865 49.8335 7.61231 48.4791 6.24059 46.9324C2.90056 43.1756 0.777267 38.495 0.150558 33.5075C-0.0373315 31.7932 -0.050285 30.0643 0.111898 28.3475C0.279258 26.6029 0.6326 24.8813 1.1659 23.2119C1.8173 21.0923 2.77714 19.0801 4.01456 17.24C5.21466 15.4362 6.65187 13.8019 8.28756 12.3812C10.0413 10.8536 11.9984 9.57654 14.1029 8.58644C15.8987 7.76339 17.783 7.14897 19.7188 6.75521C23.9967 5.91462 28.4226 6.2522 32.5236 7.73187C35.5921 8.82543 38.4115 10.5203 40.8167 12.7172C43.222 14.9141 45.1646 17.5689 46.5308 20.5261C46.7221 20.935 46.8279 21.3867 47.1148 21.751ZM2.90359 30.6243C2.89743 33.4395 3.44679 36.2283 4.5202 38.8308C5.59361 41.4334 7.16998 43.7986 9.15899 45.7909C11.148 47.7833 13.5106 49.3636 16.1114 50.4415C18.7122 51.5193 21.5 52.0734 24.3153 52.0721C36.2065 52.0883 45.8187 42.5436 45.8268 30.724C45.7865 25.0672 43.5143 19.6551 39.5045 15.6647C35.4948 11.6743 30.0716 9.42825 24.4146 9.41511C18.7575 9.40197 13.324 11.6228 9.29573 15.5945C5.26747 19.5663 2.97022 24.9677 2.90359 30.6243Z" fill="#8CC440"/>
<path d="M138.689 43.1723C138.689 44.4175 138.657 45.5793 138.707 46.7371C138.726 47.144 138.781 47.551 138.797 47.9579C138.811 48.2672 138.699 48.3893 138.378 48.3893C135.912 48.3798 133.445 48.3798 130.977 48.3893C130.658 48.3893 130.526 48.2733 130.556 47.962C130.556 47.8745 130.556 47.787 130.556 47.7015V0.675521C130.558 0 130.558 0 131.242 0H138.121C138.791 0 138.791 0 138.791 0.693833C138.791 6.62295 138.791 12.5534 138.791 18.4853V19.057C140.404 16.9531 142.219 15.1911 144.517 14.0171C145.725 13.4068 147.036 13.0259 148.383 12.8939C149.143 12.7767 149.911 12.7149 150.68 12.7087C154.19 12.8349 157.409 13.8217 160.207 16.0172C163.495 18.5972 165.428 22.0114 166.411 26.0116C166.637 27.0407 166.785 28.0855 166.854 29.1369C167.162 32.6216 166.618 36.1288 165.271 39.3572C164.424 41.3067 163.219 43.0803 161.718 44.5864C159.648 46.6356 157.045 48.0631 154.204 48.7067C152.599 49.0883 150.945 49.2255 149.298 49.1136C146.626 48.9776 144.064 48.0061 141.973 46.3362C140.801 45.3647 139.704 44.3071 138.689 43.1723ZM148.765 19.6613C148.127 19.6305 147.488 19.6694 146.859 19.7773C143.758 20.4487 141.454 22.1945 139.94 24.9719C139.137 26.4834 138.661 28.1474 138.545 29.8552C138.466 31.0981 138.529 32.3459 138.732 33.5746C138.907 34.8341 139.444 35.9939 140.061 37.1007C141.031 38.8978 142.537 40.3481 144.369 41.2505C146.201 42.1529 148.269 42.4626 150.285 42.1366C152.619 41.7834 154.735 40.5671 156.214 38.7285C158.001 36.5737 158.701 34.0019 158.801 31.2489C158.82 30.1901 158.722 29.1323 158.508 28.0952C158.161 26.1014 157.252 24.2484 155.887 22.7541C153.982 20.699 151.606 19.6166 148.765 19.6613Z" fill="#424242"/>
<path d="M200.652 38.3337C202.153 39.6441 203.653 40.951 205.15 42.2546C205.323 42.4072 205.366 42.5272 205.203 42.7287C204.167 43.9587 202.97 45.0441 201.644 45.9557C199.993 47.1628 198.124 48.0408 196.14 48.5418C195.167 48.7928 194.172 48.9583 193.17 49.0363C192.692 49.0688 192.213 49.1156 191.733 49.1299C189.104 49.2316 186.482 48.784 184.036 47.8154C182.414 47.1792 180.898 46.2996 179.541 45.2069C177.447 43.5198 175.786 41.3574 174.696 38.8994C173.996 37.3278 173.525 35.6642 173.296 33.9591C173.147 32.8362 173.079 31.704 173.093 30.5713C173.124 28.1598 173.599 25.7746 174.495 23.5354C175.533 20.8876 177.211 18.5382 179.378 16.6967C181.429 14.9149 183.899 13.684 186.557 13.1197C187.391 12.9427 188.244 12.8918 189.084 12.7759C190.077 12.6395 191.043 12.7555 192.012 12.8247C195.751 13.103 199.264 14.7205 201.907 17.3804C203.423 18.9858 204.614 20.8701 205.413 22.929C206.055 24.5794 206.503 26.2987 206.748 28.0524C206.966 29.4812 207.04 30.9284 206.967 32.3721C206.915 32.7267 206.881 33.084 206.868 33.4423C206.868 33.6315 206.76 33.7211 206.573 33.7231H181.177C181.445 35.6805 182.123 37.471 183.354 38.9808C184.729 40.6773 186.655 41.8386 188.797 42.2627C189.966 42.4842 191.16 42.5472 192.346 42.4499C194.488 42.3207 196.547 41.569 198.269 40.287C199.105 39.6883 199.901 39.0358 200.652 38.3337ZM190.046 28.4105C192.877 28.4105 195.709 28.4105 198.539 28.4207C198.946 28.4207 199.018 28.2579 198.946 27.9384C198.637 26.3819 198.251 24.8599 197.416 23.4743C196.447 21.7972 194.911 20.5209 193.084 19.8749C191.834 19.4183 190.492 19.269 189.171 19.4395C188.229 19.5293 187.307 19.7669 186.439 20.1435C184.542 21.0347 183.238 22.5322 182.276 24.3472C181.681 25.4724 181.388 26.7034 181.128 27.9405C181.059 28.266 181.142 28.4207 181.547 28.4186C184.378 28.4003 187.208 28.4105 190.046 28.4105Z" fill="#424242"/>
<path d="M47.1148 21.7509C48.0001 20.2326 49.0962 18.8474 50.3704 17.6368C53.4995 14.6862 57.5879 12.9632 61.8851 12.784C64.6218 12.6436 67.2833 12.9203 69.8695 13.838C71.5115 14.4219 72.9542 15.3579 74.3459 16.3834C75.1591 17.0193 75.9255 17.7129 76.6391 18.4588C76.8426 18.6623 76.8772 18.7599 76.6615 18.9878C75.286 20.4487 73.9166 21.9279 72.5492 23.399C72.3315 23.6351 72.185 23.9362 71.888 24.1275C70.7714 22.9247 69.4912 21.8849 68.085 21.0388C67.0432 20.3958 65.8976 20.0865 64.7134 19.8688C63.9788 19.7668 63.2364 19.7328 62.4955 19.7671C60.5971 19.7671 58.9082 20.4243 57.374 21.4844C55.7218 22.6279 54.619 24.2048 53.803 26.0279C53.0807 27.664 52.7331 29.4409 52.7857 31.2286C52.8386 33.8737 53.5812 36.3153 55.2436 38.3948C56.7313 40.3279 58.8885 41.6344 61.2909 42.0572C63.5943 42.4764 65.8081 42.2383 67.8937 41.1966C69.1552 40.5615 70.3154 39.7428 71.3365 38.7671C71.6092 38.5067 71.9185 38.2849 72.1789 38.0143C72.3824 37.8108 72.4394 38.0041 72.5289 38.0936C73.294 38.8506 74.0468 39.6197 74.818 40.3705C75.5098 41.046 76.2057 41.7154 76.926 42.3604C77.1498 42.5639 77.1295 42.7043 76.9586 42.8813C76.5801 43.2882 76.22 43.7094 75.8069 44.0736C74.767 45.0028 73.6613 45.8555 72.4984 46.6251C70.8036 47.7136 68.909 48.4537 66.9252 48.8023C65.114 49.1343 63.268 49.2355 61.4313 49.1034C58.8224 48.9277 56.2831 48.1854 53.9902 46.9283C52.746 46.2319 51.5855 45.3957 50.5311 44.4358C49.0844 43.1417 47.9511 41.6055 46.9357 39.9595C47.77 37.6318 48.4455 35.2797 48.6408 32.7851C48.8589 30.1317 48.6612 27.4605 48.0548 24.8681C47.7944 23.806 47.3528 22.813 47.1148 21.7509Z" fill="#424242"/>
<path d="M92.5021 20.8475C93.0739 19.8404 93.5988 18.8291 94.2744 17.9054C95.5176 16.2023 96.9745 14.7211 98.8892 13.7851C99.9896 13.2615 101.168 12.9219 102.379 12.78C103.105 12.6864 103.823 12.7393 104.546 12.6945C104.79 12.6782 104.918 12.7169 104.916 13.018C104.904 15.6197 104.904 18.2207 104.916 20.8211C104.916 21.2036 104.713 21.2463 104.424 21.228C102.955 21.1586 101.488 21.372 100.1 21.8568C98.795 22.2943 97.5896 22.9858 96.5533 23.8915C94.545 25.6576 93.5012 27.9385 92.9294 30.4757C92.6451 31.7234 92.5011 32.9989 92.5001 34.2786C92.5102 38.7712 92.5001 43.2618 92.5143 47.7544C92.5143 48.1614 92.4451 48.3079 91.9893 48.3018C89.6107 48.2753 87.2301 48.2814 84.8494 48.3018C84.4669 48.3018 84.361 48.2204 84.3631 47.8236C84.3753 36.5175 84.3753 25.2106 84.3631 13.9031C84.3631 13.5165 84.4526 13.4168 84.8453 13.4209C87.2423 13.4412 89.6399 13.4412 92.0382 13.4209C92.4451 13.4209 92.5163 13.5348 92.5143 13.9112C92.494 16.0619 92.5041 18.2126 92.5041 20.3633L92.5021 20.8475Z" fill="#424242"/>
<path d="M112.207 30.958C112.207 25.3239 112.207 19.6898 112.197 14.0558C112.197 13.6264 112.294 13.5125 112.732 13.5166C115.111 13.541 117.49 13.541 119.87 13.5166C120.266 13.5166 120.35 13.6203 120.348 14.0029C120.337 25.3049 120.337 36.6084 120.348 47.9132C120.348 48.2977 120.26 48.4015 119.866 48.3974C117.469 48.3771 115.072 48.3771 112.675 48.3974C112.268 48.3974 112.195 48.2937 112.197 47.9111C112.21 42.2628 112.214 36.6118 112.207 30.958Z" fill="#424242"/>
<path d="M116.185 8.2202C114.884 8.2202 113.582 8.2202 112.28 8.2202C111.926 8.2202 111.79 8.12457 111.792 7.75018C111.807 5.46318 111.807 3.17618 111.792 0.889173C111.792 0.608384 111.853 0.506649 112.158 0.506649C114.832 0.518858 117.505 0.518858 120.177 0.506649C120.46 0.506649 120.563 0.565656 120.561 0.872895C120.549 3.19449 120.545 5.51608 120.561 7.83768C120.561 8.18764 120.429 8.22223 120.138 8.21816C118.816 8.2141 117.497 8.2202 116.185 8.2202Z" fill="#424242"/>
<path d="M2.90358 30.6242C2.9168 24.9311 5.19114 19.4763 9.22628 15.46C13.2614 11.4437 18.7268 9.19478 24.4201 9.208C30.1134 9.22122 35.5683 11.4955 39.5848 15.5305C43.6012 19.5655 45.8502 25.0308 45.837 30.7239C45.837 42.5435 36.2166 52.0883 24.3255 52.072C21.5094 52.0747 18.7204 51.5216 16.1184 50.4444C13.5164 49.3671 11.1527 47.787 9.16257 45.7945C7.17248 43.802 5.59521 41.4364 4.52116 38.8331C3.44711 36.2299 2.89742 33.4403 2.90358 30.6242ZM24.9705 48.7148C26.5184 48.7377 28.0625 48.5564 29.563 48.1756C32.0271 47.553 34.2104 46.4522 35.8524 44.4501C37.3215 42.6595 37.9462 40.5658 38.0357 38.293C38.1029 36.5696 37.8851 34.9053 36.9329 33.4098C35.6164 31.3323 33.6773 30.0423 31.4858 29.0555C29.2476 28.0381 26.8812 27.4277 24.5676 26.6342C22.9582 26.0869 21.3466 25.5233 20.0464 24.3594C19.7794 24.1354 19.5654 23.855 19.4197 23.5383C19.274 23.2217 19.2004 22.8767 19.204 22.5282C19.204 20.9879 20.2214 19.7427 21.9041 19.2564C23.3916 18.827 24.8932 18.9084 26.3806 19.2014C28.9444 19.702 31.3047 20.7356 33.543 22.05C33.8868 22.2535 34.015 22.1965 34.1941 21.8669C35.1002 20.2079 36.022 18.5591 36.9593 16.9205C37.1404 16.6072 37.0651 16.4892 36.7986 16.3223C35.4504 15.466 34.0187 14.7488 32.5256 14.1818C28.6433 12.729 24.6612 12.084 20.5388 13.022C15.4641 14.1533 12.2289 17.7344 11.8647 22.2067C11.6815 24.4449 11.9684 26.5569 13.3846 28.4146C14.3932 29.7269 15.6939 30.7858 17.1835 31.5073C19.6517 32.7281 22.3091 33.4281 24.9258 34.2318C26.4518 34.7018 27.9881 35.1433 29.3025 36.1017C30.2894 36.8199 30.8001 37.7477 30.6231 39.0072C30.3789 40.7286 29.2293 41.5811 27.7032 42.0226C25.8556 42.5557 23.9857 42.3869 22.1381 41.9921C19.2061 41.3634 16.5812 40.0551 14.1721 38.3012C13.8485 38.0672 13.7122 38.0977 13.5026 38.4273C12.5042 39.971 11.4909 41.5045 10.4627 43.0278C10.2246 43.3778 10.2491 43.5527 10.5889 43.803C14.7429 46.9196 19.7779 48.6392 24.9705 48.7148Z" fill="#FEFEFE"/>
<path d="M24.9706 48.7148C19.7752 48.6409 14.737 46.9212 10.5808 43.803C10.241 43.5527 10.2166 43.3777 10.4546 43.0278C11.4883 41.5085 12.5043 39.975 13.5027 38.4273C13.7062 38.1018 13.8486 38.0672 14.1721 38.3012C16.5813 40.0551 19.2061 41.3532 22.1382 41.9921C23.9858 42.3868 25.8557 42.5557 27.7033 42.0226C29.2293 41.5811 30.379 40.7286 30.6231 39.0072C30.8002 37.7477 30.2894 36.8199 29.3026 36.1017C27.9881 35.1433 26.4539 34.7018 24.9258 34.2318C22.3091 33.4179 19.6517 32.7302 17.1937 31.5073C15.7042 30.7858 14.4034 29.7269 13.3948 28.4146C11.9705 26.5569 11.6918 24.4408 11.8749 22.2067C12.2289 17.7344 15.4642 14.1533 20.5389 13.022C24.6613 12.0942 28.6433 12.7392 32.5338 14.1981C34.0269 14.7651 35.4586 15.4822 36.8068 16.3386C37.0733 16.5055 37.1486 16.6235 36.9675 16.9368C36.0275 18.5741 35.1057 20.2228 34.2023 21.8832C34.0232 22.2128 33.895 22.2698 33.5512 22.0663C31.3129 20.7437 28.9526 19.7101 26.3888 19.2177C24.8933 18.9247 23.3916 18.8433 21.9123 19.2726C20.2255 19.7589 19.2061 21.0042 19.2122 22.5444C19.2086 22.893 19.2822 23.238 19.4279 23.5546C19.5736 23.8712 19.7876 24.1517 20.0546 24.3757C21.3548 25.5395 22.9663 26.1031 24.5758 26.6505C26.8873 27.4399 29.2558 28.0626 31.494 29.0718C33.6773 30.0586 35.6246 31.3486 36.9411 33.426C37.8933 34.9276 38.111 36.592 38.0439 38.3093C37.9544 40.5821 37.3297 42.6758 35.8606 44.4663C34.2186 46.4685 32.0353 47.5692 29.5712 48.1918C28.0673 48.5679 26.5204 48.7437 24.9706 48.7148Z" fill="#8CC440"/>
</g>
<defs>
<clipPath id="clip0_12_57">
<rect width="207" height="55" fill="white"/>
</clipPath>
</defs>
</svg>
