<svg fill="none" height="40" viewBox="0 0 124 40" width="124" xmlns="http://www.w3.org/2000/svg"><path clip-rule="evenodd" d="m58.036 10.7274c1.4147-.93543 3.0775-1.42512 4.7733-1.40587 3.7988 0 7.8875 2.41317 7.8875 7.71177v12.0231c-.0023.139-.0248.2769-.0668.4094l-.055.1856-.1673-.097c-1.3106-.7568-2.3099-1.9545-2.8196-3.3795l-.0089-.0519v-8.8675c0-3.1388-1.8721-5.1674-4.7699-5.1674-2.8997 0-4.7734 2.0286-4.7734 5.1674l-.0113 6.5043c-.5604 1.3695-1.5786 2.5022-2.881 3.2047l-.2252.1232v-25.79028c0-.824685.5683-1.29742 1.5588-1.29742s1.5588.472735 1.5588 1.29742zm-50.32424-1.40587c-1.60323-.05857-3.18352.39445-4.51223 1.29347-1.32871.8991-2.336918 2.1976-2.878763 3.7076-.040575.3807.058407 1.0702 1.177133 1.4157 1.22663.3772 1.67907-.2539 1.84342-.6707.31881-.8981.91287-1.6728 1.69759-2.2136.78471-.5408 1.72006-.8203 2.67285-.7985 2.75124 0 4.74814 1.8394 4.74814 4.3734v1.086c0 .5079-.6787.8396-1.3192.9816l-5.46146 1.4267c-4.08679.9301-5.67924 2.5136-5.67924 5.647 0 3.6626 3.31508 6.4248 7.71176 6.4248 4.68424 0 7.71124-2.8632 7.71124-7.293l.1213-8.3152c0-4.0937-3.2938-7.06527-7.83254-7.06527zm0 19.93547c-2.68098 0-4.62735-1.5503-4.62735-3.6868 0-1.9533 1.06871-2.5527 3.31854-3.0908l4.67835-1.2534c.4825-.0847.9459-.2549 1.3687-.5024l-.1114 3.8413v.0044c0 4.2309-3.23587 4.6877-4.62684 4.6877zm43.12694-5.445c-.9787-.1371-1.5851.2861-1.6776.7787-.2237 1.0714-.816 2.0305-1.6737 2.7105-.8578.6799-1.9268 1.0377-3.021 1.0109-2.8978 0-4.7699-2.0285-4.7699-5.1674v-5.8891c0-3.1389 1.8721-5.1674 4.7699-5.1674 1.0944-.0268 2.1636.331 3.0213 1.0112.8578.6802 1.45 1.6396 1.6734 2.7113.0925.4905.693.9133 1.6776.7776.4711-.0385.9076-.2625 1.2137-.6227.0782-.1023.135-.2192.1669-.3439.032-.1247.0386-.2545.0192-.3818-.6306-3.4294-3.8991-5.91831-7.7721-5.91831-3.7987 0-7.8875 2.41321-7.8875 7.71221v6.3327c0 5.2991 4.0888 7.7122 7.8875 7.7122 3.873 0 7.1415-2.4894 7.7726-5.9223.0189-.1267.0121-.2559-.0199-.38-.0321-.1241-.0888-.2404-.1667-.3422-.1515-.1784-.3366-.3252-.5449-.4319-.2083-.1068-.4356-.1714-.6688-.1903zm22.6556-6.7782c0-5.299 4.0888-7.71221 7.8875-7.71221 3.8007 0 7.891 2.41321 7.891 7.71221v6.2555c0 5.299-4.0903 7.7122-7.891 7.7122-3.7987 0-7.8875-2.4132-7.8875-7.7122zm7.8875 11.2046c2.8998 0 4.7734-2.0286 4.7734-5.1674v-5.8154c0-3.1389-1.8736-5.1674-4.7734-5.1674-2.8978 0-4.7704 2.0285-4.7704 5.1674v5.8154c0 3.1388 1.8726 5.1674 4.7704 5.1674zm-55.3614-18.91681c-3.7987 0-7.8875 2.41321-7.8875 7.71171v12.0231c.0021.1392.0248.2774.0673.4099l.0549.1852.1668-.0971c1.3105-.7567 2.3098-1.9541 2.8196-3.3789l.0089-8.9199c0-3.1389 1.8722-5.1674 4.7699-5.1674 2.8998 0 4.7734 2.0285 4.7734 5.1674v6.4464l.0114.0579c.5602 1.3696 1.5785 2.5023 2.881 3.2047l.2252.1232v-10.0545c0-5.2985-4.0903-7.71171-7.8909-7.71171zm80.0896 2.97001c-1.382-2.0696-3.976-2.88091-6-2.95665v-.01336l-.2741.00247-.0529-.00247-.152.00693v.00346c-5.2209.16781-7.5603 3.97292-7.5603 7.70132v12.0231c.0023.139.0249.2769.0669.4094l.0549.1857.1673-.0971c1.3104-.757 2.3096-1.9546 2.8196-3.3794l.0089-8.9194c0-3.1027 1.8464-5.1288 4.6996-5.1615.6991-.0008 1.3901.155 2.0211.456s1.187.7396 1.627 1.2835c.1.1576.233.2925.388.396.156.1036.331.1735.516.2054.184.0318.373.0249.554-.0203.181-.0453.351-.1279.499-.2425.795-.5133 1.027-1.2148.62-1.8756zm13.723 13.9573c.165-.4158.618-1.0474 1.843-.6707 1.063.3277 1.226.9509 1.177 1.4157-.542 1.5101-1.55 2.8087-2.878 3.7078-1.329.899-2.909 1.352-4.513 1.2933-4.538 0-7.833-2.9715-7.833-7.0653l.122-8.3151c0-4.4299 3.027-7.29301 7.711-7.29301 4.397 0 7.712 2.76211 7.712 6.42471 0 3.1334-1.592 4.717-5.68 5.6471l-5.46 1.4266c-.641.1421-1.32.4737-1.32.9816v1.0861c0 2.5339 1.997 4.3734 4.748 4.3734.953.0217 1.889-.2577 2.673-.7986.785-.5408 1.379-1.3154 1.698-2.2136zm-7.741-6.1584 4.679-1.2533c2.25-.5386 3.318-1.1381 3.318-3.0909 0-2.1365-1.946-3.6868-4.627-3.6868-1.391 0-4.627.4569-4.627 4.6877v.0045l-.111 3.8417c.422-.2476.886-.4179 1.368-.5029z" fill="#0e40c0" fill-rule="evenodd"/></svg>