<svg viewBox="0 0 611.4 134.49" xmlns="http://www.w3.org/2000/svg"><g fill="none"><circle cx="399.3" cy="56.32" r="17.5" transform="matrix(.9870804 -.16022575 .16022575 .9870804 -3.86 64.69)"/><circle cx="42.39" cy="57.08" r="17.5"/><circle cx="569.09" cy="57" r="17.5"/><circle cx="198.7" cy="57" r="17.5"/></g><g fill="#ff6900"><path d="m607.29 75.11c-2.28 0-4.11-1.83-4.11-4.11v-58.6c0-6.85-5.56-12.4-12.4-12.4h-12.4v14.46h4.11c2.28 0 4.11 1.83 4.11 4.11v14.92c-5.48-6.47-13.17-10.58-21.69-10.58-16.51 0-29.91 15.22-29.91 34.09s13.39 34.09 29.91 34.09c8.68 0 16.51-4.26 21.99-10.96 1.29 5.4 6.24 9.44 12.1 9.44h12.4v-14.46zm-38.2-.61c-9.67 0-17.5-7.84-17.5-17.5s7.84-17.5 17.5-17.5 17.5 7.84 17.5 17.5-7.84 17.5-17.5 17.5z"/><path d="m228.68 24.43c-5.86 0-10.73 4.03-12.1 9.51-5.48-6.77-13.32-10.96-21.99-10.96-16.51 0-29.91 15.22-29.91 34.09s13.39 34.09 29.91 34.09c8.52 0 16.21-4.03 21.69-10.58v8.37c0 9.67-7.84 18.11-17.5 18.11h-3.96v15.68h3.88c6.39 0 12.48-1.45 17.58-4.57 9.89-5.94 16.59-16.82 16.59-29.22v-45.89c0-2.28 1.83-4.11 4.11-4.11h4.11v-14.46h-12.4v-.08zm-29.98 50.07c-9.66 0-17.5-7.84-17.5-17.5s7.84-17.5 17.5-17.5 17.5 7.84 17.5 17.5-7.84 17.5-17.5 17.5z"/><path d="m46.5 22.91c-8.52 0-16.21 4.03-21.69 10.58v-21.09c0-6.84-5.56-12.4-12.41-12.4h-12.4v14.46h4.11c2.28 0 4.11 1.83 4.11 4.11v70.93h16.59v-9.06c5.48 6.47 13.17 10.58 21.69 10.58 16.51 0 29.91-15.22 29.91-34.09s-13.39-34.02-29.91-34.02zm-4.11 51.67c-9.66 0-17.5-7.84-17.5-17.5s7.84-17.5 17.5-17.5 17.5 7.84 17.5 17.5-7.84 17.5-17.5 17.5z"/><path d="m399.3 22.22c-18.8 0-34.09 15.22-34.09 34.09s15.22 34.09 34.09 34.09 34.09-15.22 34.09-34.09-15.3-34.09-34.09-34.09zm0 51.6c-9.67 0-17.5-7.84-17.5-17.5s7.84-17.5 17.5-17.5 17.5 7.84 17.5 17.5-7.84 17.5-17.5 17.5z"/><path d="m278.38 38.96c6.47 0 12.18 3.5 15.14 8.75l14.38-8.3c-5.86-10.2-16.89-17.05-29.53-17.05-18.8 0-34.09 15.3-34.09 34.09s15.3 34.09 34.09 34.09c12.63 0 23.59-6.85 29.53-17.05l-14.38-8.3c-3.04 5.25-8.68 8.75-15.14 8.75-9.67 0-17.5-7.84-17.5-17.5s7.84-17.5 17.5-17.5z"/><path d="m339.33 33.94c-1.29-5.48-6.24-9.51-12.02-9.51h-12.4v14.46h4.11c2.28 0 4.11 1.83 4.11 4.11v46.5h16.51v-32.95c0-9.66 7.84-17.5 17.5-17.5h4.11v-16.06c-8.6 0-16.44 4.19-21.92 10.96z"/><path d="m508.36 32.95-7.99 29.76-10.27-38.05h-12.48l-10.27 38.13-7.99-29.76c-1.67-4.95-6.32-8.52-11.8-8.52h-11.19v14.46h4.87c1.83 0 3.42 1.22 3.96 2.89.08.15 12.79 47.79 12.79 47.79h16.67l9.21-34.25 9.21 34.25h16.67s12.79-47.64 12.79-47.79c.53-1.67 2.13-2.89 3.96-2.89h4.87v-14.46h-11.19c-5.48-.08-10.12 3.5-11.8 8.45z"/><path d="m151.82 70.93v-46.65h-16.59v35.92c0 7.91-6.47 14.38-14.38 14.38s-14.38-6.47-14.38-14.38v-23.52c0-6.85-5.56-12.4-12.4-12.4h-12.4v14.46h4.11c2.28 0 4.11 1.83 4.11 4.11v24.58c0 12.48 9.67 22.75 21.92 23.67.23.08.46.08.68.08h2.21c.23-.08.46-.08.68-.08 7.99-.53 15.14-4.64 20.24-10.96 1.29 5.4 6.16 9.44 12.02 9.44h12.4v-14.54h-4.11c-2.28 0-4.11-1.83-4.11-4.11z"/></g><path d="m262.76 105.67c4.34 0 8.08 2.19 9.67 6.25h-4.1c-1.11-2.22-3.08-3.26-5.57-3.26-4.13 0-7.12 2.93-7.12 7.63s2.99 7.66 7.12 7.66c2.48 0 4.46-1.05 5.57-3.26h4.1c-1.59 4.07-5.33 6.23-9.67 6.23-5.87 0-10.62-4.37-10.62-10.62s4.76-10.62 10.62-10.62z"/><path d="m279.82 126.74h-3.41v-16.49h3.41v2.39c.96-1.65 2.6-2.67 4.94-2.67v3.53h-.87c-2.51 0-4.07 1.05-4.07 4.55v8.68z"/><path d="m295.06 127.01c-4.7 0-8.26-3.35-8.26-8.53s3.71-8.5 8.41-8.5 8.41 3.32 8.41 8.5-3.83 8.53-8.56 8.53zm0-2.97c2.54 0 5.06-1.82 5.06-5.56s-2.42-5.54-4.97-5.54-4.88 1.8-4.88 5.54 2.21 5.56 4.79 5.56z"/><path d="m305.06 110.25h3.47l3.44 13.26 3.5-13.26h3.56l3.35 13.2 3.41-13.2h3.35l-5.12 16.49h-3.59l-3.32-12.18-3.32 12.18h-3.59l-5.15-16.49z"/><path d="m338.37 109.98c2.15 0 4.43 1.02 5.69 2.57v-7.96h3.44v22.15h-3.44v-2.48c-1.05 1.5-3.02 2.75-5.72 2.75-4.34 0-7.78-3.5-7.78-8.59s3.44-8.44 7.81-8.44zm.69 2.96c-2.54 0-5 1.92-5 5.48s2.46 5.62 5 5.62 5-2 5-5.56-2.42-5.54-5-5.54z"/><path d="m357.98 127.01c-3.95 0-6.73-2.33-6.88-5.33h3.53c.12 1.35 1.41 2.46 3.29 2.46s3.02-.84 3.02-1.98c0-3.23-9.58-1.37-9.58-7.42 0-2.64 2.46-4.76 6.35-4.76s6.2 2 6.37 5.3h-3.41c-.12-1.44-1.23-2.42-3.08-2.42s-2.78.75-2.78 1.86c0 3.32 9.31 1.47 9.48 7.42 0 2.78-2.42 4.88-6.31 4.88z"/><path d="m375.13 127.01c-4.7 0-8.26-3.35-8.26-8.53s3.71-8.5 8.41-8.5 8.41 3.32 8.41 8.5-3.83 8.53-8.56 8.53zm0-2.97c2.54 0 5.06-1.82 5.06-5.56s-2.42-5.54-4.97-5.54-4.88 1.8-4.88 5.54 2.21 5.56 4.79 5.56z"/><path d="m402.01 126.74h-3.41v-1.97c-1.08 1.41-2.93 2.21-4.88 2.21-3.86 0-6.8-2.42-6.8-7.03v-9.7h3.38v9.19c0 3.02 1.65 4.58 4.13 4.58s4.16-1.56 4.16-4.58v-9.19h3.41v16.49z"/><path d="m409.91 126.74h-3.41v-16.49h3.41v2.39c.96-1.65 2.6-2.67 4.94-2.67v3.53h-.87c-2.51 0-4.07 1.05-4.07 4.55v8.68z"/><path d="m424.93 109.98c4.04 0 6.67 2 7.6 5.48h-3.68c-.57-1.59-1.89-2.6-3.92-2.6-2.75 0-4.58 2.03-4.58 5.63s1.82 5.66 4.58 5.66c2.03 0 3.29-.9 3.92-2.61h3.68c-.93 3.23-3.56 5.48-7.6 5.48-4.73 0-8.08-3.35-8.08-8.53s3.35-8.5 8.08-8.5z"/><path d="m443.05 127.01c-4.73 0-8.23-3.35-8.23-8.53s3.35-8.5 8.23-8.5 8.02 3.26 8.02 8.11c0 .57-.03 1.11-.12 1.67h-12.6c.24 2.72 2.18 4.37 4.7 4.37 2.09 0 3.26-1.02 3.89-2.31h3.68c-.93 2.87-3.53 5.18-7.57 5.18zm-4.67-10h9.13c-.06-2.55-2.07-4.16-4.61-4.16-2.31 0-4.16 1.56-4.52 4.16z"/><path d="m461.1 109.98c2.15 0 4.43 1.02 5.69 2.57v-7.96h3.44v22.15h-3.44v-2.48c-1.05 1.5-3.03 2.75-5.72 2.75-4.34 0-7.78-3.5-7.78-8.59s3.44-8.44 7.81-8.44zm.69 2.96c-2.54 0-5 1.92-5 5.48s2.45 5.62 5 5.62 5-2 5-5.56-2.43-5.54-5-5.54z"/><path d="m489.35 126.95c-4.16 0-7.36-2.27-7.36-5.95h3.65c.15 1.71 1.35 3.08 3.71 3.08s3.74-1.28 3.74-3.05c0-5.03-11.04-1.77-11.04-9.43 0-3.65 2.9-5.92 7.15-5.92 3.98 0 6.79 2.09 7.09 5.66h-3.77c-.12-1.41-1.35-2.69-3.5-2.75-1.97-.06-3.5.9-3.5 2.9 0 4.7 11.01 1.77 11.01 9.37 0 3.11-2.54 6.1-7.18 6.1z"/><path d="m507.67 127.01c-4.73 0-8.23-3.35-8.23-8.53s3.35-8.5 8.23-8.5 8.02 3.26 8.02 8.11c0 .57-.03 1.11-.12 1.67h-12.6c.24 2.72 2.18 4.37 4.7 4.37 2.1 0 3.26-1.02 3.89-2.31h3.68c-.93 2.87-3.53 5.18-7.57 5.18zm-4.67-10h9.13c-.06-2.55-2.06-4.16-4.61-4.16-2.31 0-4.16 1.56-4.52 4.16z"/><path d="m525.99 109.98c4.04 0 6.67 2 7.6 5.48h-3.68c-.57-1.59-1.89-2.6-3.92-2.6-2.75 0-4.58 2.03-4.58 5.63s1.82 5.66 4.58 5.66c2.03 0 3.29-.9 3.92-2.61h3.68c-.93 3.23-3.56 5.48-7.6 5.48-4.73 0-8.08-3.35-8.08-8.53s3.35-8.5 8.08-8.5z"/><path d="m551.94 126.74h-3.41v-1.97c-1.08 1.41-2.93 2.21-4.88 2.21-3.86 0-6.8-2.42-6.8-7.03v-9.7h3.38v9.19c0 3.02 1.65 4.58 4.13 4.58s4.16-1.56 4.16-4.58v-9.19h3.41v16.49z"/><path d="m559.84 126.74h-3.41v-16.49h3.41v2.39c.96-1.65 2.6-2.67 4.94-2.67v3.53h-.87c-2.51 0-4.07 1.05-4.07 4.55v8.68z"/><path d="m567.48 105.88c0-1.23.96-2.18 2.18-2.18s2.16.96 2.16 2.18-.96 2.19-2.16 2.19-2.18-.96-2.18-2.19zm.45 4.37h3.41v16.49h-3.41z"/><path d="m576.36 113.03h-1.95v-2.78h1.95v-4.1h3.44v4.1h4.01v2.78h-4.01v9.13c0 1.23.48 1.74 1.92 1.74h2.09v2.84h-2.69c-2.93 0-4.76-1.23-4.76-4.58z"/><path d="m598.27 110.25h3.53l-10.12 24.24h-3.53l3.35-8.02-6.49-16.22h3.8l4.64 12.57z"/></svg>