<svg fill="none" height="712" viewBox="0 0 2381 712" width="2381" xmlns="http://www.w3.org/2000/svg"><path clip-rule="evenodd" d="m2255.22 467.306h-85.97l-127.86-335.053h96.99l72.75 208.313 72.74-208.313h97.01zm-267.84-44.088c-66.14 67.229-173.06 67.229-240.3 2.205-16.53-16.526-29.77-36.371-38.58-58.409-8.82-22.05-13.23-46.293-13.23-69.434 0-24.255 4.41-48.498 13.23-70.536 8.81-20.948 20.95-39.678 36.38-56.216 15.43-15.423 34.16-28.653 54.01-37.473 20.94-8.808 44.08-13.218 66.13-13.218 23.15 0 45.19 4.41 67.24 12.116 19.84 7.717 38.57 19.845 54.01 36.37 15.43 16.538 28.66 35.268 36.37 56.216 8.82 23.141 13.24 47.384 13.24 72.741 0 24.243-4.42 47.384-13.24 69.434-7.71 20.936-19.84 39.678-35.26 56.204zm-43-163.111c-4.4-11.025-9.91-20.947-18.73-28.653-7.72-7.717-16.54-14.333-27.56-18.743-20.94-8.82-45.19-8.82-66.14 0-9.92 4.41-19.84 9.923-26.45 18.743-7.71 8.808-14.32 17.628-17.63 28.653-4.42 12.116-6.63 24.243-6.63 37.473 0 12.116 2.21 24.243 6.63 36.371 4.41 11.013 9.92 20.936 17.63 28.653 7.72 7.718 16.53 14.333 26.45 18.731 9.92 4.41 22.05 6.615 33.07 6.615 11.03 0 22.05-2.205 33.07-6.615 9.91-4.398 19.84-11.013 27.56-18.731 7.71-8.82 14.33-17.64 18.73-28.653 8.82-23.153 8.82-49.601 0-73.844zm-351.62 207.199-68.34-121.239-59.52 78.253v42.986h-85.97v-467.306h85.97v295.375l126.76-160.917h98.1l-111.33 138.867 111.33 195.084zm-330.68-228.146c-5.51-6.603-11.02-13.218-18.73-17.628-6.61-4.411-14.33-8.821-22.04-11.026-7.73-2.205-16.54-3.307-24.26-3.307-11.02 0-23.14 2.205-33.06 7.717-9.93 4.411-19.85 12.128-26.46 19.834-7.72 8.82-14.33 19.845-17.63 30.87-4.41 12.115-6.62 26.448-6.62 39.678 0 11.013 2.21 22.038 6.62 33.063 4.4 9.911 9.91 18.731 17.63 26.448 7.71 7.718 16.53 14.321 26.46 17.628 17.63 7.718 38.57 8.82 57.32 3.308 7.71-2.205 15.43-5.513 22.04-9.911 6.61-4.41 13.22-9.922 17.63-15.435 5.51-6.615 9.92-13.23 13.23-20.935l62.83 62.818c-7.72 11.013-16.53 20.936-27.56 30.858-9.91 8.821-20.93 16.526-33.07 23.141-12.12 6.615-24.24 11.025-37.47 14.333-13.22 3.307-27.56 4.41-40.79 4.41-23.14 0-45.19-4.41-66.13-13.23-40.79-17.628-73.85-49.589-91.48-90.37-8.83-20.947-13.24-42.985-13.24-66.126 0-24.255 4.41-48.498 13.24-71.651 8.81-22.038 20.94-40.769 36.36-58.409 15.43-16.525 34.18-29.755 54.02-39.678 20.94-9.922 42.99-14.32 66.13-14.32 14.33 0 27.57 2.205 40.79 5.5 27.55 6.615 51.81 20.948 71.64 40.781 9.92 9.922 19.84 20.947 26.45 34.165l-62.82 62.831c-1.11-11.025-5.52-18.742-11.03-25.357zm-406.723 148.79h9.918c7.715 0 16.531-1.103 24.245-3.308 7.715-2.205 15.429-5.512 22.053-9.91 13.225-8.82 24.245-20.948 30.858-36.371l62.829 62.819c-7.715 11.025-16.531 20.935-27.552 30.858-9.93 8.82-20.951 16.538-33.073 23.141-12.123 6.615-24.245 11.025-37.482 14.332-14.326 3.308-28.653 4.41-41.878 4.41-45.196 0-89.289-17.64-121.249-49.601-15.428-16.525-28.665-35.268-36.379-56.203-8.817-22.05-13.225-46.294-13.225-71.639 0-25.358 4.408-49.601 13.225-72.741 16.542-41.884 49.604-74.947 91.494-91.484 20.938-8.808 44.081-13.218 66.134-13.218 14.327 0 27.552 1.102 40.776 5.512 39.686 9.911 74.963 34.166 99.209 68.331l-159.833 192.867c3.318 1.102 6.624 2.205 9.93 2.205zm33.061-178.546c-3.306-1.103-7.714-2.205-12.122-3.308-4.408 0-7.714-1.102-12.123-1.102-11.02 0-22.053 2.205-33.073 6.615-9.919 4.41-19.837 9.923-26.449 18.743-7.715 7.705-14.327 17.628-17.633 28.653-4.42 12.115-6.624 24.243-6.624 37.473v11.013c0 4.41 1.102 7.717 1.102 12.127s1.102 7.718 2.216 12.128c1.102 3.308 2.204 6.615 4.408 9.91zm-322.96 67.229c1.102-8.808-1.102-16.526-4.408-25.346-6.612-15.435-18.735-27.55-34.175-34.166-7.715-3.307-16.531-5.512-24.245-5.512-26.449 0-49.604 15.435-59.523 39.678-3.306 7.718-5.51 16.538-5.51 25.346v190.673h-84.87v-467.306h84.87v147.688c9.918-7.718 19.837-13.23 31.971-16.538 11.021-3.307 22.041-4.41 33.062-4.41 19.837 0 39.685 3.308 58.42 12.128 17.633 7.717 34.176 18.742 47.4 31.96 13.225 14.333 24.245 29.756 31.96 47.396 7.714 18.731 12.122 38.576 12.122 58.409v190.673h-85.972zm-329.572-37.473c-5.51-6.603-11.02-13.218-18.747-17.628-6.612-4.411-14.326-8.821-22.041-11.026-7.714-2.205-16.53-3.307-24.245-3.307-11.02 0-23.155 2.205-33.073 7.717-9.918 4.411-19.837 12.128-26.449 19.834-7.714 7.717-14.3268 18.742-18.747 29.767-4.4082 12.116-6.6123 26.448-6.6123 39.678 0 11.013 2.2041 22.038 6.6123 33.064 4.4202 9.91 9.93 18.73 17.645 26.448 7.714 7.717 16.53 14.32 26.449 17.628 17.633 7.717 38.584 8.82 57.318 3.307 7.715-2.205 15.429-5.512 22.041-9.91 6.625-4.41 13.237-9.923 17.645-15.435 5.51-6.615 9.919-13.23 13.225-20.936l62.828 62.819c-7.714 11.025-16.53 20.935-27.551 30.858-9.93 8.82-20.951 16.538-33.073 23.141-12.123 6.615-24.245 11.025-37.482 14.332-13.224 3.308-27.551 4.41-40.776 4.41-23.155 0-45.196-4.41-66.134-13.23-40.7882-17.628-73.8617-49.589-91.4945-90.369-8.81632-20.948-13.2245-42.986-13.2245-66.127 0-24.255 4.40818-48.498 13.2245-71.638 8.8164-22.051 20.951-40.781 36.3797-58.421 15.4286-16.526 34.1634-29.756 54.0128-39.678 20.938-9.911 42.979-14.321 66.134-14.321 14.327 0 27.552 2.205 40.776 5.513 27.563 6.603 51.808 20.935 71.657 40.768 9.919 9.923 19.837 20.948 26.449 34.166l-62.828 62.831c0-9.923-4.409-17.64-9.919-24.255z" fill="#052882" fill-rule="evenodd"/><path d="m2270.7095 580.96545h50.587c33.6532 0 53.588 19.72036 53.588 52.94488s-19.7204 53.37359-53.588 53.37359h-50.587zm50.3727 88.74162c21.6495 0 33.6532-11.57499 33.6532-35.36804 0-23.79304-12.2181-35.79674-33.6532-35.79674h-31.081v71.16478zm-182.8421-23.14999v-65.59163h19.506v64.51987c0 19.72037 13.9329 26.36527 30.6523 26.36527 16.7195 0 30.438-6.43055 30.438-25.72221v-65.16293h19.506v64.94858c0 32.15276-21.6495 43.94211-50.3727 43.94211-28.7231 0-49.7296-11.78935-49.7296-43.29906zm-142.5439-12.4324c0-33.65322 22.7213-55.73145 58.3037-55.73145s58.0893 21.86388 58.0893 55.73145c0 33.86758-22.5069 55.73146-58.0893 55.73146s-58.3037-21.86388-58.3037-55.73146zm96.6727 0c0-23.57869-13.9329-38.15461-38.1547-38.15461-24.2217 0-38.3689 14.57592-38.3689 38.15461s13.9328 38.15461 38.1546 38.15461c24.2217 0 38.369-14.57592 38.369-38.15461zm-191.2018-53.15923h19.506v88.52727h63.0194l-.643 18.00555h-81.8824v-106.31847zm-126.6819 53.58794c0-30.00925 20.7921-55.94581 59.5898-55.94581 17.3625 0 31.081 6.43055 39.4407 12.8611v19.93472c-11.1463-7.71667-22.9356-15.00463-39.8694-15.00463-24.6505 0-39.012 16.50509-39.012 38.15462 0 21.64952 13.5041 37.51155 38.7976 37.51155 16.7195 0 28.9375-6.2162 40.0838-14.57592v19.93472c-8.1454 6.00184-22.7213 12.21805-41.5842 12.21805-39.6551 0-57.6606-25.29351-57.6606-55.0884zm-107.8189-40.08378c0-14.14722 10.0745-23.79305 25.7222-23.79305s25.9365 9.64583 25.9365 23.79305c0 14.14721-10.2888 24.00739-25.9365 24.00739s-25.7222-9.64582-25.7222-24.00739zm44.7995 0c0-11.14629-7.5023-18.00555-19.0773-18.00555s-19.0773 6.85926-19.0773 18.00555 7.5023 18.00554 19.0773 18.00554 19.0773-6.85925 19.0773-18.00554zm-29.1518-11.14629h11.7893c6.8593 0 9.6458 3.00092 9.6458 8.14536 0 2.78658-1.5004 5.7875-4.9301 6.85926l5.5732 6.6449s-6.2162.21436-6.2162.21436l-4.9301-6.21621h-5.5732v6.21621h-5.5731v-21.86388zm11.5749 11.14629c3.001 0 4.5014-.85741 4.5014-3.21528s-1.2861-3.21527-4.287-3.21527h-6.2162v6.6449h6.2162zm-111.6772-13.50416h31.5097l42.0129 106.31847h-20.3634l-10.7176-27.00832h-54.231l-10.7175 27.00832h-20.1491l42.2273-106.31847zm-4.9301 62.37636h40.9412l-17.3625-44.15646h-6.0019zm-181.1272-62.37636h23.15l37.7259 65.80598 36.8685-65.80598h23.5787v106.31847h-19.2917v-75.88052h-1.0718l-39.8694 68.80691h-1.5004l-39.4408-68.80691h-1.0717v75.88052h-19.0773zm-117.8935 97.53004v-19.93471c15.0046 8.35972 32.3671 13.28981 47.8004 13.28981 16.5051 0 25.0792-5.57315 25.0792-14.36157s-6.6449-11.57499-32.1528-15.86203c-21.2208-3.85833-39.8694-9.64583-39.8694-29.58054 0-17.57684 14.7903-33.65322 46.3-33.65322 13.5041 0 28.7231 3.64398 40.0838 10.28888v19.93471c-12.2181-7.93101-27.6514-12.21805-41.5843-12.21805-16.5051 0-24.4361 5.57315-24.4361 13.71852 0 9.86018 12.4324 11.78934 31.5097 15.43332 21.2209 3.85833 40.5125 9.43148 40.5125 31.08101 0 13.71851-8.5741 33.22452-45.6569 33.22452-19.9347 0-35.368-4.93009-47.8004-11.14629zm-48.6578-97.53004h19.506v106.31847h-19.506zm-122.6092 0h55.5171c26.5796 0 39.655 12.8611 39.655 35.79674 0 17.57684-8.3597 29.36619-24.2217 33.65322l28.2944 36.86851h-22.9356l-24.6505-33.43888h-32.1527v33.43888h-19.506zm54.874 55.73145c15.0046 0 20.5778-8.35972 20.5778-19.0773 0-10.71759-5.5732-19.07731-20.5778-19.07731h-35.368v38.15461zm-172.55315-55.73145h54.01665c25.9365 0 39.4407 13.93286 39.4407 37.2972 0 25.93656-16.5051 38.36897-41.1555 38.36897h-32.5815v30.43794h-19.506v-106.31846zm52.51615 58.30367c14.5759 0 21.2208-8.14536 21.2208-20.36341 0-13.28981-7.0736-20.36342-21.4351-20.36342h-32.5815v40.72683h33.0102zm-181.77026 11.36065-47.80044-69.66432h22.72129l34.29628 51.01571h1.50046l34.72498-51.01571h22.07823l-48.01479 69.44996v36.86851h-19.50601zm-156.26243-69.66432h59.16109c21.64952 0 34.72498 9.21712 34.72498 26.79397 0 12.21805-5.57314 21.00647-19.50601 24.4361 14.36157 4.93009 21.64953 12.64675 21.64953 25.50785 0 21.43518-15.86203 29.58055-39.44072 29.58055h-56.58887zm56.58887 44.15646c12.21805 0 17.79119-4.28704 17.79119-13.71851 0-9.43148-6.00185-13.28981-17.36249-13.28981h-38.36896v27.22267h37.94026zm.4287 44.79951c13.71851 0 19.50601-4.71573 19.50601-14.79027 0-9.21712-5.57315-14.57592-19.07731-14.57592h-38.79766v29.58055h38.36896z" fill="#000"/></svg>