<svg height="50.706" viewBox="0 0 165.235 50.706" width="165.235" xmlns="http://www.w3.org/2000/svg"><path d="m60.667 19.509c-.009-6.392 4.081-10.331 10.143-10.34 6.1-.008 10.2 3.919 10.213 10.311s-4.082 10.332-10.185 10.34h-.02c-6.05 0-10.142-3.926-10.151-10.311zm10.149-5.909c-2.908 0-4.174 2.587-4.17 5.906s1.278 5.9 4.186 5.894c2.949 0 4.215-2.588 4.21-5.906s-1.276-5.894-4.219-5.894zm17.6 12.8v2.2a.624.624 0 0 1 -.623.625l-4.395.006a.675.675 0 0 1 -.676-.674l-.031-27.397a.612.612 0 0 1 .609-.613l4.673-.007a.614.614 0 0 1 .615.614l.016 11.1a7.058 7.058 0 0 1 6.1-3.123c4.833-.007 8.647 3.962 8.656 10.313.009 6.392-3.794 10.331-8.627 10.337h-.015a6.814 6.814 0 0 1 -6.299-3.387zm4.654-12.715c-2.048 0-4.5 1.523-4.5 5.251v1.106c.005 3.729 2.506 5.2 4.513 5.2 2.621 0 4.256-2.464 4.251-5.783 0-3.275-1.644-5.771-4.262-5.772zm11.562 10.433c-.007-5.2 5.847-6.851 12.318-6.86v-1.27c0-1.475-.9-2.539-2.788-2.536a2.782 2.782 0 0 0 -2.94 1.773.716.716 0 0 1 -.8.5l-4.045-.614a.841.841 0 0 1 -.683-1.055c.876-3.187 4.388-4.941 8.623-4.947 4.751-.007 8.4 2.119 8.407 7.364l.014 9.957a8.678 8.678 0 0 0 .215 1.943.655.655 0 0 1 -.638.8l-4.257.006a.78.78 0 0 1 -.766-.625 9.96 9.96 0 0 1 -.164-1.832 6.213 6.213 0 0 1 -5.771 3.04h-.017c-4.168.001-6.703-2.125-6.708-5.644zm5.734-.336c0 1.188 1.149 1.76 2.542 1.758 2.048 0 4.053-1.194 4.05-3.242v-1.475c-3.975.006-6.596.624-6.592 2.96zm25.542-.454-.013-8.918a.58.58 0 0 0 -.581-.58h-2.1a.581.581 0 0 1 -.581-.58v-3.175a.58.58 0 0 1 .58-.581h1.4c1.013 0 1.284-.539 1.282-1.5l-.005-3.739a.581.581 0 0 1 .341-.53l4.769-2.171a.58.58 0 0 1 .82.528l.01 6.822a.581.581 0 0 0 .581.58h3.089a.581.581 0 0 1 .581.58v3.175a.581.581 0 0 1 -.58.582h-3.089a.581.581 0 0 0 -.58.582l.012 8.133c0 1.981.7 2.353 1.7 2.351a3.347 3.347 0 0 0 1.539-.4.581.581 0 0 1 .811.347l1.087 3.5a.59.59 0 0 1 -.358.721 11.93 11.93 0 0 1 -3.942.664h-.019c-3.862 0-6.748-1.69-6.755-6.391zm-101.572-8.669c-.013-9.211 5.286-14.647 13.764-14.659 5.783-.008 9.921 2.459 11.726 7.4a.565.565 0 0 1 -.343.729l-4.802 1.69a.557.557 0 0 1 -.706-.339c-1.006-2.815-2.8-4.457-5.985-4.453-4.982.007-7.431 4.032-7.424 9.623.008 5.55 2.469 9.609 7.494 9.6a5.765 5.765 0 0 0 5.84-4.18.572.572 0 0 1 .725-.341l4.675 1.649a.579.579 0 0 1 .337.779c-1.928 4.409-5.753 7.113-11.652 7.121h-.027c-8.264.001-13.609-5.378-13.622-14.619zm90.964 13.88-.039-27.421a.63.63 0 0 1 .629-.631l4.641-.007a.63.63 0 0 1 .631.63l.038 27.421a.63.63 0 0 1 -.629.631l-4.637.006a.63.63 0 0 1 -.634-.629zm-125.276-11.029a.416.416 0 0 1 .187-.5l2.871-1.658a.409.409 0 0 0 0-.708l-2.869-1.654a.421.421 0 0 1 -.189-.5 7.537 7.537 0 0 1 9.055-4.762 8.129 8.129 0 0 1 5.288 5.25 7.526 7.526 0 0 1 -14.343 4.532zm6.96-4.967a2.461 2.461 0 1 0 .128 0c-.043-.003-.086-.001-.129.001z" transform="translate(18.222 10.292)"/><path d="m35.722 41.479a.414.414 0 0 1 -.151.566l-.831.48a.407.407 0 0 1 -.556-.149l-1.614-2.8a.4.4 0 0 0 -.522-.162 15.41 15.41 0 0 1 -5.378 1.453.405.405 0 0 0 -.373.4v3.216a.408.408 0 0 1 -.408.408h-.959a.415.415 0 0 1 -.415-.415v-3.203a.4.4 0 0 0 -.371-.4 15.425 15.425 0 0 1 -5.385-1.435.409.409 0 0 0 -.53.165l-1.6 2.766a.414.414 0 0 1 -.566.152l-.831-.48a.407.407 0 0 1 -.149-.556l1.6-2.772a.409.409 0 0 0 -.122-.541 15.614 15.614 0 0 1 -3.948-3.943.4.4 0 0 0 -.534-.12l-2.766 1.6a.411.411 0 0 1 -.562-.151l-.475-.822a.42.42 0 0 1 .154-.574l2.757-1.592a.4.4 0 0 0 .162-.523 15.439 15.439 0 0 1 -1.443-5.397.406.406 0 0 0 -.4-.374h-3.188a.415.415 0 0 1 -.415-.415v-.961a.407.407 0 0 1 .407-.407h3.19a.412.412 0 0 0 .41-.38 15.439 15.439 0 0 1 1.445-5.386.407.407 0 0 0 -.164-.527l-2.761-1.592a.416.416 0 0 1 -.152-.568l.476-.825a.413.413 0 0 1 .564-.151l2.765 1.6a.4.4 0 0 0 .533-.119 15.616 15.616 0 0 1 3.952-3.945.405.405 0 0 0 .12-.536l-1.6-2.774a.408.408 0 0 1 .149-.557l.831-.48a.413.413 0 0 1 .565.151l1.6 2.771a.4.4 0 0 0 .524.164 15.423 15.423 0 0 1 5.384-1.439.406.406 0 0 0 .374-.4v-3.2a.419.419 0 0 1 .419-.42h.952a.41.41 0 0 1 .409.41v3.21a.405.405 0 0 0 .373.4 15.411 15.411 0 0 1 5.373 1.45.409.409 0 0 0 .53-.165l1.61-2.79a.409.409 0 0 1 .558-.15l.828.478a.416.416 0 0 1 .152.568l-1.61 2.789a.409.409 0 0 0 .121.541 15.7 15.7 0 0 1 2.218 1.865 1.361 1.361 0 0 0 1.844.1l5.494-4.6a1.353 1.353 0 0 0 .117-1.92 25.343 25.343 0 1 0 -18.52 42.659 25.556 25.556 0 0 0 18.338-7.865 1.54 1.54 0 0 0 -.132-2.241l-5.417-4.533a1.184 1.184 0 0 0 -1.611.084 15.691 15.691 0 0 1 -2.333 1.981.4.4 0 0 0 -.12.533z" transform="translate(-.068 -.019)"/></svg>