<svg height="60" viewBox="0 0 250 60" width="250" xmlns="http://www.w3.org/2000/svg"><g fill="none" transform="translate(0 .83084)"><path d="m92.9794725 5.80071099c4.0679742 0 7.5835155 1.05393391 9.9440295 2.71039658.451812.35140478.552432.70266934.552432 1.3050579v3.36292693c0 .5019676-.251128.8030903-.653052.8030903-.200677 0-.451805-.1505599-.652773-.3011227-2.3103447-2.2085721-5.675095-3.51363-9.1906365-3.51363-8.537876 0-13.208743 5.9229038-13.208743 14.4556401 0 8.8340021 5.3737991 14.3050773 12.8569865 14.3050773 3.8171297 0 6.8304153-.9536503 9.642733-3.2625032.251136-.1505599.401925-.2509837.602884-.2509837.351476 0 .602601.3011227.602601.7026693v2.6602576c0 .6023914-.150788.8030903-.552432 1.1042159-2.912938 2.1582872-6.1773516 3.1622224-11.2498544 3.1622224-10.1449944 0-17.3268771-7.4788053-17.3268771-18.2201136 0-10.4904648 7.0815432-19.02320111 18.632702-19.02320111zm26.0475505 11.54439871c8.286748 0 12.103594 6.2741655 12.103594 12.6988938 0 6.4748673-3.816846 13.0000194-12.103594 13.0000194-8.236568 0-12.154046-6.5251521-12.154046-13.0000194 0-6.4247283 3.917475-12.6988938 12.154046-12.6988938zm47.806857-5.2702332c.401628 0 .602593.2007018.602593.6022455v1.5057597c0 1.2549189-.150788 2.8611024-.351465 4.1660173 1.355994-.100278 3.967355-.1505628 5.825604-.1505628.200968 0 .351756.1505628.351756.4518286v2.6099756c0 .2509837-.100628.4015465-.351756.4015465-1.757638 0-4.067983 0-5.825604-.1505628.126737 1.2257859.146748 2.4515717.149907 4.3967325l.000593 9.1553963c0 3.2123641 1.556961 4.2162964 3.666338 4.2162964.652772 0 1.305834-.1004209 1.757638-.3514047.351756-.15056.602884 0 .602884.3011255v3.0116624c0 .2509838-.200968.4516856-.452096.5019648-.9039.2007046-1.808089.3011256-2.561473.3011256-4.168322 0-7.583532-2.509692-7.583532-7.880349v-8.0810508c0-2.6602576.100628-4.1661603.251144-5.571499-.837107.125469-1.918287.1463805-2.662216.1498658l-.401238.000697c-.301304 0-.502272-.3514047-.502272-.9536531 0-.5521065.050176-.8532293.351464-1.0039351 2.561493-1.6061807 4.771207-4.1157325 6.528847-7.2278186.150789-.3011228.30158-.4014036.602884-.4014036zm36.894863 5.270236c6.880581 0 9.190637 3.2123613 9.190637 7.4787996 0 3.0115221-.251128 7.679507-.251128 10.4401856 0 3.5134869.703224 5.4207931 1.456625 5.9728997.200951.2008448.251127.3514048.251127.6023914 0 .3011255-.301304.5521065-.552432.5521065h-2.210006c-.753109 0-1.104865-.30112-1.355993-.9035113-.552433-.9536503-.95406-2.5598366-1.004237-4.1660173-1.406445 3.5134869-4.268934 5.722059-8.537884 5.722059-4.570222 0-7.332663-2.7103966-7.332663-6.3745865 0-5.0192494 4.871818-9.1351277 15.066984-9.7375163v-1.6563224c0-2.7605356-1.255657-4.4671401-5.072495-4.4671401-2.109394 0-3.566001.6022456-4.469901 1.7066045-.703224.8532293-1.155029 1.5558986-2.259894 1.5558986-1.10514 0-1.95888-.6525275-1.95888-1.9073034 0-1.7066045 2.511313-4.8185476 9.04014-4.8185476zm22.312183-.0000028c2.912938 0 5.122671.8532293 6.328151 1.8571644.652772.5521066.853737 1.0037921.853737 1.7066045 0 1.2547787-.853737 2.108008-1.70746 2.108008-.602885 0-.954369-.1004238-1.406445-.5018245-1.355994-1.1043589-2.762167-1.6564655-4.319111-1.6564655-2.912955 0-4.268934 1.6564655-4.268934 3.4633479 0 2.5598338 2.109377 3.2123642 4.77119 4.1158755 4.871543 1.6563225 7.533356 3.2625059 7.533356 7.4285204 0 4.2664411-3.766678 7.1776797-9.291266 7.1776797-3.163793 0-5.524315-.9035086-7.08126-2.0077245-.301304-.2509838-.401644-.5521065-.401644-.8532293v-2.308993c0-.4015466.100337-.6525304.351465-.6525304.301305 0 .502273.100421.702949.3012658 1.556944 1.2547759 3.917466 2.1582872 6.378311 2.1582872 3.214262 0 4.921995-1.5560417 4.921995-3.5134841 0-2.6101186-2.360505-3.2123669-5.825895-4.4171441-3.314582-1.1042159-6.478648-2.8106773-6.478648-7.2779604 0-3.7644707 3.364742-7.1273976 8.939509-7.1273976zm17.474517-5.2702332c.401645 0 .602593.2007018.602593.6022455v1.5057597c0 1.2549189-.150789 2.8611024-.351465 4.1660173 1.355994-.100278 3.967354-.1505628 5.825604-.1505628.200968 0 .351756.1505628.351756.4518286v2.6099756c0 .2509837-.100612.4015465-.351756.4015465-1.757621 0-4.067966 0-5.825604-.1505628.134673 1.3023975.148849 2.604795.150341 4.770056l.000176 8.7820728c0 3.2123641 1.556944 4.2162964 3.666338 4.2162964.652755 0 1.305816-.1004209 1.757621-.3514047.351756-.15056.602884 0 .602884.3011255v3.0116624c0 .2509838-.200951.4516856-.452096.5019648-.9039.2007046-1.808072.3011256-2.561473.3011256-4.168303 0-7.583516-2.509692-7.583516-7.880349v-8.0810508c0-2.6602576.100612-4.1661603.251128-5.571499-.837107.125469-1.918287.1463805-2.662217.1498658l-.401237.000697c-.301305 0-.502256-.3514047-.502256-.9536531 0-.5521065.05016-.8532293.351465-1.0039351 2.561476-1.6061807 4.771192-4.1157325 6.52883-7.2278186.150788-.3011228.30158-.4014036.602884-.4014036zm-94.696627 5.270236c4.31911 0 7.784484 2.6602576 7.784484 7.830067v16.7646274c0 .2007046-.251128.4516856-.452096.4516856h-3.66605c-.251128 0-.452096-.250981-.452096-.4516856v-15.7105561c0-3.6640469-1.908428-5.2200914-4.921703-5.2200914-3.766678 0-7.332679 2.7606814-7.332679 7.629368v13.3012795c0 .2007046-.251128.4516856-.451805.4516856h-3.666338c-.251128 0-.452096-.250981-.452096-.4516856v-19.2741848c0-2.6101158-.351464-3.6641928-.351464-4.0154545 0-.2008448.200959-.4518286.401635-.4518286h3.164083c.251128.0000028.401916.2509866.452087.4518314.150789 1.0539339.301305 3.1119431.301305 4.7181238 1.355985-3.5134869 5.022335-6.0231817 9.642733-6.0231817zm40.377421-.0000028c3.163794 0 4.519787 1.6061806 4.519787 3.4130659 0 1.4556207-.753109 2.5096948-2.008765 2.5096948-1.707455 0-1.556939-1.7066045-4.218769-1.7066045-3.415193 0-5.222993 3.413209-5.222993 7.2278187v13.1507223c0 .2007046-.251145.4516856-.452096.4516856h-3.666339c-.251128 0-.451804-.250981-.451804-.4516856v-19.2741848c0-2.6101158-.351756-3.6641928-.351756-4.0154545 0-.2008448.200951-.4518286.401916-.4518286h3.164083c.251128 0 .401627.2509838.451804.4518286.200968 1.3049149.301304 3.1620821.301304 4.9691076 1.20548-3.6641927 3.86729-6.2741655 7.533628-6.2741655zm-70.169211 3.4130659c-5.122955 0-7.232048 4.1661603-7.232048 9.3861087 0 5.2703762 2.159556 9.5869562 7.232048 9.5869562 5.122668 0 7.232056-4.3667218 7.232056-9.5869562 0-5.3203722-2.159556-9.3861087-7.232056-9.3861087zm89.422741 8.6332975c-7.734321.5521122-10.597082 3.262506-10.597082 6.4748701 0 2.4595558 1.908409 3.7644707 4.118143 3.7644707 3.867289 0 6.478939-3.1119431 6.478939-7.0269766z" fill="#0a004f"/><path d="m79.4298316 47.8686668c1.0080051 0 1.8286392.2302355 2.5340882.7050333.1295117.1007967.1441105.1869977.1441105.3596771v.9785067c0 .1295762-.0719192.2015935-.1727778.2015935-.0721913 0-.1295118-.0289168-.1873793-.0864757-.6911139-.6762538-1.4974158-.9928277-2.4189029-.9928277-1.1805191 0-1.828367.7194917-1.828367 1.5828778 0 1.1080801 1.0220735 1.4965367 2.1739225 1.9570106 1.9151656.7194917 2.8653143 1.5253189 2.8653143 3.0794201 0 1.827569-1.4974074 2.9067378-3.4842284 2.9067378-1.3965657 0-2.1022784-.2733388-2.9948317-.9064893-.0865264-.0864758-.1441189-.1726767-.1441189-.3310352v-.7915034c0-.1437654.0575925-.2302355.1441189-.2302355.0719276 0 .1295202.0432322.1871128.1007939.8352273.6763885 1.7421128 1.0360656 2.7501263 1.0360656 1.2957071-.0000056 2.0876739-.676394 2.0876739-1.6259839 0-1.1944184-.9214871-1.4965367-2.4621633-2.1296872-1.3678956-.5324912-2.5770819-1.2952152-2.5770819-2.9355201 0-1.4678918 1.1805191-2.8779584 3.3833838-2.8779584zm21.6854714 0c1.166467 0 2.174206.3021183 2.850988.7769132.12952.1007967.158445.2015935.158445.374273v.9640482c0 .1438972-.071919.2302356-.187104.2302356-.057868 0-.129784-.0431005-.187379-.0863384-.662192-.6331505-1.626937-1.0072861-2.63495-1.0072861-2.4475533 0-3.7865263 1.6979984-3.7865263 4.1442595 0 2.5326023 1.5406762 4.1011591 3.6859483 4.1011591 1.094265 0 1.958151-.2734734 2.764453-.9354062.071927-.0431005.115185-.0720145.172778-.0720145.100861 0 .17278.0864701.17278.2015907v.7625921c0 .1726767-.04326.2302356-.158448.3165767-.834961.6186922-1.771047.9064894-3.225205.9064894-2.9083024 0-4.9673148-2.1440139-4.9673148-5.2234284 0-3.0075346 2.030087-5.4536639 5.3415348-5.4536639zm7.976209.3308949c.057593 0 .129521.0720173.129521.1438972v6.3602907c0 1.6261129 1.02234 2.5613817 2.764452 2.5613817 1.771055 0 2.793395-.820151 2.793395-2.4893644v-6.432308c0-.0718799.057593-.1438972.129512-.1438972h1.166193c.057592 0 .12952.0720173.12952.1438972v6.6193085c0 2.1872462-1.698855 3.5829889-4.21862 3.5829889-2.519481 0-4.232934-1.4100637-4.232934-3.6262267v-6.5760707c0-.0718799.057592-.1438972.129511-.1438972zm-16.3639447.0000028c.0721914 0 .100853.0431061.1151852.1295762l.100853.892031c0 .0720173-.0286588.1151177-.100853.1151177-.8638945 0-2.3037177-.028642-3.1386784-.028642-.7487093 0-1.2527105-.0144584-1.7421128-.0432379.0286588.5612707.0429938 1.1368624.0429938 1.6259811 0 .5324912-.014335 1.0936245-.0429938 1.6548923.4461363-.0432378.9501459-.0575588 1.6699214-.0575588.7343743 0 1.2670455-.0143211 1.612601-.0143211.0578592 0 .100853.0431005.100853.1294388v.8633889c0 .07188-.0286588.1151178-.100853.1151178-.3598905 0-.9068883-.014321-1.6412626-.014321-.6191975 0-1.1661925-.0289168-1.6412626-.0720173.0286588.6331506.0429938 1.2375245.0429938 1.8274372 0 .6476062-.014335 1.3238628-.0429938 1.971469.5535055-.035264 1.0300933-.0416757 1.7687371-.0428414l.5349722-.0002591c.9214899-.0000028 1.9292284-.0289196 2.7931229-.0289196.0575926 0 .1008614.0432378.1008614.1295762l-.1151852.8921683c-.014335.07188-.0289338.1151178-.1008614.1151178h-6.2632884c-.0719276 0-.1295202-.0718799-.1295202-.1294388v-9.8858581c0-.0718799.0575926-.1438972.1295202-.1438972zm30.9773967.0000028c2.36131 0 3.412584 1.2663039 3.412584 2.8348551 0 1.5684194-1.411165 2.6908261-2.894246 2.8059439.734375.1582183 1.799706 1.1942866 2.836381 2.3743812.806302.892031 1.382231 1.5540984 1.684795 1.7123195.071928.0287794.086252.1006593.086252.2014561 0 .1438972-.07192.2302383-.187105.2302383h-1.324638c-.187113 0-.331223-.0863411-.647848-.5180356-1.281377-1.4822156-2.793395-3.6550062-3.815468-3.6550062-.158446 0-.561597-.0144584-.820901-.0287794.043269.6188296.057593 1.2663039.057593 1.9426896v2.1296928c0 .0575589-.07192.1294388-.129512.1294388h-1.195127c-.071919 0-.129511-.0718799-.129511-.1294388v-9.8426202c0-.1007968.071919-.1871351.129511-.1871351zm9.814851-.0000028c.057592 0 .12952.0720173.12952.1438972v9.8858581c0 .0575589-.071928.1294388-.12952.1294388h-1.195118c-.071928 0-.12952-.0718799-.12952-.1294388v-9.8858581c0-.0718799.057592-.1438972.12952-.1438972zm12.289997.0000028c.072191 0 .100859.0431005.100859.115115v.9785067c0 .0575589-.028668.1006593-.100853.1006593-.532672 0-1.166193-.028642-1.698864-.028642-.633521 0-1.295971-.0144584-1.929492-.0432379.028934.5323538.043257 1.064845.043257 1.5973335v7.3100179c0 .0575589-.071919.1294388-.129511.1294388h-1.195127c-.071919 0-.129511-.0718799-.129511-.1294388v-7.3389292c0-.5323538.014326-1.0647076.043257-1.5684194-.575929.0287795-1.166459.0432379-1.742388.0432379-.662183 0-1.252435.028642-1.914893.028642-.071928 0-.115185-.0431004-.100861-.1151177l.12952-.9495899c.014599-.0864701.043257-.1295762.100853-.1295762zm3.599147-.0000028c.12952 0 .201448.0720173.244705.1582182l2.361311 3.122658c.330948.4749267.633521.9354006.863894 1.4534334.287966-.546944.575929-1.0074179.892545-1.4389806l2.375645-3.1371108c.086518-.1294388.187388-.1582182.302573-.1582182h1.209453c.158446 0 .158446.1151178.071911.2302356l-4.161007 5.4969017v4.302618c-.000003.0575589-.072203.1294388-.129523.1294388h-1.195118c-.071928 0-.129795-.0718799-.129795-.1294388v-4.302618l-4.11775-5.4969017c-.08626-.1151178-.08626-.2302356.071928-.2302356zm-27.35959 1.050524c.028667.5323538.042994 1.6116545.042994 2.1872461 0 .5899127-.014327 1.1798282-.042994 1.7554199.25904-.014321.662191-.0431004 1.065342-.0431004 1.713454 0 2.476487-.7913716 2.476487-2.0721284 0-1.0936245-.662183-1.7843367-2.059012-1.7843367-.518336 0-.993407-.0144585-1.482817-.0431005z" fill="#9da5b3"/><path d="m17.0520191 24.1825873c0 7.3427513 2.8237635 13.8615351 7.4670975 18.2538845-.7338348.0665155-1.4891292.0987048-2.2680238.0987048-13.13823025 0-22.2510928-7.6131177-22.2510928-18.0307267s9.11286255-18.03287194 22.2510928-18.03287194c.5214111 0 1.0299449.01072885 1.5213144.03004134-4.2163348 4.4159495-6.7203881 10.7094303-6.7203881 17.680968z" fill="#004d45"/><path d="m55.8791522 9.96485786c.620729 4.00396854-2.4593775 7.29983594-7.6906363 7.29983594-7.8618698 0-9.2574447-10.12578775-24.4161087-10.7630745 3.8335461-4.03186183 9.0904896-6.5016193 15.1715078-6.5016193.119864 0 .2375874 0 .3574541.00214521 8.7458765 0 15.8971193 5.59182096 16.5777831 9.96271265z" fill="#0e9e53"/><path d="m51.3314824 31.945906c2.0272815.3948165 4.6266937 1.7809717 4.6266937 5.9952211 0 5.8514585-9.1044177 10.218057-16.6738003 10.2910109 0 0-.0194282 0-.0366989 0-.012953 0-.019431 0-.0259089 0s-.0086353 0-.0086353 0c-5.764477-.0085836-10.848873-2.1822266-14.6940133-5.7956662 13.340332-1.1308109 19.5884173-11.9046143 26.812363-10.4905658z" fill="#0a004f"/></g></svg>