<svg viewBox="0 0 542.48 188.47" xmlns="http://www.w3.org/2000/svg"><path d="m25.51 29.53h500v134.62h-500z" fill="none"/><path d="m67 88.82a62 62 0 0 1 -2.3-14.37l-.1-2.61s14.85-9.63 33.51-7.59a60.56 60.56 0 0 1 22.45 7.59s.63 18.5-9.59 31.65c-9.2 11.92-18.34 16.07-18.34 16.07s-20.26-10.93-25.63-30.74z" fill="#ffdc1a" fill-rule="evenodd"/><path d="m42.55 104.71 9.91-5.64.53 1.2c8 18.5 22.57 31.05 39.61 41.47 12.2-7.44 23.43-16.19 31.66-27.52a8.52 8.52 0 0 0 5.58-.61 8.37 8.37 0 0 0 3.94-3.94 8.1 8.1 0 0 0 .52-5.5 8.22 8.22 0 0 0 -3.11-4.59 8.48 8.48 0 0 0 -10.57.46 8.13 8.13 0 0 0 -1.68 10.27c-6.8 9.21-15.69 16.46-25.73 22.55l-.61.38-.62-.38c-17.58-10.64-30.2-23.93-35.86-43.49l-10.94 6.23-5.13 2.92-.45-1.34c-4.6-13.64-6.2-28.26-6.6-42.48v-.7l.65-.34c15.16-8.11 31.56-14.95 48.8-16.94v-6.64c-20 2.11-39.29 10.29-56.9 19.62.6 19.68 2.94 40.17 11.16 58.36l5.88-3.33zm83.64-1.54a3.08 3.08 0 0 1 1.69.51 2.93 2.93 0 0 1 1.12 1.32 2.89 2.89 0 0 1 .17 1.72 3 3 0 0 1 -.83 1.53 3 3 0 0 1 -1.56.82 3 3 0 0 1 -3.11-1.27 2.9 2.9 0 0 1 -.51-1.66 2.94 2.94 0 0 1 .87-2.09 3.06 3.06 0 0 1 2.11-.9z"/><path d="m93.77 29.53v17.77h-1.17c-16.95 0-32.6 5.83-47.39 13.63.1 3 .27 5.91.52 8.86a8.25 8.25 0 0 0 -3.43 4.31 8.09 8.09 0 0 0 .05 5.47 8.28 8.28 0 0 0 3.52 4.24 8.47 8.47 0 0 0 10.4-1.3 8.15 8.15 0 0 0 1-10.29 8.4 8.4 0 0 0 -4.42-3.32c0-1.05-.09-2-.12-3v-.71l.63-.34c14.91-7.91 30.27-12.46 47.18-10.49v-17.91l1.28.14c17.63 1.8 34.32 8.79 49.79 17.06l.63.35v.7a175.59 175.59 0 0 1 -2.83 28.2l6.24 3.56a198.8 198.8 0 0 0 4.09-36.71c-20.49-10.89-42.43-19.95-65.97-20.22zm-40.46 47.19a2.92 2.92 0 0 1 -.52 1.67 3 3 0 0 1 -1.36 1.1 3 3 0 0 1 -1.76.17 3 3 0 0 1 -2.22-4.09 3 3 0 0 1 1.12-1.34 3.08 3.08 0 0 1 1.69-.51 3.12 3.12 0 0 1 2.14.89 3 3 0 0 1 .88 2.11z"/><path d="m136.56 87.55a125.36 125.36 0 0 0 3.44-26.64 143.89 143.89 0 0 0 -17.91-8.06 8.22 8.22 0 0 0 -2.41-5 8.47 8.47 0 0 0 -10.49-1.08 8.3 8.3 0 0 0 -3.4 4.36 8.06 8.06 0 0 0 .14 5.5 8.26 8.26 0 0 0 3.62 4.2 8.46 8.46 0 0 0 10.41-1.59 111.26 111.26 0 0 1 12 5.54l.64.34v.71a91.71 91.71 0 0 1 -4.06 25.62l16 9.08-.36.92c-9.74 24.52-28.65 40.25-50.92 53.78l-.61.38-.62-.38c-17.35-10.48-33.71-23.07-44.29-40.56l-5.83 3.33c12 19.84 31 34.17 50.69 46.14 27.54-16.77 49.84-35.51 60-66.54l-16.22-9.22zm-22.84-30.88a3 3 0 0 1 -1.68-.51 2.94 2.94 0 0 1 -1.11-1.33 2.92 2.92 0 0 1 .65-3.25 3.06 3.06 0 0 1 1.54-.83 3.16 3.16 0 0 1 1.75.16 3 3 0 0 1 1.37 1.09 2.89 2.89 0 0 1 .3 2.8 2.83 2.83 0 0 1 -.66 1 2.87 2.87 0 0 1 -1 .66 3.13 3.13 0 0 1 -1.16.21z"/><path d="m95.05 90.64v6.93a2.38 2.38 0 0 1 -.72 1.7 2.48 2.48 0 0 1 -3.45 0 2.42 2.42 0 0 1 -.72-1.7v-6.93a6.94 6.94 0 0 1 -3.62-3 6.79 6.79 0 0 1 1.6-8.67 7.08 7.08 0 0 1 8.94 0 6.9 6.9 0 0 1 2.39 4 6.77 6.77 0 0 1 -.8 4.62 6.94 6.94 0 0 1 -3.62 3.05z" fill-rule="evenodd"/><path d="m225.79 67.81a16.47 16.47 0 0 1 -9.34 2.66 17.74 17.74 0 0 1 -9.23-2.33 15.55 15.55 0 0 1 -6.07-6.61 22.49 22.49 0 0 1 -2.15-10.13 22.61 22.61 0 0 1 2.17-10.1 15.6 15.6 0 0 1 6.07-6.65 19.45 19.45 0 0 1 18.2-.14 13.38 13.38 0 0 1 5.56 6.49l-4.51 2.1a10 10 0 0 0 -3.68-4.91 10.59 10.59 0 0 0 -6.1-1.62 12.69 12.69 0 0 0 -6.78 1.76 11.7 11.7 0 0 0 -4.45 5.1 18.53 18.53 0 0 0 -1.6 8q0 7 3.39 10.92a11.42 11.42 0 0 0 4.17 3 11.71 11.71 0 0 0 5.1.93 11.37 11.37 0 0 0 6.6-1.91 10.32 10.32 0 0 0 4-5.61l4.56 1.68a14.87 14.87 0 0 1 -5.91 7.37z"/><path d="m253.37 54.54h-9v15.38h-4.55v-37h14.25a13.84 13.84 0 0 1 9.22 2.91 9.89 9.89 0 0 1 2.66 3.56 9.59 9.59 0 0 1 .82 4.35 10.05 10.05 0 0 1 -2.22 6.63 11.36 11.36 0 0 1 -6.1 3.7l10.65 15.88h-5.41zm-9-4.19h9.63q8 0 8-6.63t-8-6.62h-9.58z"/><path d="m298.26 59.65h-17l-4 10.27h-4.78l14.65-37h5.41l14.59 37h-4.84zm-1.65-4.19-5.07-13.11-1.77-5.16h-.11l-1.65 5-5.13 13.3z"/><path d="m340.32 40.18-3.94 3.14a12.18 12.18 0 0 0 -4.07-5.24 11.68 11.68 0 0 0 -6.46-1.54 11.53 11.53 0 0 0 -6.85 1.76 5.4 5.4 0 0 0 -1.82 2 5.25 5.25 0 0 0 -.65 2.57 4.46 4.46 0 0 0 1 3 7.69 7.69 0 0 0 3.19 2.09 33.67 33.67 0 0 0 6.28 1.46q7.46 1.23 10.57 3.71a8.36 8.36 0 0 1 2.41 3 8.17 8.17 0 0 1 .76 3.77 9 9 0 0 1 -1.84 5.49 11.65 11.65 0 0 1 -5.1 3.7 20.73 20.73 0 0 1 -7.64 1.31 20.06 20.06 0 0 1 -9.71-2.18 15.36 15.36 0 0 1 -6.12-5.84l3.93-3.15a11.55 11.55 0 0 0 4.53 5.13 14.2 14.2 0 0 0 7.46 1.83 13.69 13.69 0 0 0 7.07-1.6 5.13 5.13 0 0 0 2-1.86 5 5 0 0 0 .7-2.59 4.4 4.4 0 0 0 -.6-2.26 4.54 4.54 0 0 0 -1.68-1.66q-2.28-1.47-8.09-2.47-7.51-1.29-10.65-3.7a8.15 8.15 0 0 1 -2.4-3 7.9 7.9 0 0 1 -.73-3.74 9.56 9.56 0 0 1 1.71-5.49 11.72 11.72 0 0 1 4.9-4 17.43 17.43 0 0 1 7.4-1.51q10.01.01 14.44 7.87z"/><path d="m379.17 32.91v37h-4.56v-16.66h-20.39v16.67h-4.56v-37h4.56v16.13h20.39v-16.14z"/><path d="m417.38 37.1h-13.14v32.83h-4.56v-32.83h-13.1v-4.19h30.8z"/><path d="m452 65.71v4.2h-27.25v-37h26.38v4.19h-21.82v12h17v4.19h-17v12.42z"/><path d="m487.13 40.18-3.93 3.14a12.08 12.08 0 0 0 -4.06-5.24 11.72 11.72 0 0 0 -6.48-1.54 11.46 11.46 0 0 0 -6.8 1.76 5.43 5.43 0 0 0 -1.83 2 5.25 5.25 0 0 0 -.65 2.57 4.51 4.51 0 0 0 1 3 7.79 7.79 0 0 0 3.2 2.09 33 33 0 0 0 6.28 1.5c5 .82 8.52 2.1 10.58 3.71a8.35 8.35 0 0 1 2.37 3.06 8.08 8.08 0 0 1 .72 3.78 9 9 0 0 1 -1.8 5.49 11.54 11.54 0 0 1 -5.11 3.7 20.64 20.64 0 0 1 -7.62 1.23 20.08 20.08 0 0 1 -9.72-2.18 15.42 15.42 0 0 1 -6.12-5.84l3.84-3.15a11.55 11.55 0 0 0 4.53 5.13 14.23 14.23 0 0 0 7.47 1.83 13.63 13.63 0 0 0 7.06-1.6 5 5 0 0 0 2-1.86 4.92 4.92 0 0 0 .7-2.59 4.39 4.39 0 0 0 -.59-2.26 4.54 4.54 0 0 0 -1.68-1.66c-1.51-1-4.26-1.8-8.08-2.47q-7.53-1.29-10.66-3.7a8 8 0 0 1 -2.39-3 7.91 7.91 0 0 1 -.74-3.74 9.56 9.56 0 0 1 1.71-5.49 11.69 11.69 0 0 1 4.91-4 17.41 17.41 0 0 1 7.4-1.49q10.04-.04 14.49 7.82z"/><path d="m521.21 37.1h-13.11v32.83h-4.55v-32.83h-13.1v-4.19h30.76z"/><path d="m226 85.88a20 20 0 0 1 7 5.12l-5.52 6.29a12.14 12.14 0 0 0 -4.42-4.12 12.9 12.9 0 0 0 -6.06-1.33 8.61 8.61 0 0 0 -4.56 1 3.07 3.07 0 0 0 -1.59 2.7 2.55 2.55 0 0 0 .5 1.38 2.68 2.68 0 0 0 1.17.9 22.41 22.41 0 0 0 5.69 1.54q7.82 1.39 11.14 4.1a9.24 9.24 0 0 1 2.57 3.4 9.05 9.05 0 0 1 .76 4.17 9.42 9.42 0 0 1 -2 6.11 12.91 12.91 0 0 1 -5.67 3.94 23.68 23.68 0 0 1 -8.18 1.34 29.38 29.38 0 0 1 -10.36-1.54 18 18 0 0 1 -6.9-4.74l5.06-6.72a12.64 12.64 0 0 0 5 4.27 16.65 16.65 0 0 0 6.73 1.23 9.84 9.84 0 0 0 4.69-.87 2.78 2.78 0 0 0 1.17-1 2.74 2.74 0 0 0 .41-1.5c0-.86-.57-1.56-1.69-2.1a24.56 24.56 0 0 0 -5.61-1.55 42 42 0 0 1 -8-2.26 11.6 11.6 0 0 1 -4.89-3.57 9 9 0 0 1 -1.74-5.72 10.68 10.68 0 0 1 1.91-6.23 12.46 12.46 0 0 1 5.58-4.29 22.21 22.21 0 0 1 8.69-1.54 23.77 23.77 0 0 1 9.12 1.59z"/><path d="m270 114.44v7.46h-30v-37h29.28v7.46h-19.49v7.52h15.49v7h-15.49v7.58z"/><path d="m304.13 119.68a19.11 19.11 0 0 1 -10.53 2.78 20.2 20.2 0 0 1 -9.86-2.28 15.27 15.27 0 0 1 -6.39-6.56 22 22 0 0 1 -2.23-10.24 22 22 0 0 1 2.23-10.21 15.22 15.22 0 0 1 6.39-6.59 22.48 22.48 0 0 1 20.23.27 12.44 12.44 0 0 1 3.61 3.28 12 12 0 0 1 2 4.39l-8.58 3.41a8.36 8.36 0 0 0 -2.45-4.71 7.19 7.19 0 0 0 -4.71-1.34 7.68 7.68 0 0 0 -6.39 2.9c-1.52 2-2.28 4.83-2.28 8.56s.74 6.6 2.2 8.56a7.31 7.31 0 0 0 2.81 2.27 7.49 7.49 0 0 0 3.58.68 6.79 6.79 0 0 0 7.46-6.07l8.9 2.47a14.15 14.15 0 0 1 -5.99 8.43z"/><path d="m349.6 106.8q0 7.8-4.26 11.74t-12.59 3.92c-5.54 0-9.74-1.31-12.56-3.92s-4.26-6.54-4.26-11.74v-21.93h9.86v22.13q0 4 1.71 6a6.58 6.58 0 0 0 5.24 2q7.08 0 7.07-7.92v-22.21h9.74z"/><path d="m373.93 108.42h-5.87v13.58h-9.58v-37.13h17.9q6.84 0 10.51 3t3.67 8.76a11.41 11.41 0 0 1 -1.87 6.73 11 11 0 0 1 -5.47 4l9.58 14.53h-10.8zm-5.87-6.85h6.72a7.47 7.47 0 0 0 4.56-1.11 4.37 4.37 0 0 0 1.14-1.64 4.83 4.83 0 0 0 -1.14-5.49 7.41 7.41 0 0 0 -4.56-1.17h-6.67z"/><path d="m408.63 121.9h-9.8v-37h9.8z"/><path d="m449.71 92.33h-12.26v29.57h-9.8v-29.57h-12.29v-7.46h34.35z"/><path d="m474.89 108.42v13.58h-9.8v-13.58l-13.33-23.55h10.14l5.33 10.13 2.79 6.17 2.85-6.17 5.33-10.15h10z"/><path d="m178.81 29.53h6.41v134.57h-6.41z" fill="#ffdc1a"/><path d="m208.78 138.34c3.71 0 8.09 1.84 8.09 6.8s-4.35 6.86-8.09 6.86h-3.38v8.9h-3.4v-22.56zm-3.38 10.66h2.6c3 0 5.18-1 5.18-3.73 0-2.42-1.86-3.87-4.57-3.87h-3.21z"/><path d="m235.05 152.75a8.38 8.38 0 1 1 -8.38-8.55 8.31 8.31 0 0 1 8.38 8.55zm-8.38-5.55c-2.9 0-5 2.48-5 5.55s2.09 5.54 5 5.54 5-2.51 5-5.54-2.09-5.55-5-5.55z"/><path d="m253.27 156.61h.1l3.13-12h3.41l-4.74 16.31h-3.51l-3.29-11.92h-.06l-3.31 11.9h-3.65l-4.51-16.31h3.58l2.9 12h.07l3.41-12h3.35z"/><path d="m269.94 158.48a5 5 0 0 0 4.74-2.58l2.32 1.52a7.75 7.75 0 0 1 -7.22 3.87c-5.12 0-8.12-3.71-8.12-8.51s3.55-8.58 8.12-8.58a7.36 7.36 0 0 1 7.58 7.58 11.05 11.05 0 0 1 -.16 1.8h-12.2c.24 2.68 2 4.9 4.94 4.9zm-.09-11.5c-2.52 0-4.06 1.77-4.64 4.06h8.7a4.12 4.12 0 0 0 -4.06-4.04z"/><path d="m284.49 147.14c1-1.71 2.41-2.94 4.12-2.94a6.94 6.94 0 0 1 1.87.23l-.68 3.35a3.1 3.1 0 0 0 -1.54-.35 4.27 4.27 0 0 0 -3.71 2.51v11h-3.32v-16.35h3.16z"/><path d="m299.86 158.48a5 5 0 0 0 4.74-2.58l2.32 1.52a7.74 7.74 0 0 1 -7.22 3.87c-5.12 0-8.12-3.71-8.12-8.51s3.55-8.58 8.12-8.58a7.36 7.36 0 0 1 7.58 7.58 11.05 11.05 0 0 1 -.16 1.8h-12.19c.23 2.68 2.07 4.9 4.93 4.9zm-.09-11.5c-2.52 0-4.06 1.77-4.64 4.06h8.7a4.12 4.12 0 0 0 -4.06-4.04z"/><path d="m326.3 160.9h-3.16l-.1-2.16a6.32 6.32 0 0 1 -5.19 2.55c-4.6 0-8-3.81-8-8.58a8.24 8.24 0 0 1 8.06-8.51 7.17 7.17 0 0 1 5.06 2.13v-9.6h3.32zm-7.83-13.7c-3.55 0-5.22 2.9-5.22 5.58a5.21 5.21 0 0 0 5.15 5.51 5.09 5.09 0 0 0 4.58-2.9v-5.84a5.68 5.68 0 0 0 -4.51-2.35z"/><path d="m342.84 136.73v10a6.39 6.39 0 0 1 5.16-2.53c4.61 0 8 3.81 8 8.58 0 4.38-3.22 8.51-8 8.51a7.14 7.14 0 0 1 -5.16-2.23l-.07 1.84h-3.15v-24.17zm0 19.21a5.69 5.69 0 0 0 4.52 2.35c3.54 0 5.22-2.9 5.22-5.58a5.21 5.21 0 0 0 -5.16-5.51 5.1 5.1 0 0 0 -4.58 2.9z"/><path d="m361.1 144.59 4 11.73h.06l4.13-11.73h3.61l-9.18 23.69-2.94-1.16 2.58-6.83-5.93-15.7z"/><path d="m392.82 160.9h-2.93l-8.61-22.56h4l6.25 17.27 6.32-17.27h3.8z"/><path d="m409.49 158.48a5 5 0 0 0 4.74-2.58l2.32 1.52a7.76 7.76 0 0 1 -7.22 3.87c-5.13 0-8.12-3.71-8.12-8.51s3.54-8.58 8.12-8.58a7.35 7.35 0 0 1 7.57 7.58 10 10 0 0 1 -.16 1.8h-12.18c.22 2.68 2.03 4.9 4.93 4.9zm-.1-11.5c-2.51 0-4.06 1.77-4.64 4.06h8.7a4.12 4.12 0 0 0 -4.06-4.04z"/><path d="m424 147.14c1-1.71 2.42-2.94 4.13-2.94a7 7 0 0 1 1.87.23l-.68 3.35a3.11 3.11 0 0 0 -1.55-.35 4.25 4.25 0 0 0 -3.7 2.51v11h-3.32v-16.35h3.16z"/><path d="m442.18 160.9-.1-1.64a5.81 5.81 0 0 1 -4.77 2c-3 0-5.8-1.55-5.8-5 0-4.09 3.68-5.38 7.22-5.38a16.46 16.46 0 0 1 3.19.35v-.48c0-2.39-1.09-3.77-3.7-3.77a11.15 11.15 0 0 0 -5.13 1.45l-.93-2.68a16.37 16.37 0 0 1 6.57-1.55c4.68 0 6.51 2.58 6.51 6.81v9.89zm-.26-7.35a13.86 13.86 0 0 0 -2.77-.29c-1.9 0-4.38.52-4.38 2.84 0 1.84 1.42 2.54 3 2.54a6.4 6.4 0 0 0 4.12-1.8z"/><path d="m462.49 159.58a8.44 8.44 0 0 1 -13.49-6.83 8.4 8.4 0 0 1 8.47-8.55 8.2 8.2 0 0 1 4.9 1.55l-1.61 2.61a5.51 5.51 0 0 0 -3.29-1.16 5.32 5.32 0 0 0 -5.09 5.55 5.24 5.24 0 0 0 5.09 5.54 6 6 0 0 0 3.39-1.16z"/><path d="m481.32 152.75a8.38 8.38 0 1 1 -8.38-8.55 8.32 8.32 0 0 1 8.38 8.55zm-8.38-5.55c-2.9 0-5 2.48-5 5.55s2.09 5.54 5 5.54 5-2.51 5-5.54-2.1-5.55-5-5.55z"/><path d="m500.35 160.9h-3.16l-.1-2.16a6.34 6.34 0 0 1 -5.19 2.55c-4.61 0-8-3.81-8-8.58a8.24 8.24 0 0 1 8.1-8.51 7.18 7.18 0 0 1 5.06 2.13v-9.6h3.32zm-7.83-13.7c-3.55 0-5.23 2.9-5.23 5.58a5.21 5.21 0 0 0 5.16 5.51 5.1 5.1 0 0 0 4.58-2.9v-5.84a5.69 5.69 0 0 0 -4.51-2.35z"/><path d="m512.5 158.48a5 5 0 0 0 4.74-2.58l2.32 1.52a7.74 7.74 0 0 1 -7.22 3.87c-5.12 0-8.12-3.71-8.12-8.51s3.55-8.58 8.12-8.58a7.36 7.36 0 0 1 7.58 7.58 11.05 11.05 0 0 1 -.16 1.8h-12.19c.23 2.68 2.03 4.9 4.93 4.9zm-.09-11.5c-2.52 0-4.06 1.77-4.64 4.06h8.7a4.13 4.13 0 0 0 -4.06-4.04z"/></svg>