<svg clip-rule="evenodd" fill-rule="evenodd" stroke-linejoin="round" stroke-miterlimit="1.41421" viewBox="0 0 345 60" xmlns="http://www.w3.org/2000/svg"><path d="m35.632 2.144c3.193-.716 6.488-.999 9.754-.759 4.938.35 9.819 1.956 13.87 4.827 2.098 1.477 3.963 3.282 5.521 5.321-1.574-.935-3.279-1.633-5.022-2.185-3.681-1.148-7.633-1.497-11.44-.83-.689.127-1.429.205-2.007.637-.222.16-.407.427-.342.713.092.407.46.659.768.904 3.995 2.842 7.071 6.959 8.634 11.609 1.501 4.413 1.638 9.278.385 13.769-.498 1.799-1.214 3.538-2.126 5.167-.211.408-.488.779-.663 1.206-.784 1.404-1.749 2.702-2.797 3.92-2.922 3.377-6.593 6.071-10.613 7.999-3.202 1.594-6.609 2.794-10.125 3.469-4.424.849-9.037.858-13.426-.204-2.454-.591-4.831-1.513-7.025-2.763-2.949-1.676-5.555-3.951-7.611-6.649 2.02 1.186 4.233 2.024 6.5 2.598 3.252.813 6.674.992 9.982.416.655-.126 1.352-.199 1.917-.585.254-.163.483-.45.411-.769-.093-.407-.461-.657-.768-.901-3.993-2.845-7.069-6.961-8.633-11.609-.963-2.835-1.367-5.856-1.197-8.844.206-3.85 1.403-7.636 3.419-10.919.313-.675.724-1.298 1.137-1.914 3.061-4.43 7.389-7.909 12.213-10.259 2.944-1.489 6.062-2.645 9.284-3.365m-3.586 18.111c-2.798.279-5.422 1.86-6.995 4.187-1.301 1.888-1.883 4.249-1.627 6.527.223 2.12 1.178 4.151 2.662 5.68 1.485 1.548 3.499 2.579 5.625 2.872 2.219.319 4.544-.158 6.449-1.344 1.794-1.102 3.211-2.804 3.967-4.769.826-2.125.866-4.542.112-6.693-.693-2.007-2.072-3.766-3.849-4.928-1.852-1.227-4.137-1.77-6.344-1.532z" fill="none" stroke="#45aaff" stroke-width="2"/><g fill="#222" fill-rule="nonzero"><path d="m87.297 44.938c-2.704-1.488-4.824-3.536-6.36-6.144s-2.304-5.544-2.304-8.808.768-6.2 2.304-8.808 3.664-4.656 6.384-6.144 5.76-2.232 9.12-2.232c2.624 0 5.024.44 7.2 1.32s4.032 2.184 5.568 3.912l-3.12 3.024c-2.528-2.656-5.68-3.984-9.456-3.984-2.496 0-4.752.56-6.768 1.68s-3.592 2.664-4.728 4.632-1.704 4.168-1.704 6.6.568 4.632 1.704 6.6 2.712 3.512 4.728 4.632 4.272 1.68 6.768 1.68c3.744 0 6.896-1.344 9.456-4.032l3.12 3.024c-1.536 1.728-3.4 3.04-5.592 3.936s-4.6 1.344-7.224 1.344c-3.36 0-6.392-.744-9.096-2.232z"/><path d="m137.913 21.346-12.336 27.984c-1.088 2.592-2.36 4.416-3.816 5.472s-3.208 1.584-5.256 1.584c-1.248 0-2.456-.2-3.624-.6s-2.136-.984-2.904-1.752l1.968-3.456c1.312 1.248 2.832 1.872 4.56 1.872 1.12 0 2.056-.296 2.808-.888s1.432-1.608 2.04-3.048l.816-1.776-11.232-25.392h4.8l8.88 20.352 8.784-20.352z"/><path d="m145.665 45.394c-2.032-1.12-3.624-2.664-4.776-4.632s-1.728-4.2-1.728-6.696.576-4.728 1.728-6.696 2.744-3.504 4.776-4.608 4.344-1.656 6.936-1.656c2.304 0 4.36.464 6.168 1.392s3.208 2.272 4.2 4.032l-3.504 2.256c-.8-1.216-1.792-2.128-2.976-2.736s-2.496-.912-3.936-.912c-1.664 0-3.16.368-4.488 1.104s-2.368 1.784-3.12 3.144-1.128 2.92-1.128 4.68c0 1.792.376 3.368 1.128 4.728s1.792 2.408 3.12 3.144 2.824 1.104 4.488 1.104c1.44 0 2.752-.304 3.936-.912s2.176-1.52 2.976-2.736l3.504 2.208c-.992 1.76-2.392 3.112-4.2 4.056s-3.864 1.416-6.168 1.416c-2.592 0-4.904-.56-6.936-1.68z"/><path d="m168.585 11.17h4.608v35.616h-4.608z"/><path d="m186.057 45.394c-2.016-1.12-3.592-2.664-4.728-4.632s-1.704-4.2-1.704-6.696.568-4.728 1.704-6.696 2.712-3.504 4.728-4.608 4.288-1.656 6.816-1.656 4.792.552 6.792 1.656 3.568 2.64 4.704 4.608 1.704 4.2 1.704 6.696-.568 4.728-1.704 6.696-2.704 3.512-4.704 4.632-4.264 1.68-6.792 1.68-4.8-.56-6.816-1.68zm11.208-3.48c1.296-.752 2.312-1.808 3.048-3.168s1.104-2.92 1.104-4.68-.368-3.32-1.104-4.68-1.752-2.408-3.048-3.144-2.76-1.104-4.392-1.104-3.096.368-4.392 1.104-2.32 1.784-3.072 3.144-1.128 2.92-1.128 4.68.376 3.32 1.128 4.68 1.776 2.416 3.072 3.168 2.76 1.128 4.392 1.128 3.096-.376 4.392-1.128z"/><path d="m233.745 23.914c1.904 1.872 2.856 4.616 2.856 8.232v14.64h-4.608v-14.112c0-2.464-.592-4.32-1.776-5.568s-2.88-1.872-5.088-1.872c-2.496 0-4.464.728-5.904 2.184s-2.16 3.544-2.16 6.264v13.104h-4.608v-25.44h4.416v3.84c.928-1.312 2.184-2.32 3.768-3.024s3.384-1.056 5.4-1.056c3.232 0 5.8.936 7.704 2.808z"/><path d="m268.185 35.602h-20.64c.288 2.24 1.272 4.04 2.952 5.4s3.768 2.04 6.264 2.04c3.04 0 5.488-1.024 7.344-3.072l2.544 2.976c-1.152 1.344-2.584 2.368-4.296 3.072s-3.624 1.056-5.736 1.056c-2.688 0-5.072-.552-7.152-1.656s-3.688-2.648-4.824-4.632-1.704-4.224-1.704-6.72c0-2.464.552-4.688 1.656-6.672s2.624-3.528 4.56-4.632 4.12-1.656 6.552-1.656 4.6.552 6.504 1.656 3.392 2.648 4.464 4.632 1.608 4.256 1.608 6.816c0 .352-.032.816-.096 1.392zm-18.024-8.592c-1.488 1.344-2.36 3.104-2.616 5.28h16.32c-.256-2.144-1.128-3.896-2.616-5.256s-3.336-2.04-5.544-2.04-4.056.672-5.544 2.016z"/><path d="m275.337 13.186h14.16c3.552 0 6.704.704 9.456 2.112s4.888 3.384 6.408 5.928 2.28 5.464 2.28 8.76-.76 6.216-2.28 8.76-3.656 4.52-6.408 5.928-5.904 2.112-9.456 2.112h-14.16zm13.872 29.424c2.72 0 5.112-.528 7.176-1.584s3.656-2.536 4.776-4.44 1.68-4.104 1.68-6.6-.56-4.696-1.68-6.6-2.712-3.384-4.776-4.44-4.456-1.584-7.176-1.584h-9.072v25.248z"/><path d="m334.905 46.786-10.08-13.872-9.936 13.872h-5.52l12.624-17.232-11.856-16.368h5.472l9.408 12.912 9.312-12.912h5.232l-11.856 16.224 12.72 17.376z"/></g></svg>