<svg version="1.1" id="Layer_1" xmlns="http://www.w3.org/2000/svg" xmlns:xlink="http://www.w3.org/1999/xlink" x="0px" y="0px"
	 viewBox="0 0 216 29.9" style="enable-background:new 0 0 216 29.9;" xml:space="preserve">
<style type="text/css">
	.st0{fill:#5445FF;}
	.st1{fill:#32C4EC;}
</style>
<g>
	<g>
		<polygon class="st0" points="26.9,13.6 26.9,17 26.9,24.8 42.2,24.8 42.2,21.4 30.3,21.4 30.3,17 37.5,17 37.5,13.6 30.3,13.6 
			30.3,9.5 42.2,9.5 42.2,6.1 26.9,6.1 		"/>
		<polygon class="st0" points="64.4,13.6 64.4,17 64.4,24.8 79.7,24.8 79.7,21.4 67.7,21.4 67.7,17 74.9,17 74.9,13.6 67.7,13.6 
			67.7,9.5 79.7,9.5 79.7,6.1 64.4,6.1 		"/>
		<polygon class="st0" points="83.1,24.8 98.4,24.8 98.4,21.4 86.5,21.4 86.5,9.5 98.4,9.5 98.4,6.1 83.1,6.1 		"/>
		<polygon class="st0" points="45.6,13.6 45.6,17 45.6,24.8 49,24.8 49,21.4 49,17.9 49,17 56.2,17 56.2,13.6 49,13.6 49,9.5 
			61,9.5 61,6.1 45.6,6.1 		"/>
		<polygon class="st0" points="120.6,6.1 112.9,6.1 109.5,6.1 101.8,6.1 101.8,9.5 109.5,9.5 109.5,24.8 112.9,24.8 112.9,9.5 
			120.6,9.5 		"/>
		<polygon class="st0" points="4.7,9.5 9,9.5 9,9.5 20.1,9.5 20.1,21.4 8.1,21.4 8.1,14.7 4.7,14.7 4.7,24.8 23.5,24.8 23.5,6.1 
			4.7,6.1 		"/>
	</g>
	<g>
		<path class="st1" d="M148.3,24.8h18.8V6.1h-18.8V24.8z M151.7,9.5h12v12h-12V9.5z"/>
		<path class="st1" d="M192.5,6.1v18.7h18.8V6.1H192.5z M207.8,21.4h-12v-12h12V21.4z"/>
		<polygon class="st1" points="126.1,9.5 130.4,9.5 141.5,9.5 141.5,21.4 129.5,21.4 129.5,14.7 126.1,14.7 126.1,24.8 144.9,24.8 
			144.9,6.1 126.1,6.1 		"/>
		<polygon class="st1" points="185.8,9.5 185.8,16.2 185.8,21.4 173.8,21.4 173.8,16.2 170.4,16.2 170.4,24.8 189.2,24.8 189.2,6.1 
			185.8,6.1 		"/>
	</g>
	<rect x="11.2" y="12.8" class="st1" width="5.2" height="5.2"/>
</g>
</svg>
