<svg viewBox="0 0 610.86 130.91" xmlns="http://www.w3.org/2000/svg"><g fill="#ff00cf"><path d="m38.4 29.51c0 4.9-3.99 8.89-8.89 8.89h-16.09c-4.9 0-8.89-3.99-8.89-8.89v-16.08c0-4.9 3.99-8.89 8.89-8.89h16.09c4.9 0 8.89 3.99 8.89 8.89zm-8.14-29.51h-17.59c-6.99 0-12.67 5.68-12.67 12.67v17.59c0 7 5.68 12.67 12.67 12.67h17.59c7 0 12.67-5.67 12.67-12.67v-17.59c0-7-5.67-12.67-12.67-12.67"/><path d="m78.37 74.63c0 4.9-3.99 8.89-8.89 8.89h-16.09c-4.9 0-8.89-3.99-8.89-8.89v-16.08c0-4.9 3.99-8.89 8.89-8.89h16.09c4.9 0 8.89 3.99 8.89 8.89zm-8.14-29.51h-17.59c-7 0-12.67 5.68-12.67 12.67v17.59c0 7 5.68 12.67 12.67 12.67h17.59c7 0 12.67-5.67 12.67-12.67v-17.59c0-7-5.67-12.67-12.67-12.67"/><path d="m38.4 117.49c0 4.9-3.99 8.89-8.89 8.89h-16.09c-4.9 0-8.89-3.99-8.89-8.89v-16.08c0-4.9 3.99-8.89 8.89-8.89h16.09c4.9 0 8.89 3.99 8.89 8.89zm-8.14-29.51h-17.59c-7 0-12.67 5.68-12.67 12.67v17.59c0 7 5.68 12.67 12.67 12.67h17.59c7 0 12.67-5.67 12.67-12.67v-17.59c0-7-5.67-12.67-12.67-12.67"/></g><g fill="#07098d"><path d="m104.46 66.99c0 9.12 5.92 15.04 13.92 15.04 5.76 0 9.81-3.09 11.52-6.93v6.51h3.73v-39.46h-3.73v16.64c-1.87-3.84-6.24-6.72-11.46-6.72-8.05 0-13.97 5.81-13.97 14.93zm25.43.05c0 7.25-4.85 11.73-10.82 11.73s-10.82-4.43-10.82-11.78 4.69-11.68 10.82-11.68 10.82 4.48 10.82 11.73z"/><path d="m155.91 55.26c5.39 0 10.29 3.41 10.13 10.18h-20.48c.43-6.77 5.07-10.18 10.34-10.18zm13.49 17.12h-3.95c-1.07 3.89-4.43 6.51-9.38 6.51-5.44 0-10.18-3.57-10.5-10.4h24.15c.11-1.01.11-1.76.11-2.93 0-7.41-5.23-13.49-13.76-13.49s-14.29 5.71-14.29 14.98 6.03 14.98 14.29 14.98c7.31 0 12-4.16 13.33-9.65z"/><path d="m181.67 58.88v-6.4h-3.68v42.87h3.68v-20.16c1.71 3.63 5.76 6.83 11.57 6.83 7.94 0 13.86-5.92 13.86-15.04s-5.92-14.93-13.86-14.93c-5.81 0-9.86 3.15-11.57 6.83zm21.65 8.1c0 7.36-4.69 11.78-10.82 11.78s-10.82-4.48-10.82-11.73 4.91-11.73 10.82-11.73 10.82 4.27 10.82 11.68z"/><path d="m227.74 55.26c5.39 0 10.29 3.41 10.13 10.18h-20.48c.43-6.77 5.07-10.18 10.34-10.18zm13.49 17.12h-3.95c-1.07 3.89-4.43 6.51-9.38 6.51-5.44 0-10.18-3.57-10.5-10.4h24.15c.11-1.01.11-1.76.11-2.93 0-7.41-5.23-13.49-13.76-13.49s-14.29 5.71-14.29 14.98 6.03 14.98 14.29 14.98c7.31 0 12-4.16 13.33-9.65z"/><path d="m271.62 81.6h3.68v-17.06c0-8.53-5.23-12.58-11.84-12.58-4.32 0-8.05 1.87-9.92 5.49v-4.96h-3.73v29.11h3.73v-15.89c0-7.09 3.79-10.5 9.22-10.5s8.85 3.31 8.85 9.76v16.64z"/><path d="m283.19 66.99c0 9.12 5.92 15.04 13.92 15.04 5.76 0 9.81-3.09 11.52-6.93v6.51h3.73v-39.46h-3.73v16.64c-1.87-3.84-6.24-6.72-11.46-6.72-8.05 0-13.97 5.81-13.97 14.93zm25.43.05c0 7.25-4.85 11.73-10.82 11.73s-10.82-4.43-10.82-11.78 4.69-11.68 10.82-11.68 10.82 4.48 10.82 11.73z"/><path d="m334.65 55.26c5.39 0 10.29 3.41 10.13 10.18h-20.48c.43-6.77 5.07-10.18 10.34-10.18zm13.49 17.12h-3.95c-1.07 3.89-4.43 6.51-9.38 6.51-5.44 0-10.18-3.57-10.5-10.4h24.15c.11-1.01.11-1.76.11-2.93 0-7.41-5.23-13.49-13.76-13.49s-14.29 5.71-14.29 14.98 6.03 14.98 14.29 14.98c7.31 0 12-4.16 13.33-9.65z"/><path d="m378.53 81.6h3.68v-17.06c0-8.53-5.23-12.58-11.84-12.58-4.32 0-8.05 1.87-9.92 5.49v-4.96h-3.73v29.11h3.73v-15.89c0-7.09 3.79-10.5 9.22-10.5s8.85 3.31 8.85 9.76v16.64z"/><path d="m390.1 67.04c0 9.22 5.92 14.98 14.13 14.98 7.31 0 12.05-4.11 13.38-9.92h-4c-1.01 4.27-4.48 6.77-9.38 6.77-5.71 0-10.34-3.95-10.34-11.84s4.64-11.78 10.34-11.78c4.91 0 8.42 2.56 9.38 6.72h4c-1.33-6.03-6.08-9.92-13.38-9.92-8.21 0-14.13 5.76-14.13 14.98z"/><path d="m436.38 77.33-9.92-24.85h-4.11l11.94 28.95-5.65 13.86h3.89l17.28-42.82h-3.84l-9.6 24.85z"/></g><g fill="#ff00cf"><path d="m472.85 73.44c0 5.97 3.25 8.16 8.48 8.16h4.8v-5.07h-3.73c-2.56 0-3.41-.91-3.41-3.09v-16.26h7.15v-4.96h-7.15v-7.31h-6.13v7.31h-3.47v4.96h3.47v16.26z"/><path d="m499.15 66.13c0-6.24 2.77-8.1 7.25-8.1h1.55v-6.29c-4.16 0-7.09 1.81-8.8 4.75v-4.27h-6.08v29.38h6.08v-15.46z"/><path d="m512.85 66.77c0 9.06 6.13 15.3 13.76 15.3 4.91 0 8.42-2.35 10.29-4.85v4.37h6.13v-29.38h-6.13v4.27c-1.81-2.4-5.23-4.75-10.18-4.75-7.73 0-13.86 5.97-13.86 15.04zm24.05.11c0 6.35-4.32 9.92-8.9 9.92s-8.9-3.68-8.9-10.02 4.37-9.76 8.9-9.76 8.9 3.57 8.9 9.86z"/><path d="m550.33 66.88c0 9.22 5.97 15.2 14.4 15.2 7.2 0 11.89-4 13.54-9.76h-6.56c-1.12 3.04-3.36 4.64-6.99 4.64-4.91 0-8.16-3.63-8.16-10.08s3.25-10.02 8.16-10.02c3.63 0 5.97 1.81 6.99 4.64h6.56c-1.65-6.19-6.35-9.76-13.54-9.76-8.42 0-14.4 5.97-14.4 15.14z"/><path d="m585.69 81.6h6.08v-12.64l10.88 12.64h8.21l-13.54-14.66 13.54-14.72h-8.42l-10.66 12.85v-22.93h-6.08v39.46z"/></g></svg>