<svg height="131" preserveAspectRatio="xMidYMid" viewBox="0 0 512 131" width="512" xmlns="http://www.w3.org/2000/svg"><path d="m140.597857 25.715353 3.892298 2.8181208c6.769212 5.4601092 10.66151 11.6247486 11.507662 18.6700506 7.276904-1.40906 16.584572-.3522647 20.6461 2.4658559l3.723067 2.2897234-.67692 1.4090601c-1.184613 2.6419882-1.523074 3.3465188-1.692304 3.698784-6.599983 13.2099412-19.630719 13.3860741-25.72301 13.2099412-15.39996 38.57303-48.230645 59.885068-92.5689915 59.885068-20.4768702 0-36.0460607-6.516904-46.5383413-19.37458-13.87688716-16.9087253-13.87688716-38.9252951-12.69227483-45.9705969l.33846067-1.4090605h122.35352996c6.430752 0 11.338432-1.7613253 13.707657-3.1703859-2.538455-3.8749164-3.384607-8.27823-3.553837-10.7440858-.507691-7.0453023 1.184612-14.4428696 4.569218-19.7268462zm106.014524 8.1784479c1.365218 0 2.520981.4576512 3.467325 1.3729674s1.419508 2.0710795 1.419508 3.4673245v43.5626269c0 7.2604743-2.54423 13.4038601-7.632768 18.4303423-5.150592 5.088537-11.293978 7.632768-18.430342 7.632768-7.198419 0-13.341804-2.544231-18.430342-7.632768-5.088537-5.0885378-7.632768-11.2319236-7.632768-18.4303423 0-7.1984188 2.544231-13.3418046 7.632768-18.430342 5.088538-5.0885375 11.231923-7.6327681 18.430342-7.6327681 6.174506 0 11.61978 1.9081729 16.335985 5.724576v-23.2240928c0-1.396245.457652-2.5520083 1.372968-3.4673245s2.071079-1.3729674 3.467324-1.3729674zm36.490216 22.3398087c7.136364 0 13.279749 2.5442306 18.430342 7.6327681 2.544269 2.5442687 4.444685 5.3522301 5.701305 8.4239694 1.256621 3.0717388 1.900435 6.4071632 1.931463 10.0063726 0 7.2604743-2.544231 13.4038601-7.632768 18.4303423-5.150593 5.088537-11.293978 7.632768-18.430342 7.632768-7.198419 0-13.341805-2.544231-18.430342-7.632768-5.088538-5.0885378-7.632768-11.2319236-7.632768-18.4303423 0-7.1984188 2.54423-13.3418046 7.632768-18.430342 5.088537-5.0885375 11.231923-7.6327681 18.430342-7.6327681zm57.57341 0c6.546838 0 12.209302 2.1098496 16.987563 6.3296127 1.116996.992885 1.675486 2.2184593 1.675486 3.6767599 0 1.396245-.457651 2.5597652-1.372968 3.4905952-.915316.93083-2.071079 1.3962379-3.467324 1.3962379-1.179052 0-2.233977-.3723263-3.164807-1.1169901-1.58241-1.33419-3.242366-2.342574-4.979915-3.0251827-1.737549-.6826088-3.630209-1.0239081-5.678035-1.0239081-2.265019 0-4.390383.4266242-6.376154 1.2798851-1.98577.8532609-3.723294 2.0167811-5.212622 3.4905952s-2.660604 3.2035806-3.513865 5.1893512c-.853261 1.9857707-1.279885 4.1111338-1.279885 6.3761538 0 2.2650199.426624 4.3903831 1.279885 6.3761537.853261 1.9857707 2.024537 3.7155372 3.513865 5.1893513 1.489328 1.473814 3.226852 2.6373342 5.212622 3.4905952 1.985771.8532609 4.111135 1.2798851 6.376154 1.2798851 2.047826 0 3.940486-.3335426 5.678035-1.0006373 1.737549-.6670953 3.381991-1.6677225 4.933374-3.001912.868775-.6515812 1.892673-.99288 3.071724-1.0239081 1.396245 0 2.552008.4576513 3.467324 1.3729677.915316.915316 1.372968 2.0710795 1.372968 3.4673245 0 1.3652174-.511949 2.5597642-1.535862 3.5836782-4.809289 4.219762-10.471753 6.329612-16.987563 6.329612-7.198419 0-13.341804-2.544231-18.430342-7.632768-5.088537-5.0885378-7.632768-11.2319236-7.632768-18.4303423 0-7.1984188 2.544231-13.3418046 7.632768-18.430342 5.088538-5.0885375 11.231923-7.6327681 18.430342-7.6327681zm29.043613-22.3398087c1.33419 0 2.474439.4731649 3.420783 1.4195087s1.419509 2.1021071 1.419509 3.4673244v36.302189l27.831678-18.1045531c.775692-.4964426 1.644454-.7446603 2.606311-.7446603.682609 0 1.318667.1241086 1.908192.3723304.589526.2482212 1.101475.5972768 1.535862 1.0471783.434387.449901.783444.9696068 1.047179 1.5591324.263735.5895257.395601 1.2100698.395601 1.861651 0 1.7375489-.620545 3.0251782-1.861651 3.8629251l-19.500792 12.6592249 20.012746 22.5259743c.899802.992885 1.349697 2.125378 1.349697 3.397512 0 .651581-.131866 1.272125-.395601 1.861651-.263735.589525-.612792 1.109231-1.047179 1.559132s-.946336.798957-1.535862 1.047179c-.589525.248221-1.225583.37233-1.908192.37233-1.303162 0-2.389114-.418868-3.257889-1.256615l-21.502065-24.1549176-5.678035 3.7233014v16.8013982c0 1.33419-.473165 2.482196-1.419509 3.444053-.946344.961858-2.086593 1.44278-3.420783 1.44278-1.365217 0-2.52098-.480922-3.467324-1.44278-.946344-.961857-1.419509-2.109863-1.419509-3.444053v-64.692363c0-1.3652173.473165-2.5209806 1.419509-3.4673244s2.102107-1.4195087 3.467324-1.4195087zm71.489249 22.3398087c7.136364 0 13.27975 2.5442306 18.430342 7.6327681 2.544269 2.5132407 4.452442 5.3134458 5.724576 8.4006986 1.272135 3.0872528 1.908192 6.430434 1.908192 10.0296434 0 1.396245-.473164 2.5520084-1.419508 3.4673244s-2.102107 1.3729677-3.467325 1.3729677h-36.860684c.52747 1.7065213 1.303151 3.2656382 2.327064 4.6773972 1.023912 1.411759 2.226217 2.6218198 3.606948 3.6302188 1.380731 1.0083991 2.901064 1.7918362 4.561044 2.3503343s3.389747.8377429 5.189351.8377429c2.047827 0 3.924972-.3102724 5.631494-.9308255 1.706522-.6205537 3.288909-1.5513696 4.747209-2.792476.93083-.7756918 2.001269-1.1790457 3.211348-1.2100733 1.396245 0 2.552008.4576513 3.467324 1.3729677.915316.915316 1.372967 2.0710795 1.372967 3.4673245 0 1.3652169-.465408 2.5287376-1.396238 3.4905956-4.809288 4.219762-10.487266 6.329612-17.034104 6.329612-7.198418 0-13.341804-2.544231-18.430342-7.632768-5.088537-5.0885378-7.632768-11.2319236-7.632768-18.4303423 0-7.1984188 2.544231-13.3418046 7.632768-18.430342 5.088538-5.0885375 11.231924-7.6327681 18.430342-7.6327681zm57.48033 0c1.365213 0 2.831252.0930816 4.39815.2792478 1.566893.1861657 3.009659.5197083 4.328338 1.0006373 1.318674.4809285 2.412381 1.1402564 3.281156 1.9780038.868775.8377469 1.303157 1.923699 1.303157 3.2578885 0 .6826087-.131868 1.3186664-.395599 1.908192-.263735.5895256-.612795 1.1092314-1.047182 1.5591324-.434388.4499015-.946333.7989576-1.53586 1.0471789-.589528.2482212-1.225585.3723298-1.908192.3723298-.589527 0-1.272124-.1706496-2.047815-.511954-1.954746-.7756913-4.080109-1.1635317-6.376153-1.1635317-2.265022 0-4.390384.4266242-6.376153 1.2798851-1.985773.8532609-3.71554 2.0167811-5.189354 3.4905952s-2.637334 3.2035806-3.490595 5.1893512c-.853261 1.9857707-1.279885 4.1111338-1.279885 6.3761538v21.2228183c0 1.33419-.473165 2.474439-1.419509 3.420783s-2.086593 1.419509-3.420783 1.419509c-1.365217 0-2.52098-.473165-3.467324-1.419509s-1.419509-2.086593-1.419509-3.420783v-42.4456363c0-1.3341899.473165-2.4744394 1.419509-3.4207834s2.102107-1.4195087 3.467324-1.4195087c1.33419 0 2.474439.4731647 3.420783 1.4195087s1.419509 2.0865935 1.419509 3.4207834v.930825c2.327075-1.86166 4.855792-3.288911 7.586227-4.2817966 2.730437-.9928855 5.646992-1.4893205 8.74976-1.4893205zm-273.253095 9.7271248c-2.296047 0-4.436924.4343809-6.422695 1.3031559-1.98577.8687744-3.70778 2.0400513-5.166081 3.5138654-1.4583 1.4738141-2.614063 3.2035806-3.467324 5.1893518-.853261 1.9857706-1.279885 4.0956203-1.279885 6.3296122s.426624 4.3438415 1.279885 6.3296127c.853261 1.9857706 2.009024 3.7155371 3.467324 5.1893512 1.458301 1.4738141 3.180311 2.6450911 5.166081 3.5138655 1.985771.8687749 4.126648 1.3031559 6.422695 1.3031559 2.26502 0 4.390383-.434381 6.376154-1.3031559 1.985771-.8687744 3.715537-2.0478082 5.189351-3.5371363s2.637334-3.2190946 3.490595-5.1893512c.853261-1.9702571 1.279885-4.07235 1.279885-6.3063419s-.426624-4.3360848-1.279885-6.306342c-.853261-1.9702566-2.016781-3.7000231-3.490595-5.1893512s-3.20358-2.6683618-5.189351-3.5371362c-1.985771-.868775-4.111134-1.3031559-6.376154-1.3031559zm57.666493 0c-2.296048 0-4.436924.4343809-6.422695 1.3031559-1.985771.8687744-3.70778 2.0400513-5.166081 3.5138654-1.4583 1.4738141-2.614063 3.2035806-3.467324 5.1893518-.853261 1.9857706-1.279885 4.0956203-1.279885 6.3296122s.426624 4.3438415 1.279885 6.3296127c.853261 1.9857706 2.009024 3.7155371 3.467324 5.1893512 1.458301 1.4738141 3.18031 2.6450911 5.166081 3.5138655 1.985771.8687749 4.126647 1.3031559 6.422695 1.3031559 2.26502 0 4.390383-.434381 6.376154-1.3031559 1.98577-.8687744 3.715537-2.0478082 5.189351-3.5371363s2.637334-3.2190946 3.490595-5.1893512c.853261-1.9702571 1.279885-4.07235 1.279885-6.3063419s-.426624-4.3360848-1.279885-6.306342c-.853261-1.9702566-2.016781-3.7000231-3.490595-5.1893512s-3.203581-2.6683618-5.189351-3.5371362c-1.985771-.868775-4.111134-1.3031559-6.376154-1.3031559zm158.106272 0c-1.768577 0-3.490586.2792448-5.16608.8377429s-3.211341 1.3419351-4.607586 2.3503342-2.606306 2.2184598-3.630219 3.6302188c-1.023913 1.4117591-1.784079 2.9708759-2.280522 4.6773977h31.368815c-.527471-1.7065218-1.310908-3.2656386-2.350334-4.6773977-1.039427-1.411759-2.249488-2.6218197-3.630219-3.6302188s-2.901064-1.7918361-4.561044-2.3503342c-1.659981-.5584981-3.374234-.8377429-5.142811-.8377429zm-408.5799636-23.6889214v17.6132554h-18.6153365v-17.6132554zm21.9999433 0v17.6132554h-18.6153367v-17.6132554zm21.999943 0v17.6132554h-18.6153368v-17.6132554zm21.9999431 0v17.6132554h-18.6153368v-17.6132554zm21.9999432 0v17.6132554h-18.615337v-17.6132554zm-21.9999432-21.1359065v17.6132555h-18.6153368v-17.6132555zm-21.9999431 0v17.6132555h-18.6153368v-17.6132555zm-21.999943 0v17.6132555h-18.6153367v-17.6132555zm43.9998861-21.1359065v17.6132554h-18.6153368v-17.6132554z" fill="#2396ed"/></svg>