<svg fill="none" height="58" viewBox="0 0 203 58" width="203" xmlns="http://www.w3.org/2000/svg"><path d="m46.5572 21.1093-12.5405-7.2402c-.3138-.1812-.7006-.1812-1.0144 0l-12.5407 7.2402c-.3136.1812-.5073.516-.5073.8785v14.4803c0 .3623.1937.6973.5073.8789l12.5407 7.2401c.3138.1813.7006.1813 1.0144 0l12.5405-7.2401c.3138-.1813.5072-.5164.5072-.8789v-14.4803c-.0003-.3625-.1937-.6973-.5072-.8785z" fill="#8080f2"/><path d="m.904381 27.7046 14.983419-26.06688c.5443-.942497 1.5497-1.63772 2.638-1.63772h29.9673c1.0886 0 2.0942.695223 2.6385 1.63772l14.9834 26.00938c.5443.9428.5443 2.1325 0 3.0753l-14.9834 25.8532c-.5443.9425-1.5499 1.4244-2.6385 1.4244h-29.9671c-1.0883 0-2.0939-.4674-2.6379-1.4101l-14.98346-25.8955c-.544786-.9422-.544786-2.0473-.000259-2.9898zm12.407119 12.5347c0 .3832.2307.7377.5629.9296l19.0856 11.0114c.3319.1916.7478.1916 1.0797 0l19.1004-11.0114c.332-.1919.5642-.5461.5642-.9296v-22.0232c0-.3834-.2289-.7376-.5611-.9295l-19.0848-11.01147c-.332-.19186-.7473-.19186-1.0792 0l-19.1017 11.01147c-.3322.1919-.566.5461-.566.9295z" fill="#4b32c3"/><g fill="#101828"><path d="m86.6971 43.7102v-29.4203h18.7449v4.5811h-13.6594v7.7334h12.4824v4.5811h-12.4824v7.9435h13.8694v4.5812z"/><path d="m118.919 44.2986c-2.241 0-4.231-.3923-5.968-1.1768-1.709-.8126-3.054-1.9754-4.035-3.4884-.98-1.5131-1.471-3.3624-1.471-5.5479v-1.0927h5.002v1.0927c0 1.9334.588 3.3764 1.765 4.329 1.177.9527 2.746 1.429 4.707 1.429 1.99 0 3.489-.4063 4.497-1.2188 1.009-.8126 1.513-1.8633 1.513-3.1522 0-.8686-.238-1.5691-.714-2.1015-.476-.5603-1.177-1.0087-2.102-1.3449-.896-.3362-1.989-.6584-3.278-.9667l-1.261-.2521c-1.933-.4483-3.614-1.0087-5.043-1.6812-1.401-.7005-2.48-1.5971-3.236-2.6898-.757-1.0928-1.135-2.5218-1.135-4.287s.42-3.2783 1.261-4.5391c.84-1.2609 2.031-2.2276 3.572-2.9 1.541-.6725 3.348-1.0087 5.422-1.0087 2.073 0 3.923.3502 5.548 1.0507s2.9 1.7512 3.824 3.1522c.953 1.4009 1.429 3.1522 1.429 5.2536v1.387h-5.001v-1.387c0-1.2048-.238-2.1715-.715-2.9-.476-.7285-1.148-1.2609-2.017-1.5971s-1.891-.5043-3.068-.5043c-1.737 0-3.054.3362-3.951 1.0086-.896.6725-1.345 1.6252-1.345 2.858 0 .7846.196 1.457.589 2.0174.42.5324 1.022.9807 1.807 1.3449.812.3363 1.821.6305 3.026.8826l1.261.2942c2.017.4484 3.782 1.0228 5.296 1.7232 1.513.6725 2.689 1.5691 3.53 2.6899.869 1.1208 1.303 2.5778 1.303 4.371 0 1.7652-.462 3.3203-1.387 4.6652-.897 1.345-2.172 2.3957-3.825 3.1522-1.625.7565-3.558 1.1348-5.8 1.1348z"/><path d="m133.1 43.7102v-29.4203h5.085v24.8391h13.786v4.5812z"/><path d="m154.827 43.7102v-20.7623h4.834v20.7623zm2.396-23.4102c-.869 0-1.625-.2802-2.269-.8405-.617-.5885-.925-1.359-.925-2.3116 0-.9527.308-1.7092.925-2.2696.644-.5884 1.4-.8826 2.269-.8826.925 0 1.681.2942 2.27.8826.616.5604.924 1.3169.924 2.2696 0 .9526-.308 1.7231-.924 2.3116-.589.5603-1.345.8405-2.27.8405z"/><path d="m164.525 43.7102v-20.7623h4.75v2.9h.714c.364-.7846 1.023-1.5271 1.975-2.2276.953-.7005 2.396-1.0507 4.329-1.0507 1.598 0 3.012.3642 4.245 1.0927 1.233.7286 2.186 1.7372 2.858 3.0261.701 1.2889 1.051 2.816 1.051 4.5812v12.4406h-4.833v-12.0623c0-1.6812-.421-2.9281-1.261-3.7406-.813-.8406-1.976-1.2609-3.489-1.2609-1.709 0-3.054.5744-4.034 1.7232-.981 1.1208-1.471 2.7319-1.471 4.8333v10.5073z"/><path d="m196.449 43.7102c-1.345 0-2.424-.3923-3.236-1.1768-.785-.8126-1.177-1.9053-1.177-3.2783v-12.3145h-5.422v-3.9927h5.422v-6.6827h4.833v6.6827h5.968v3.9927h-5.968v11.516c0 .8405.393 1.2608 1.177 1.2608h4.161v3.9928z"/></g></svg>