<svg fill="none" height="168" viewBox="0 0 1130 168" width="1130" xmlns="http://www.w3.org/2000/svg"><path d="m0 0h1130v168h-1130z" fill="#fff"/><g clip-rule="evenodd" fill-rule="evenodd"><path d="m169.83 108.187h9.66v-35.2081h-9.66zm10.36-44.8674c0 1.5873-.49 2.8587-1.469 3.8152-.981.9565-2.335 1.4342-4.06 1.4342-1.68 0-3.023-.4777-4.025-1.4342-1.004-.9565-1.506-2.2279-1.506-3.8152 0-1.5405.502-2.8109 1.506-3.8152 1.002-1.0023 2.345-1.5044 4.025-1.5044s3.02.4894 4.024 1.4693c1.003.9799 1.505 2.265 1.505 3.8503zm-31.631 45.5674c-6.533 0-11.468-1.995-14.804-5.984-3.337-3.9902-5.005-9.8577-5.005-17.6041 0-7.4665 1.726-13.1956 5.18-17.1844 3.453-3.9897 8.422-5.9845 14.909-5.9845 2.473 0 4.806.2798 6.999.8395 2.193.5596 4.271 1.4235 6.231 2.5905l-3.921 7.6986c-1.446-.7917-2.951-1.4098-4.514-1.8544-1.564-.4427-3.092-.665-4.585-.665-3.5 0-6.067 1.1788-7.7 3.5344-1.633 2.3576-2.449 6.0323-2.449 11.0253 0 5.1334.816 8.9242 2.449 11.3744 1.633 2.4492 4.2 3.6737 7.7 3.6737.84 0 1.645-.056 2.415-.174.77-.116 1.527-.291 2.274-.526v-13.8586h9.031v19.4586c-2.147 1.214-4.399 2.124-6.755 2.729-2.357.607-4.842.911-7.455.911zm61.561-35.9083h-10.15v-8.7496h-7.069l-1.751 8.7496-6.719.9809v6.9283h6.019v15.8896c0 3.9205 1.027 6.9195 3.08 8.9955 2.053 2.077 4.993 3.114 8.82 3.114 1.68 0 3.301-.199 4.865-.595 1.563-.396 3.068-.967 4.515-1.715l-2.52-7.4185c-.934.4192-1.844.7341-2.73.9435-.887.211-1.727.316-2.52.316-1.447 0-2.474-.316-3.08-.9456-.606-.6298-.91-1.6906-.91-3.1843v-15.4002h10.15zm24.82 35.9083c-6.533 0-11.468-1.995-14.804-5.984-3.336-3.9901-5.005-9.8577-5.005-17.6041 0-7.4665 1.726-13.1956 5.18-17.1843 3.453-3.9897 8.423-5.9846 14.909-5.9846 2.474 0 4.806.2798 7 .8395 2.192.5596 4.27 1.4235 6.23 2.5906l-3.921 7.6986c-1.445-.7917-2.951-1.4099-4.514-1.8545-1.564-.4426-3.091-.6649-4.584-.6649-3.5 0-6.068 1.1787-7.701 3.5343-1.633 2.3576-2.449 6.0324-2.449 11.0253 0 5.1334.816 8.9242 2.449 11.3744 1.633 2.4492 4.201 3.6737 7.701 3.6737.839 0 1.645-.056 2.414-.174.77-.116 1.528-.291 2.275-.526v-13.8586h9.03v19.4586c-2.147 1.214-4.399 2.124-6.755 2.729-2.356.607-4.842.911-7.455.911zm21.223-35.9087v24.1498c0 3.7329.933 6.6259 2.8 8.6799 1.865 2.054 4.479 3.08 7.839 3.08 1.913 0 3.71-.398 5.39-1.191s3.43-2.053 5.249-3.779v4.27h9.1v-35.2097h-9.589v24.4296c-1.308.9799-2.532 1.7034-3.675 2.1704-1.145.4657-2.229.6987-3.256.6987-1.446 0-2.519-.3955-3.219-1.1891-.7-.7937-1.05-2.0056-1.05-3.6407v-22.4689zm45.868 24.8496c0 1.2138.372 2.1469 1.12 2.7991.746.654 1.819.981 3.219.981 1.26 0 2.439-.221 3.536-.666 1.096-.443 2.25-1.13 3.464-2.0641v-4.7599h-6.929c-1.4 0-2.486.3266-3.255.9799-.77.6542-1.155 1.5639-1.155 2.73zm20.718-12.5298v22.8889h-9.029v-3.849c-1.447 1.586-2.986 2.741-4.62 3.464-1.634.724-3.476 1.085-5.529 1.085-3.174 0-5.752-.967-7.735-2.905-1.984-1.936-2.975-4.444-2.975-7.5243 0-3.2194 1.12-5.7739 3.361-7.6645 2.239-1.8895 5.342-2.8353 9.309-2.8353h7.839v-1.7491c0-1.9607-.454-3.3833-1.365-4.2705-.91-.8853-2.392-1.3299-4.445-1.3299-1.494 0-3.104.2223-4.829.6649-1.727.4446-3.687 1.133-5.88 2.0651l-2.87-7.2794c2.52-1.2129 5.063-2.1459 7.629-2.8002 2.567-.6522 5.016-.9798 7.35-.9798 4.666 0 8.131 1.0734 10.395 3.2204 2.262 2.1469 3.394 5.4132 3.394 9.7987zm17.338 22.8889v-23.7986c1.68-1.0257 3.44-1.7726 5.284-2.2396 1.843-.4661 3.931-.7001 6.265-.7001v-9.1698c-2.334 0-4.445.4446-6.335 1.3299-1.89.8872-3.792 2.2873-5.704 4.2003v-4.8302h-9.17v35.2081zm24.875-17.4992c0 3.548.501 6.0898 1.504 7.6303 1.004 1.5395 2.719 2.3089 5.145 2.3089.98 0 1.949-.163 2.906-.49.955-.3252 1.878-.839 2.764-1.5391v-17.4291c-.886-.3734-1.75-.6532-2.59-.8404-.839-.1853-1.679-.2798-2.519-.2798-2.66 0-4.528.817-5.6 2.4501-1.074 1.6332-1.61 4.3632-1.61 8.1891zm21.978-29.9589v47.4581h-9.099v-3.78c-1.307 1.54-2.719 2.672-4.235 3.396-1.516.722-3.184 1.084-5.004 1.084-4.294 0-7.584-1.551-9.869-4.655-2.288-3.102-3.43-7.6172-3.43-13.5442 0-5.8793 1.33-10.4179 3.989-13.614 2.66-3.195 6.37-4.795 11.13-4.795 1.213 0 2.391.117 3.534.351s2.252.6064 3.325 1.1193v-13.0202zm17.59 47.4581h-9.659v-35.2081h9.659zm-.769-41.0522c.98-.9565 1.47-2.2279 1.47-3.8152 0-1.5853-.502-2.8704-1.505-3.8503-1.004-.9799-2.345-1.4693-4.025-1.4693s-3.022.5021-4.024 1.5044c-1.005 1.0043-1.506 2.2747-1.506 3.8152 0 1.5873.501 2.8587 1.506 3.8152 1.002.9565 2.344 1.4342 4.024 1.4342 1.726 0 3.079-.4777 4.06-1.4342zm16.091 30.6931c0 1.2138.373 2.1469 1.121 2.7991.745.654 1.819.981 3.219.981 1.26 0 2.439-.221 3.535-.666 1.096-.443 2.251-1.13 3.465-2.0641v-4.7599h-6.93c-1.4 0-2.485.3266-3.254.9799-.771.6542-1.156 1.5639-1.156 2.73zm20.719-12.5298v22.8889h-9.029v-3.849c-1.447 1.586-2.987 2.741-4.62 3.464-1.634.724-3.477 1.085-5.529 1.085-3.175 0-5.753-.967-7.736-2.905-1.983-1.936-2.975-4.444-2.975-7.5243 0-3.2194 1.121-5.7739 3.361-7.6645 2.24-1.8895 5.342-2.8353 9.31-2.8353h7.839v-1.7491c0-1.9607-.455-3.3833-1.365-4.2705-.91-.8853-2.392-1.3299-4.445-1.3299-1.494 0-3.104.2223-4.83.6649-1.726.4446-3.686 1.133-5.879 2.0651l-2.87-7.2794c2.52-1.2129 5.063-2.1459 7.629-2.8002 2.566-.6522 5.015-.9798 7.35-.9798 4.666 0 8.13 1.0734 10.395 3.2204 2.262 2.1469 3.394 5.4132 3.394 9.7987zm17.337 22.8899v-24.429c1.306-.9331 2.59-1.6448 3.85-2.1352 1.26-.4895 2.426-.7352 3.5-.7352 1.446 0 2.508.3968 3.185 1.1895.676.7946 1.015 2.0075 1.015 3.6407v22.4692h9.589v-24.1492c0-3.78-.922-6.6846-2.765-8.7145-1.844-2.03-4.444-3.0449-7.805-3.0449-2.006 0-3.884.4095-5.634 1.2246-1.749.817-3.559 2.0894-5.424 3.8151v-4.3407h-9.17v35.2096z" fill="#020d26"/><path d="m99.4729 34.5235c-3.2369-2.8338-8.0929-2.8002-11.3206.0114-2.5948 2.2606-5.9189 3.5053-9.3618 3.5053-3.4421 0-6.7663-1.2449-9.36-3.5053-3.2302-2.8139-8.0871-2.8431-11.3234-.0096l-.0163.0143-.016.0144c-9.8081 8.8207-10.9249 19.1716-10.6283 25.2498l-3.9889 2.962c-3.577 2.6107-5.7069 6.8048-5.7069 11.2361v5.34c0 17.1491 6.6997 34.1081 17.8522 44.2101 8.473 7.673 15.9254 11.912 23.1862 11.924h.0115c7.2541-.012 14.7067-4.251 23.1784-11.924 11.153-10.102 17.852-27.0611 17.852-44.2101v-5.34c0-4.4271-2.126-8.6229-5.69-11.2237l-3.999-2.9696c.281-6.2866-1.056-16.6909-10.6438-25.2627l-.0126-.0112z" fill="#fff"/><path d="m76.9214 55.9619c-.4345-.4467-1.0125-1.041-1.8607-1.8179-5.7346-5.2539-13.314-6.7067-19.3861-2.5874 1.2594-4.4067 3.7624-8.4126 7.2832-11.4948.4579-.4008 1.161-.3911 1.6364.0228 3.9488 3.4276 8.8644 5.3163 14.1965 5.3163s10.2608-1.8887 14.1964-5.3163c.4746-.4139 1.1786-.4236 1.6365-.0228 3.5207 3.0822 6.0234 7.0881 7.2834 11.4948-6.0723-4.1193-13.6517-2.6665-19.3864 2.5874-.8481.7769-1.4262 1.3712-1.8606 1.8179-.8585.8826-1.1562 1.1887-1.8693 1.1887s-1.0109-.3061-1.8693-1.1887zm-17.3782 22.7883c4.4524 4.18 10.1141 6.7419 16.2372 7.3791 2.5654 4.3688 3.9777 9.8679 3.9777 15.5587 0 8.775-3.6394 17.162-10.0042 23.183-2.7482-1.637-5.7592-3.939-9.0655-6.934-5.4895-4.972-9.7705-12.028-12.4045-20.0423z" fill="#475b87"/><path d="m47.9456 68.8685 3.8117-2.8299c.9896 3.4205 2.6137 6.6214 4.8012 9.4408l-9.8319 16.7162c-.914-4.1588-1.4001-8.4882-1.4001-12.8535v-5.3401c0-2.0504.9483-3.9171 2.6191-5.1335zm57.9364-2.7874 3.77 2.8001c1.654 1.2041 2.603 3.0699 2.603 5.1203v5.3401c0 11.0034-3.076 21.7784-8.359 30.1484 1.571-4.458 2.464-9.145 2.464-13.6019 0-7.031-2.006-13.8009-5.806-19.6569 2.516-2.9987 4.344-6.6952 5.328-10.1501z" fill="#e9edf5"/><path d="m103.896 109.49c5.283-8.371 8.36-19.1446 8.36-30.1481v-5.34c0-2.0504-.95-3.9163-2.604-5.1203l-3.77-2.8001c-.984 3.4548-2.812 7.1514-5.328 10.1501 3.8 5.8559 5.806 12.6259 5.806 19.656 0 4.4564-.894 9.1434-2.464 13.6024zm-25.1018 18.41c3.1024-.005 6.6891-1.388 10.8426-4.181 7.1488-5.874 12.4922-17.719 12.4922-27.8314 0-5.8823-1.592-11.5563-4.6131-16.5325-4.658 4.0955-10.55 6.4913-16.8963 6.8754 2.184 4.5772 3.3696 9.9524 3.3696 15.4575 0 9.421-3.7027 18.444-10.2257 25.168 1.8026.691 3.4777 1.042 5.0307 1.044zm-18.1066-9.963c3.3072 2.994 6.3174 5.297 9.0665 6.934 6.3648-6.021 10.0033-14.408 10.0033-23.183 0-5.6915-1.4114-11.1906-3.9769-15.5586-6.1231-.6371-11.7857-3.1991-16.2372-7.379l-11.2592 19.1436c2.6331 8.015 6.915 15.071 12.4035 20.043zm-15.3618-43.9351v5.34c0 4.3662.486 8.6956 1.4001 12.8535l9.8319-16.7161c-2.1866-2.8195-3.8108-6.0203-4.8004-9.4409l-3.8117 2.83c-1.6716 1.2163-2.6199 3.0831-2.6199 5.1335zm37.174-13.7576c-1.3316 1.6193-2.3738 2.8868-3.71 2.8868-1.336 0-2.3776-1.267-3.7086-2.8859-.5489-.6677-1.1471-1.3952-1.8353-2.1184-4.2406-4.5192-9.6615-5.6503-13.6032-4.0824-3.367 1.3394-4.9833 4.4313-4.5359 8.373.8332 4.9094 3.1007 9.3732 6.6012 12.8571 4.4735 4.4532 10.4779 6.9053 17.0818 6.9053 6.6047 0 12.6092-2.4521 17.0827-6.9053 3.4996-3.4839 5.7675-7.9477 6.6015-12.8571.446-3.9417-1.169-7.0336-4.5371-8.373-3.94-1.5679-9.3609-.4368-13.6023 4.0824-.688.7229-1.286 1.4501-1.8348 2.1175zm10.4864-20.1599c-3.9347 3.4276-8.8643 5.3163-14.1964 5.3163s-10.2468-1.8887-14.1956-5.3163c-.4754-.414-1.1785-.4236-1.6364-.0229-3.5208 3.0823-6.0238 7.0882-7.2833 11.4948 6.0722-4.1193 13.6507-2.6656 19.3862 2.5874.847.7762 1.4246 1.37 1.8589 1.8165.8595.8837 1.1576 1.1902 1.8711 1.1902.7131 0 1.0108-.3062 1.8693-1.1888.4344-.4466 1.0125-1.0409 1.8606-1.8179 5.7347-5.253 13.3132-6.7067 19.3864-2.5874-1.26-4.4066-3.7635-8.4125-7.2834-11.4948-.4579-.4007-1.1619-.3911-1.6374.0229zm13.7838 21.2687 5.444 4.0428c2.728 1.9854 4.366 5.2074 4.366 8.606v5.34c0 16.4068-6.43 32.4241-16.7834 41.8011-8.337 7.551-15.0111 11.073-21.0024 11.083-5.9983-.01-12.6725-3.532-21.0104-11.083-10.3522-9.377-16.7838-25.3943-16.7838-41.8011v-5.34c0-3.3986 1.6391-6.6206 4.3829-8.6183l5.4385-4.0384c-.5282-5.1062-.3858-15.5508 9.4259-24.3747 1.9986-1.7498 5.0289-1.7436 7.0477.015 3.1859 2.7763 7.2683 4.3047 11.4948 4.3047 4.2274 0 8.3097-1.5284 11.4965-4.3047 2.0179-1.7578 5.0474-1.7657 7.0451-.0167 9.5376 8.5268 9.9936 19.0285 9.4386 24.3843zm-44.9878 2.4148c0-2.3484 1.4871-4.259 3.3151-4.259 1.8281 0 3.3143 1.9106 3.3143 4.259 0 2.3492-1.4862 4.259-3.3143 4.259-1.828 0-3.3151-1.9098-3.3151-4.259zm16.9985 2.8018c1.5723 0 2.7016 1.1347 2.8115 2.823.0167.2513.0246.5089.0246.7655 0 2.6893-.5414 4.8821-1.8105 7.3324l-.0483.0941c-.1837.3638-.4614.9122-.9773.9122-.5135 0-.7911-.5459-.9756-.9089l-.0017-.0033-.0475-.0941c-1.27-2.4503-1.8105-4.6431-1.8105-7.3324 0-.2566.0079-.5142.0246-.7655.109-1.6883 1.2393-2.823 2.8107-2.823zm17.9719-3.4664c-.4368-1.3895-1.7199-2.4609-3.1938-2.6648-2.0583-.2847-4.15.9501-5.5975 3.3011-.4351.704-.2373 1.3007.0931 1.6233.2259.2214.5274.3427.8692.3506l.0083.0007c.0031.0001.0062.0002.0092.0002h.0045c.4048 0 .7798-.2664 1.0556-.4622l.0026-.0018.1248-.087c1.4923-1.0107 2.7491-1.0837 4.0771-.2391.7347.4676 1.494.5133 2.031.1213.5555-.4069.7585-1.1698.5159-1.9423z" fill="#020d26"/></g><path d="m504.736 130.296h21v-5.88h-13.944v-63.588h13.944v-5.88h-21z" fill="#1b2d55"/><path d="m546.896 96.236c8.384 0 13.056-3.904 13.056-10.752 0-1.984-.448-3.648-1.472-4.992l5.824-1.408-2.112-6.848-9.152 3.456c-1.728-.64-3.776-1.024-6.144-1.024-8.384 0-13.12 3.904-13.12 10.688 0 3.776 1.408 6.72 4.096 8.576-3.264 1.536-4.736 3.648-4.736 6.4 0 2.304 1.216 4.224 3.2 5.504-3.456 1.408-4.864 3.584-4.864 6.208 0 4.544 4.48 8.576 14.208 8.576 10.432 0 16.832-5.312 16.832-11.904 0-4.992-3.52-8.512-10.624-8.512h-8.448c-1.536 0-2.304-.64-2.304-1.6 0-1.024.64-1.792 2.88-2.56.896.128 1.856.192 2.88.192zm0-6.016c-3.392 0-4.864-1.664-4.864-4.864 0-3.072 1.472-4.608 4.864-4.608s4.864 1.536 4.864 4.736c0 3.136-1.472 4.736-4.864 4.736zm-7.232 20.48c0-1.28.512-2.368 1.92-3.2.576.064 1.28.128 1.92.128h7.68c2.176 0 3.008 1.088 3.008 2.496 0 2.304-2.752 4.288-8.128 4.288-4.224 0-6.4-1.408-6.4-3.712zm33.92-39.424c3.328 0 5.056-2.048 5.056-4.8 0-2.624-1.728-4.864-5.056-4.864-3.264 0-5.056 2.24-5.056 4.864 0 2.752 1.792 4.8 5.056 4.8zm4.416 4.032h-8.832v32.192h8.832zm29.587 0h-9.28v-8h-6.464l-1.6 8-6.144.896v6.336h5.504v14.528c0 7.424 4.096 11.072 10.88 11.072 3.072 0 5.952-.704 8.576-2.112l-2.304-6.784c-1.728.768-3.328 1.152-4.8 1.152-2.497 0-3.648-.96-3.648-3.776v-14.08h9.28zm19.996 20.928c8.385 0 13.057-3.904 13.057-10.752 0-1.984-.448-3.648-1.472-4.992l5.824-1.408-2.112-6.848-9.152 3.456c-1.728-.64-3.776-1.024-6.145-1.024-8.383 0-13.119 3.904-13.119 10.688 0 3.776 1.408 6.72 4.096 8.576-3.264 1.536-4.736 3.648-4.736 6.4 0 2.304 1.216 4.224 3.2 5.504-3.456 1.408-4.864 3.584-4.864 6.208 0 4.544 4.48 8.576 14.208 8.576 10.432 0 16.832-5.312 16.832-11.904 0-4.992-3.52-8.512-10.624-8.512h-8.448c-1.536 0-2.304-.64-2.304-1.6 0-1.024.64-1.792 2.88-2.56.896.128 1.856.192 2.879.192zm0-6.016c-3.391 0-4.863-1.664-4.863-4.864 0-3.072 1.472-4.608 4.863-4.608 3.393 0 4.865 1.536 4.865 4.736 0 3.136-1.472 4.736-4.865 4.736zm-7.231 20.48c0-1.28.512-2.368 1.92-3.2.576.064 1.28.128 1.92.128h7.68c2.176 0 3.008 1.088 3.008 2.496 0 2.304-2.752 4.288-8.128 4.288-4.224 0-6.4-1.408-6.4-3.712zm29.311-35.392v22.08c0 6.976 3.648 10.752 9.728 10.752 3.136 0 6.016-1.024 9.728-4.544v3.904h8.32v-32.192h-8.768v22.336c-2.624 1.92-4.672 2.624-6.336 2.624-2.56 0-3.904-1.28-3.904-4.416v-20.544zm62.801 32.192v-20.928c0-8.384-4.48-11.904-12.608-11.904-3.968 0-8.832 1.088-13.696 3.456l2.624 6.656c4.16-1.792 7.168-2.496 9.792-2.496 3.712 0 5.312 1.472 5.312 5.12v1.6h-7.168c-7.744 0-11.584 4.16-11.584 9.6 0 5.76 4.096 9.536 9.792 9.536 3.584 0 6.528-1.152 9.28-4.16v3.52zm-14.976-6.016c-2.496 0-3.968-1.152-3.968-3.456 0-1.984 1.216-3.392 4.032-3.392h6.336v4.352c-2.368 1.856-4.288 2.496-6.4 2.496zm32.449 6.016v-21.76c3.264-1.984 6.592-2.688 10.56-2.688v-8.384c-3.584 0-6.976 1.024-11.008 5.056v-4.416h-8.384v32.192zm43.871 0v-43.392h-8.832v11.904c-1.984-.896-4.032-1.344-6.272-1.344-7.488 0-13.824 4.672-13.824 16.832 0 12.224 5.376 16.64 12.16 16.64 3.136 0 5.888-1.152 8.448-4.096v3.456zm-14.016-6.912c-4.16 0-6.08-2.176-6.08-9.088 0-7.424 2.048-9.728 6.592-9.728 1.472 0 3.008.32 4.672 1.024v15.936c-1.792 1.344-3.52 1.856-5.184 1.856zm27.479-29.312c3.328 0 5.056-2.048 5.056-4.8 0-2.624-1.728-4.864-5.056-4.864-3.264 0-5.056 2.24-5.056 4.864 0 2.752 1.792 4.8 5.056 4.8zm4.416 4.032h-8.832v32.192h8.832zm35.027 32.192v-20.928c0-8.384-4.48-11.904-12.608-11.904-3.968 0-8.832 1.088-13.696 3.456l2.624 6.656c4.16-1.792 7.168-2.496 9.792-2.496 3.712 0 5.312 1.472 5.312 5.12v1.6h-7.168c-7.744 0-11.584 4.16-11.584 9.6 0 5.76 4.096 9.536 9.792 9.536 3.584 0 6.528-1.152 9.28-4.16v3.52zm-14.976-6.016c-2.496 0-3.968-1.152-3.968-3.456 0-1.984 1.216-3.392 4.032-3.392h6.336v4.352c-2.368 1.856-4.288 2.496-6.4 2.496zm32.449 6.016v-22.336c2.688-1.92 4.992-2.624 6.72-2.624 2.56 0 3.84 1.344 3.84 4.416v20.544h8.768v-22.08c0-6.976-3.584-10.752-9.664-10.752-3.2 0-6.272 1.024-10.112 4.608v-3.968h-8.384v32.192zm46.472-13.696v-7.36h-18.56v7.36zm19.127 14.336c7.872 0 12.16-4.096 12.16-10.24 0-10.112-14.976-9.664-14.976-14.016 0-1.344.896-2.176 3.2-2.176s5.184.832 8.256 2.496l3.328-6.656c-3.456-1.856-7.232-2.88-11.392-2.88-7.552 0-11.904 4.224-11.904 9.856 0 10.752 14.912 9.6 14.912 14.208 0 1.664-1.152 2.432-3.52 2.432-2.56 0-6.08-.96-9.6-3.136l-3.201 6.592c3.649 2.176 8.577 3.52 12.737 3.52zm47.292-.64v-22.08c0-6.976-3.584-10.752-9.664-10.752-3.072 0-6.081.96-9.664 4.16v-14.72h-8.832v43.392h8.832v-22.336c2.688-1.92 4.992-2.624 6.72-2.624 2.56 0 3.84 1.344 3.84 4.416v20.544zm13.256-36.224c3.328 0 5.056-2.048 5.056-4.8 0-2.624-1.728-4.864-5.056-4.864-3.264 0-5.056 2.24-5.056 4.864 0 2.752 1.792 4.8 5.056 4.8zm4.416 4.032h-8.832v32.192h8.832zm35.15 29.888-2.56-6.336c-3.07 1.472-5.63 2.048-8.379 2.048-4.736 0-7.488-1.856-7.936-6.912h16.955l2.37-2.816c.13-.512.26-1.344.26-2.24 0-9.024-5.31-14.272-13.633-14.272-8.96 0-14.976 6.208-14.976 16.96 0 11.456 5.632 16.512 16.32 16.512 4.539 0 8.449-1.088 11.579-2.944zm-12.987-23.744c3.647 0 5.307 2.112 5.377 6.592h-11.201c.512-4.928 2.624-6.592 5.824-6.592zm29.527-17.344h-8.83v43.392h8.83zm36.37 43.392v-43.392h-8.83v11.904c-1.99-.896-4.04-1.344-6.28-1.344-7.48 0-13.82 4.672-13.82 16.832 0 12.224 5.38 16.64 12.16 16.64 3.14 0 5.89-1.152 8.45-4.096v3.456zm-14.02-6.912c-4.16 0-6.08-2.176-6.08-9.088 0-7.424 2.05-9.728 6.59-9.728 1.48 0 3.01.32 4.68 1.024v15.936c-1.8 1.344-3.52 1.856-5.19 1.856z" fill="#08d7be"/><path d="m1072.2 60.828h13.94v63.588h-13.94v5.88h21v-75.348h-21z" fill="#1b2d55"/></svg>