<svg viewBox="0 0 100 19.41" xmlns="http://www.w3.org/2000/svg"><path d="m2.27.24c-.27-.16-.56-.24-.94-.24-.4 0-.72.08-.96.24s-.37.37-.37.64v17.62c0 .21.13.43.37.61.27.19.56.29.94.29.34 0 .66-.1.94-.29.27-.19.4-.4.4-.61v-17.62c.03-.27-.11-.48-.37-.64m2.22 9.25c-.16.16-.24.38-.19.7.03.32.16.61.43.88.24.27.53.45.86.53.32.08.56.03.72-.11l1.42-.88v7.89c0 .21.13.43.38.61.24.19.56.29.94.29s.7-.11.96-.29c.27-.19.4-.4.4-.61v-10.64c0-.27-.13-.45-.4-.62-.27-.16-.59-.24-.99-.24s-.7.08-.94.24l-3.58 2.25zm10.56 6.23c0 .53.16.96.45 1.23s.69.43 1.18.43c.64 0 1.26-.27 1.82-.8.59-.53.88-1.12.88-1.74v-.94h-.64c-.75 0-1.36.03-1.85.11-.48.08-.91.24-1.28.53-.37.27-.56.67-.56 1.18zm-2.67.32c0-1.36.51-2.3 1.52-2.83 1.02-.53 2.46-.8 4.39-.8h1.1v-.48c0-.78-.21-1.42-.62-1.98-.4-.56-1.04-.83-1.87-.83-.72 0-1.36.13-1.9.43-.53.27-.86.43-.91.43-.29 0-.51-.13-.7-.43-.19-.27-.27-.59-.27-.94 0-.43.4-.83 1.23-1.15.8-.32 1.68-.48 2.59-.48 1.74 0 3.02.48 3.85 1.42s1.26 2.11 1.26 3.53v6.36c0 .24-.13.45-.38.61-.24.19-.56.27-.91.27s-.61-.08-.85-.27-.35-.37-.35-.61v-.88c-1.12 1.31-2.41 1.98-3.8 1.98-.99 0-1.79-.29-2.41-.85-.67-.56-.99-1.39-.99-2.49zm11.95-1.68v-2.3c0-1.5.43-2.73 1.31-3.66.88-.94 2.16-1.39 3.9-1.39 1.1 0 2.01.19 2.75.56.75.37 1.12.8 1.12 1.28 0 .29-.11.59-.32.86-.21.29-.46.43-.75.43-.08 0-.37-.13-.91-.37-.51-.24-1.07-.38-1.71-.38-1.85 0-2.78.88-2.78 2.67v2.27c0 1.79.94 2.67 2.81 2.67.64 0 1.2-.13 1.74-.4.51-.27.83-.4.91-.4.35 0 .61.13.83.4.21.27.32.56.32.85 0 .48-.37.91-1.15 1.31s-1.71.61-2.83.61c-1.74 0-3.05-.45-3.93-1.39-.86-.88-1.31-2.11-1.31-3.64m11.18 3.96v-17.44c0-.27.11-.46.35-.62s.53-.24.93-.24c.38 0 .72.08.96.24.27.16.4.37.4.62v11.31l5.27-4.87c.16-.16.35-.24.56-.24.29 0 .56.13.86.4.29.27.43.56.43.86 0 .21-.08.4-.21.56l-3.26 2.91 3.96 5.75c.11.16.16.29.16.45 0 .29-.16.61-.51.91-.35.29-.67.45-.99.45-.29 0-.51-.13-.69-.38l-3.72-5.51-1.84 1.69v3.18c0 .21-.13.43-.4.61-.27.19-.59.27-.96.27s-.67-.08-.91-.27c-.24-.21-.37-.43-.37-.64m14.04-6.12h4.2c.38 0 .62-.05.75-.16s.19-.29.19-.61c0-.67-.24-1.23-.72-1.71-.48-.45-1.1-.7-1.82-.7s-1.31.21-1.82.67c-.51.45-.75 1.02-.75 1.69v.83h-.03zm-2.65 2.17v-2.41c0-1.34.51-2.49 1.55-3.48 1.02-.96 2.27-1.47 3.72-1.47s2.57.45 3.56 1.31c.99.88 1.47 1.98 1.47 3.34 0 .51-.05.94-.19 1.26-.11.32-.29.53-.56.67-.24.13-.48.21-.69.24s-.51.05-.86.05h-5.32v.59c0 .86.29 1.52.91 2.03.61.51 1.39.75 2.38.75.69 0 1.34-.16 1.95-.48.62-.32.99-.48 1.12-.48.29 0 .53.13.72.4.21.27.29.53.29.8 0 .43-.4.83-1.2 1.28-.8.43-1.79.64-2.97.64-1.71 0-3.13-.45-4.23-1.39-1.12-.94-1.66-2.17-1.66-3.66zm12.41 3.96v-10.29c0-.27.13-.46.37-.62s.56-.24.94-.24c.32 0 .61.08.86.24.24.16.35.37.35.64v1.12c.29-.59.72-1.1 1.31-1.52.59-.43 1.2-.64 1.9-.64h.8c.27 0 .51.11.69.35.21.24.29.51.29.83s-.11.61-.29.86c-.21.24-.43.35-.69.35h-.8c-.8 0-1.52.35-2.14 1.04-.61.69-.91 1.58-.91 2.67v5.19c0 .21-.13.43-.4.61-.27.19-.59.27-.96.27s-.67-.08-.94-.27c-.27-.16-.37-.37-.37-.59m9.89-3.77c0 .86.29 1.63.91 2.3s1.36.99 2.22.99 1.63-.32 2.25-.99c.61-.67.94-1.42.94-2.3v-2.75c0-.83-.32-1.58-.94-2.22-.64-.67-1.36-.99-2.22-.99s-1.6.32-2.22.99c-.61.67-.91 1.39-.91 2.22v2.75zm-1.63 0v-2.75c0-1.28.48-2.41 1.42-3.34.94-.94 2.06-1.42 3.37-1.42s2.43.45 3.37 1.39c.96.94 1.44 2.06 1.44 3.34v2.75c0 1.26-.48 2.38-1.44 3.37-.96.96-2.09 1.47-3.37 1.47s-2.38-.48-3.34-1.47c-.96-.94-1.44-2.06-1.44-3.34zm11.58 3.98v-10.71c0-.19.08-.32.21-.45.16-.11.35-.16.59-.16.21 0 .37.05.53.19.16.13.21.27.21.43v1.18c.29-.56.72-1.02 1.31-1.39s1.28-.56 2.06-.56c1.2 0 2.27.45 3.15 1.39s1.34 2.06 1.34 3.34v6.77c0 .21-.08.37-.24.48s-.38.19-.59.19-.37-.05-.56-.19c-.16-.11-.24-.27-.24-.48v-6.74c0-.83-.32-1.58-.94-2.22-.61-.67-1.36-.99-2.22-.99-.8 0-1.5.29-2.09.88-.61.59-.91 1.36-.91 2.33v6.74c0 .16-.08.32-.27.45-.16.13-.35.21-.59.21s-.43-.08-.59-.21c-.11-.11-.19-.27-.19-.45m12.97-6.07h5.05c.51 0 .83-.05 1.02-.16.16-.11.24-.35.24-.7 0-.83-.29-1.58-.91-2.22-.59-.64-1.34-.96-2.25-.96s-1.63.29-2.25.91-.91 1.34-.91 2.17v.96zm-1.63 2.09v-2.83c0-1.28.48-2.38 1.42-3.29s2.09-1.39 3.4-1.39 2.38.45 3.32 1.31c.93.88 1.39 1.98 1.39 3.31 0 .48-.05.86-.16 1.15s-.29.48-.53.62c-.24.11-.46.19-.67.24-.21.03-.48.05-.83.05h-5.69v.94c0 .99.35 1.79 1.07 2.41.72.59 1.63.91 2.75.91.56 0 1.07-.08 1.5-.27.35-.13.68-.3.99-.51.24-.16.4-.27.54-.27.19 0 .35.08.48.27s.21.35.21.51c0 .35-.37.72-1.1 1.1-.72.37-1.63.56-2.7.56-1.6 0-2.89-.45-3.9-1.34-.96-.86-1.47-2.03-1.47-3.48z"/></svg>