<svg fill="none" height="23" viewBox="0 0 174 23" width="174" xmlns="http://www.w3.org/2000/svg" xmlns:xlink="http://www.w3.org/1999/xlink"><clipPath id="a"><path d="m.064941.5h173v22h-173z"/></clipPath><g clip-path="url(#a)" fill="#181b1c"><path d="m13.185 1.21411v8.43056h-8.64852v-8.43056h-4.4715386v21.23209h4.4715386v-8.8871h8.64852v8.8871h4.4715v-21.23209z"/><path d="m46.1954 18.499v-17.28489h-4.4762v17.34809c0 2.5191 1.3463 3.884 3.818 3.884h10.1697v-3.9472z"/><path d="m20.4634 11.6043c0-7.14528 4.5383-10.839652 9.714-10.839652 4.872 0 8.4414 3.027132 8.9684 7.599442h-4.345c-.2761-2.21006-2.1862-3.69437-4.6234-3.69437-3.1275 0-5.5348 2.39268-5.5348 6.93218 0 4.5396 2.4073 6.9018 5.5348 6.9018 2.4901 0 4.4002-1.4843 4.7339-3.6639h4.1517c-.3591 4.5419-3.9308 7.5994-8.8856 7.5994-5.2586 0-9.714-3.6943-9.714-10.8396z"/><path d="m57.2981 14.9309h5.0675c.1197 1.7887 1.3118 2.9429 3.1 2.9429 1.581 0 2.5936-.7585 2.5936-1.9408 0-3.5797-10.2272-.3348-10.2272-8.97843 0-3.61009 3.0424-6.187724 7.3045-6.187724 4.651 0 7.7233 2.699374 7.7809 6.854954h-5.0101c-.1196-1.3649-1.1322-2.24518-2.7731-2.24518-1.3118 0-2.1771.63679-2.1771 1.57795 0 3.97293 10.4067.30435 10.4067 8.88713 0 4.0338-3.0999 6.6419-7.9005 6.6419-4.8007 0-8.0203-2.9733-8.1698-7.5527z"/><path d="m116.381 22.4485h4.204l2.384-8.4025 2.327 8.4025h4.205l5.01-15.28786h-4.92l-2.208 8.28076-2.236-8.28076h-4.412l-2.207 8.28076-2.237-8.28076h.002-8.414v-6.66064h-4.92v6.66298h-5.6128v-2.56359h4.1148v-4.09939h-5.3967c-2.1471 0-3.6384 1.49133-3.6384 3.67564v2.98734h-3.4014v2.78599c-1.4131-1.99702-3.7651-3.22379-6.6164-3.22379-4.681 0-8.0502 3.36662-8.0502 7.88742s3.3692 7.8874 8.0502 7.8874c4.6809 0 8.0501-3.3666 8.0501-7.8874 0-1.194-.2347-2.3084-.6674-3.3011l2.6351.0047v11.1346h4.9203v-11.1627h5.6128v7.4613c0 2.367 1.312 3.7014 3.639 3.7014h5.07v-4.1251h-3.786v-7.0376h3.705v-3.54451l4.796 14.70491zm-33.9706-4.2001c-1.8779 0-3.1299-1.4562-3.1299-3.6405s1.252-3.6405 3.1299-3.6405 3.1298 1.4562 3.1298 3.6405-1.2519 3.6405-3.1298 3.6405z"/><path d="m134.261 17.9207c0-3.0037 2.147-4.8228 5.307-4.8228h2.147c.775 0 1.192-.5455 1.192-1.2736 0-.9107-.746-1.5475-2.088-1.5475-1.64 0-2.236 1.0324-2.266 2.1234h-4.295c.12-3.09503 2.414-5.67266 6.858-5.67266 3.756 0 6.679 2.24518 6.679 5.70306v10.0132h-4.89v-2.0672c-.387 1.2736-1.908 2.1234-3.846 2.1234-2.803 0-4.801-2.0321-4.801-4.5793zm6.172 1.091c1.581 0 2.474-1.3345 2.474-2.7603v-.1217h-2.504c-.865 0-1.491.6368-1.491 1.5475 0 .789.656 1.3345 1.521 1.3345z"/><path d="m158.56 11.3115c-.416 1.0699-.609 2.217-.609 3.2987 0 3.6101 2.444 7.8874 7.84 7.8874 3.699 0 6.649-2.1539 7.275-5.5509h-4.741c-.269 1.0324-1.192 1.517-2.534 1.517-1.788 0-2.833-.9715-3.13-2.6689h10.347c.03-.3629.06-.789.06-1.4866 0-3.2145-1.878-7.5831-7.574-7.5831-2.789 0-4.71 1.14249-5.916 2.74385v-.14281-2.16324h-6.617c-2.147 0-3.638 1.51708-3.638 3.7014v11.5865h4.92v-11.1417h4.317zm6.932-1.0372c1.699 0 2.624 1.2432 2.713 2.5472h-5.546c.329-1.8495 1.252-2.5472 2.833-2.5472z"/></g></svg>