<svg xmlns="http://www.w3.org/2000/svg" xmlns:xlink="http://www.w3.org/1999/xlink" width="5744.882" height="1320.265" viewBox="0 0 1520 349.32" xmlns:v="https://www.immuniweb.com"><style><![CDATA[.B{fill:#dcedf1}.C{fill:#53676c}.D{fill:#0086cf}.E{fill:#fd1212}.F{fill:#6f8a91}]]></style><g transform="matrix(9.1203 0 0 9.1203 240.949092 -663.869206)"><g fill="#5d87a3"><use xlink:href="#B"/><path d="M26.012 105.095h-1.444v-6.412h1.444zm6.824-5.691q-.273-.107-.523-.107-.68 0-.68.738v.487h1.046v1.042h-1.046v3.537h-1.408v-3.537h-.769v-1.042h.769v-.568q0-.782.51-1.261.51-.478 1.386-.478.429 0 .715.089z"/><use xlink:href="#C"/><use xlink:href="#D"/><use xlink:href="#B" x="27.131"/><use xlink:href="#E"/><use xlink:href="#E" x="5.686"/><path d="M64.349 105.095h-1.413v-6.778h1.413z"/><use xlink:href="#F"/><use xlink:href="#G"/><path d="M76.367 105.095H75.03v-.657h-.018q-.461.769-1.364.769-.666 0-1.051-.376-.38-.38-.38-1.01 0-1.332 1.578-1.538l1.243-.165q0-.751-.814-.751-.818 0-1.556.487v-1.064q.295-.152.805-.268.514-.116.934-.116 1.958 0 1.958 1.954zm-1.328-1.86v-.309l-.832.107q-.689.089-.689.622 0 .241.165.398.17.152.456.152.398 0 .648-.273.25-.277.25-.697z"/><use xlink:href="#H"/><use xlink:href="#F" x="15.506"/><use xlink:href="#C" x="50.309"/><path d="M93.685 105.095h-1.408v-2.544q0-1.064-.76-1.064-.367 0-.604.282-.237.282-.237.715v2.611h-1.413v-4.578h1.413v.724h.018q.505-.836 1.471-.836 1.52 0 1.52 1.887zm3.486-.243v-1.431q.389.326.845.492.456.161.921.161.273 0 .474-.049.206-.049.34-.134.139-.089.206-.206.067-.121.067-.259 0-.188-.107-.335-.107-.148-.295-.273-.183-.125-.438-.241-.255-.116-.55-.237-.751-.313-1.122-.765-.367-.452-.367-1.091 0-.501.201-.858.201-.362.545-.595.349-.233.805-.34.456-.112.966-.112.501 0 .885.063.389.058.715.183v1.337q-.161-.112-.353-.197-.188-.085-.389-.139-.201-.058-.402-.085-.197-.027-.376-.027-.246 0-.447.049-.201.045-.34.13-.139.085-.215.206-.076.116-.076.264 0 .161.085.291.085.125.241.241.156.112.38.224.224.107.505.224.385.161.689.344.309.179.528.407.219.228.335.523.116.291.116.68 0 .537-.206.903-.201.362-.55.59-.349.224-.814.322-.461.098-.975.098-.528 0-1.006-.089-.474-.089-.823-.268zm9.403-1.639h-2.987q.072.997 1.256.997.756 0 1.328-.358v1.019q-.635.34-1.65.34-1.109 0-1.721-.613-.613-.617-.613-1.717 0-1.14.662-1.806.662-.666 1.627-.666 1.002 0 1.547.595.55.595.55 1.614zm-1.31-.867q0-.984-.796-.984-.34 0-.59.282-.246.282-.3.702z"/><use xlink:href="#G" x="39.257"/><path d="M116.165 105.095h-1.408v-.697h-.022q-.523.809-1.399.809-1.592 0-1.592-1.927v-2.763h1.408v2.638q0 .97.769.97.38 0 .608-.264.228-.268.228-.724v-2.62h1.408z"/><use xlink:href="#D" x="78.407"/><use xlink:href="#F" x="55.496"/><use xlink:href="#H" x="46.161"/><path d="M131.574 100.522l-1.86 4.945q-.671 1.784-2.021 1.784-.514 0-.845-.116v-1.127q.282.165.613.165.545 0 .76-.514l.241-.568-1.86-4.57h1.565l.854 2.785q.08.259.125.613h.018q.04-.259.148-.604l.863-2.794z"/></g><g transform="matrix(.9287 0 0 .9287 -34.154 -11.417)"><path d="M58.998 114.24h-3.561V98.431h3.561zm20.398 0h-3.473v-6.438q0-2.458-1.808-2.458-.86 0-1.4.739-.54.739-.54 1.841v6.317h-3.484v-6.504q0-2.392-1.775-2.392-.893 0-1.433.706-.529.706-.529 1.918v6.273H61.47v-11.289h3.484v1.764h.044q.54-.904 1.51-1.466.981-.573 2.139-.573 2.392 0 3.274 2.106 1.29-2.106 3.792-2.106 3.682 0 3.682 4.542zm19.914 0h-3.473v-6.438q0-2.458-1.808-2.458-.86 0-1.4.739-.54.739-.54 1.841v6.317h-3.484v-6.504q0-2.392-1.775-2.392-.893 0-1.433.706-.529.706-.529 1.918v6.273h-3.484v-11.289h3.484v1.764h.044q.54-.904 1.51-1.466.981-.573 2.139-.573 2.392 0 3.274 2.106 1.29-2.106 3.792-2.106 3.682 0 3.682 4.542zm12.71 0h-3.473v-1.72h-.055q-1.29 1.995-3.451 1.995-3.925 0-3.925-4.752v-6.813h3.473v6.504q0 2.392 1.896 2.392.937 0 1.499-.65.562-.661.562-1.786v-6.46h3.473zm13.08 0h-3.473v-6.273q0-2.624-1.874-2.624-.904 0-1.488.695-.584.695-.584 1.764v6.438h-3.484v-11.289h3.484v1.786h.044q1.246-2.061 3.627-2.061 3.748 0 3.748 4.652zm3.77-13.07q-.882 0-1.444-.518-.562-.529-.562-1.29 0-.783.562-1.279.562-.496 1.444-.496.893 0 1.444.496.562.496.562 1.279 0 .794-.562 1.301-.551.507-1.444.507zm1.72 13.075h-3.484v-11.289h3.484z" class="E"/><path d="M155.55 98.554l-4.178 15.809h-3.947l-2.624-10.142q-.209-.794-.254-1.775h-.044q-.099 1.08-.287 1.775l-2.69 10.142h-4.112l-4.156-15.809h3.892l2.227 10.528q.143.672.209 1.808h.066q.044-.849.32-1.852l2.866-10.484h3.814l2.591 10.616q.143.584.254 1.698h.044q.044-.871.232-1.764l2.183-10.55zm10.44 11.156h-7.364q.176 2.458 3.098 2.458 1.863 0 3.274-.882v2.513q-1.565.838-4.068.838-2.734 0-4.244-1.51-1.51-1.521-1.51-4.233 0-2.811 1.632-4.454 1.632-1.643 4.013-1.643 2.469 0 3.814 1.466 1.356 1.466 1.356 3.98zm-3.23-2.139q0-2.425-1.962-2.425-.838 0-1.455.695-.606.695-.739 1.731zm8.06 5.479h-.044v1.312h-3.484V97.649h3.484v7.122h.044q1.29-1.973 3.671-1.973 2.183 0 3.362 1.499 1.18 1.499 1.18 4.101 0 2.822-1.378 4.531-1.378 1.709-3.682 1.709-2.084 0-3.153-1.588zm-.099-4.763v1.158q0 1.091.628 1.808.628.717 1.609.717 1.191 0 1.841-.915.661-.926.661-2.613 0-1.4-.606-2.183-.595-.794-1.709-.794-1.047 0-1.742.783-.684.783-.684 2.04z" class="D"/></g><path d="M135.18 85.457q-1.283 0-2.113-.83-.825-.83-.825-2.079 0-1.225.849-2.05.854-.825 2.122-.825 1.264 0 2.098.805.834.801.805 2.069 0 1.225-.844 2.069-.839.839-2.093.839zm.005-5.252q-1.032 0-1.707.675-.67.67-.67 1.683 0 1.022.68 1.693.685.67 1.698.67.998 0 1.683-.675.685-.675.685-1.683 0-1.022-.675-1.693-.675-.67-1.693-.67zm1.519 4.076h-1.003l-.294-.897q-.154-.468-.424-.468h-.232v1.365h-.844v-3.559h1.235q1.428 0 1.428 1.013 0 .728-.834.941v.014q.347.077.545.564zm-1.953-2.865v.859h.376q.535 0 .535-.444 0-.415-.617-.415z" class="D"/><g transform="matrix(.0716 0 0 .0716 -77.342 58.395)"><path d="M911.854 251.374l78.225 23.765v18.804 55.032 18.804l-78.225-23.765V325.21v-55.032-18.804z" class="C"/><use xlink:href="#I" class="F"/><use xlink:href="#J" class="B"/><path d="M1004.554 278.704l78.225 23.765v18.804 55.032 18.804l-78.225-23.765V352.54v-55.032-18.804z" class="C"/><use xlink:href="#I" x="92.7" y="27.33" class="F"/><use xlink:href="#J" x="92.7" y="27.33" class="B"/></g><path d="M-17.926 78.951l5.648 1.716v1.358 3.973 1.358l-5.648-1.716v-1.358-3.973-1.358z" class="C"/><path d="M-12.278 80.675l4.856-2.077v1.356 3.969 1.356l-4.856 2.077V86v-3.969-1.356z" class="F"/><path d="M-7.424 78.584l-4.853 2.083-.87-.266-3.911-1.198-.87-.266 4.853-2.083.87.266 3.911 1.198.87.266z" class="B"/><path d="M-11.185 80.868l5.648 1.716v1.358 3.973 1.358l-5.648-1.716v-1.358-3.973-1.358z" class="C"/><path d="M-5.537 82.591l4.856-2.077v1.356 3.969 1.356l-4.856 2.077v-1.356-3.969-1.356z" class="F"/><path d="M-.683 80.5l-4.853 2.083-.87-.266-3.911-1.198-.87-.266 4.853-2.083.87.266 3.911 1.198.87.266z" class="B"/><g transform="matrix(.0722 0 0 .0722 -43.852 58.474)"><use xlink:href="#K" class="D"/><use xlink:href="#I" x="-636.86" y="278.766" class="C"/><use xlink:href="#J" x="-636.838" y="278.968" class="B"/><use xlink:href="#K" x="-0.95" y="-107.297" class="D"/><use xlink:href="#I" x="-637.81" y="171.469" class="C"/><use xlink:href="#J" x="-637.788" y="171.671" class="B"/><use xlink:href="#K" y="-212" class="D"/><use xlink:href="#I" x="-636.86" y="66.766" class="C"/><use xlink:href="#J" x="-636.838" y="66.968" class="B"/></g><g transform="matrix(.0722 0 0 .0722 -37.265 60.491)"><use xlink:href="#K" x="1.41" y="0.35" class="D"/><use xlink:href="#I" x="-635.45" y="279.116" class="C"/><use xlink:href="#J" x="-635.428" y="279.318" class="B"/><use xlink:href="#K" x="1.41" y="-105.648" class="D"/><use xlink:href="#I" x="-635.45" y="173.118" class="C"/><use xlink:href="#J" x="-635.428" y="173.32" class="B"/><use xlink:href="#K" x="1.41" y="-211.648" class="E"/><use xlink:href="#I" x="-635.45" y="67.118" class="C"/><use xlink:href="#J" x="-635.428" y="67.32" class="B"/></g><g transform="matrix(.0692 .000822 0 .0722 -37.249 54.713)"><use xlink:href="#K" x="282.619" y="33.363" class="C"/><use xlink:href="#I" x="-354.247" y="312.128" class="E"/><use xlink:href="#J" x="-354.166" y="312.095" class="B"/><use xlink:href="#K" x="282.229" y="-74.037" class="C"/><use xlink:href="#I" x="-354.637" y="204.728" class="E"/><use xlink:href="#J" x="-354.556" y="204.695" class="B"/></g><g transform="matrix(.073 -.001885 0 .0739 3.0666 26.853)"><path transform="matrix(.9568 .29068 0 1 0 0)" d="m-29.058 732.25h81.757v18.804 55.032 18.804h-81.757v-18.804-55.032-18.804z" class="C"/><path transform="matrix(-.9221 .38698 -.95559 -.2947 0 0)" d="M1021.6-1105.1h68.989v12.521 56.3 12.521H1021.6v-12.521-56.3-12.521z" class="B"/><path transform="matrix(.9236 -.38347 0 1 0 0)" d="M54.597 768.34h69.008v18.838 55.131 18.838H54.597v-18.838-55.131-18.838z" class="E"/></g><g transform="matrix(.073 -.001862 0 .073 -45.373 58.444)"><use xlink:href="#K" x="280.799" y="32.653" class="C"/><use xlink:href="#I" x="-356.067" y="311.418" class="E"/><use xlink:href="#J" x="-355.986" y="311.385" class="B"/><use xlink:href="#K" x="280.789" y="-73.327" class="C"/><use xlink:href="#I" x="-356.077" y="205.438" class="E"/><use xlink:href="#J" x="-355.996" y="205.405" class="B"/><use xlink:href="#K" x="280.799" y="-178.977" class="C"/><use xlink:href="#I" x="-356.067" y="99.788" class="D"/><use xlink:href="#J" x="-355.986" y="99.755" class="B"/></g><g transform="matrix(.0722 0 0 .0722 -30.342 62.621)"><use xlink:href="#K" class="D"/><use xlink:href="#I" x="-636.86" y="278.766" class="E"/><use xlink:href="#J" x="-636.838" y="278.968" class="B"/><use xlink:href="#K" y="-106" class="D"/><use xlink:href="#I" x="-636.86" y="172.766" class="E"/><use xlink:href="#J" x="-636.838" y="172.968" class="B"/><use xlink:href="#K" y="-212" class="D"/><use xlink:href="#I" x="-636.86" y="66.766" class="E"/><use xlink:href="#J" x="-636.838" y="66.968" class="B"/></g></g><defs ><path id="B" d="M23.769 105.095h-1.574l-.456-1.426h-2.28l-.452 1.426h-1.565l2.334-6.412h1.712zm-2.361-2.535l-.689-2.155q-.076-.241-.107-.577h-.036q-.022.282-.112.559l-.698 2.173z"/><path id="C" d="M35.537 105.208q-1.145 0-1.802-.639-.653-.644-.653-1.744 0-1.136.68-1.775.68-.644 1.838-.644 1.14 0 1.788.644.648.639.648 1.695 0 1.14-.671 1.802-.666.662-1.829.662zm.036-3.72q-.501 0-.778.344-.277.344-.277.975 0 1.319 1.064 1.319 1.015 0 1.015-1.355 0-1.283-1.024-1.283z"/><path id="D" d="M41.939 101.802q-.255-.139-.595-.139-.461 0-.72.34-.259.335-.259.917v2.186h-1.413v-4.578h1.413v.85h.018q.335-.93 1.207-.93.224 0 .349.054z"/><path id="E" d="M52.993 104.576h-.018v2.638h-1.413v-6.684h1.413v.689h.018q.523-.8 1.471-.8.89 0 1.373.613.487.608.487 1.659 0 1.145-.568 1.838-.563.693-1.502.693-.827 0-1.261-.644zm-.04-1.878v.367q0 .474.25.774.25.3.657.3.483 0 .747-.371.268-.376.268-1.06 0-1.207-.939-1.207-.434 0-.711.331-.273.326-.273.867z"/><path id="F" d="M66.263 99.796q-.358 0-.586-.21-.228-.215-.228-.523 0-.317.228-.519.228-.201.586-.201.362 0 .586.201.228.201.228.519 0 .322-.228.528-.224.206-.586.206zm.698 5.303h-1.413v-4.578h1.413z"/><path id="G" d="M71.628 104.933q-.478.277-1.382.277-1.055 0-1.708-.639-.653-.639-.653-1.65 0-1.167.698-1.838.702-.675 1.873-.675.809 0 1.171.215v1.198q-.443-.331-.988-.331-.608 0-.966.358-.353.353-.353.979 0 .608.34.957.34.344.934.344.528 0 1.033-.331z"/><path id="H" d="M80.262 105.046q-.313.165-.943.165-1.493 0-1.493-1.552v-2.097h-.742v-1.042h.742v-.988l1.408-.402v1.391h1.028v1.042h-1.028v1.851q0 .715.568.715.224 0 .461-.13z"/><path id="I" d="M990.079 275.246l67.264-28.77v18.782 54.967 18.782l-67.264 28.77v-18.782-54.967-18.782z"/><path id="J" d="M1057.302 246.283l-67.211 28.845-12.047-3.691-54.168-16.594-12.047-3.691 67.211-28.845 12.047 3.691 54.168 16.594 12.047 3.691z"/><path id="K" d="M274.988 530.13l78.225 23.765v18.804 55.032 18.804l-78.225-23.765v-18.804-55.032-18.804z"/></defs></svg>