<svg enable-background="new 0 0 406 114" viewBox="0 0 406 114" xmlns="http://www.w3.org/2000/svg"><path d="m64.8 112.4h-16.8v-70.5h16.3v9.4c4.6-8.1 13-11.4 20.8-11.4 17.2 0 25.5 12.4 25.5 27.9v44.6h-16.8v-41.7c0-8.7-3.9-15.6-14.5-15.6-9.6 0-14.6 7.4-14.6 16.6l.1 40.7c-.1 0 0 0 0 0zm97.1 0h-16.8l-28.7-70.5h18.5l18.7 50.3 18.2-50.3h17.6zm94.2-35.6c0 14 9 21.9 19.5 21.9 10.9 0 15.9-7.6 17.5-12.9l14.6 5.3c-3.3 10.9-13.7 22.7-32.1 22.7-20.5 0-36.1-15.9-36.1-37 0-21.5 15.6-36.9 35.7-36.9 18.8 0 29.1 11.7 31.9 22.9l-14.9 5.4c-1.6-6.2-6.3-13-16.9-13-10.1 0-19.2 7.6-19.2 21.6zm88.1-34.9h14.6v14.9h-14.6v33.3c0 6.2 2.8 8.8 9 8.8 2.3 0 5.1-.4 5.8-.6v13.9c-1 .4-4.2 1.6-10.3 1.6-13 0-21.1-7.8-21.1-21v-36h-13v-14.9h3.6c7.5 0 10.9-4.8 10.9-11v-10.5h15.2zm-325.5 0v48.2c0 6.2 2.8 8.8 9 8.8 2.3 0 5.1-.4 5.8-.6v13.9c-1 .4-4.2 1.6-10.3 1.6-13 0-21.1-7.8-21.1-21v-50.9c-.1 0 16.6 0 16.6 0zm-18.7-31.5c0 5.8 4.7 10.3 10.3 10.3 5.8 0 10.4-4.5 10.4-10.3 0-5.7-4.7-10.4-10.4-10.4-5.6 0-10.3 4.7-10.3 10.4zm217.5 31.5v48.2c0 6.2 2.8 8.8 9 8.8 2.3 0 5.1-.4 5.8-.6v13.9c-1 .4-4.2 1.6-10.3 1.6-13 0-21.1-7.8-21.1-21v-50.9zm-18.6-31.5c0 5.8 4.7 10.3 10.3 10.3 5.8 0 10.4-4.5 10.4-10.3 0-5.7-4.7-10.4-10.4-10.4s-10.3 4.7-10.3 10.4zm192.3 31.5v48.2c0 6.2 2.8 8.8 9 8.8 2.3 0 5.1-.4 5.8-.6v13.9c-1 .4-4.2 1.6-10.3 1.6-13 0-21.1-7.8-21.1-21v-50.9zm-18.6-31.5c0 5.8 4.7 10.3 10.3 10.3 5.8 0 10.4-4.5 10.4-10.3s-4.6-10.4-10.4-10.4c-5.7 0-10.3 4.7-10.3 10.4z"/></svg>