<svg enable-background="new 0 0 772.79 277.24" viewBox="0 0 772.79 277.24" xmlns="http://www.w3.org/2000/svg"><g fill="#2883fa"><path d="m416.67 95.1c-7.49-4.41-15.51-6.62-24.06-6.62-8.69 0-16.81 2.27-24.36 6.82s-13.64 11.06-18.25 19.55-6.92 18.35-6.92 29.58c0 10.29 2.24 19.52 6.72 27.67s10.83 14.5 19.05 19.05 17.75 6.82 28.57 6.82c6.68 0 13.23-1.34 19.65-4.01s11.56-5.95 15.44-9.83c2.67-2.27 4.01-4.81 4.01-7.62 0-2.14-.77-4.01-2.31-5.61s-3.44-2.41-5.71-2.41c-1.87 0-3.81.6-5.82 1.8-3.07 2.94-6.62 5.35-10.63 7.22s-9.22 2.81-15.64 2.81c-9.36 0-17.28-2.94-23.76-8.82s-10.19-13.7-11.13-23.46h70.58c2.54 0 4.75-.84 6.62-2.51s2.87-3.71 3.01-6.12c-.13-9.62-2.47-18.31-7.02-26.07-4.54-7.75-10.55-13.83-18.04-18.24zm4.82 36.89h-59.15c1.74-8.82 5.35-15.34 10.83-19.55s11.96-6.32 19.45-6.32c7.22 0 13.67 2.27 19.35 6.82s8.86 10.36 9.52 17.44z"/><path d="m310.8 75.25c0-2.67-.9-4.95-2.71-6.82-1.8-1.87-4.04-2.81-6.72-2.81-2.81 0-5.11.94-6.92 2.81-1.8 1.87-2.71 4.14-2.71 6.82v16.84h-11.63c-2.54 0-4.65.8-6.32 2.41-1.67 1.6-2.51 3.68-2.51 6.22s.84 4.65 2.51 6.32 3.78 2.51 6.32 2.51h11.63v60.56c0 7.75 1.44 13.53 4.31 17.34s6.15 6.18 9.83 7.12 7.72 1.4 12.13 1.4c4.01 0 7.62-1 10.83-3.01s4.81-4.41 4.81-7.22c0-2.27-.6-4.14-1.8-5.61s-2.67-2.21-4.41-2.21c-.94 0-2.21.23-3.81.7s-2.87.7-3.81.7c-6.02 0-9.02-3.34-9.02-10.03v-59.75h16.64c2.54 0 4.65-.8 6.32-2.41 1.67-1.6 2.51-3.68 2.51-6.22s-.84-4.65-2.51-6.32-3.78-2.51-6.32-2.51h-16.64z"/><path d="m263.08 176.51c0-2.14-.77-4.01-2.31-5.61s-3.44-2.41-5.71-2.41c-1.87 0-3.81.6-5.81 1.8-3.07 2.94-6.62 5.35-10.63 7.22s-9.22 2.81-15.64 2.81c-9.36 0-17.28-2.94-23.76-8.82s-10.19-13.7-11.13-23.46h70.58c2.54 0 4.75-.84 6.62-2.51s2.87-3.71 3.01-6.12c-.13-9.62-2.47-18.31-7.02-26.07-4.55-7.75-10.56-13.84-18.05-18.25s-15.51-6.62-24.06-6.62c-8.69 0-16.81 2.27-24.36 6.82s-13.64 11.06-18.25 19.55-6.92 18.35-6.92 29.58c0 10.29 2.24 19.52 6.72 27.67s10.83 14.5 19.05 19.05 17.75 6.82 28.57 6.82c6.68 0 13.23-1.34 19.65-4.01s11.56-5.95 15.44-9.83c2.67-2.27 4.01-4.81 4.01-7.61zm-63.37-64.07c5.48-4.21 11.96-6.32 19.45-6.32 7.22 0 13.67 2.27 19.35 6.82s8.86 10.36 9.52 17.44v1.6h-59.15c1.74-8.81 5.35-15.33 10.83-19.54z"/><path d="m120.51 89.08c-7.62 0-14.84 2.27-21.66 6.82s-11.7 9.62-14.64 15.24c-4.95-14.7-15.71-22.06-32.28-22.06-6.82 0-13.13 1.77-18.95 5.31-5.81 3.54-10.46 7.92-13.94 13.13v-7.02c0-2.67-.9-4.95-2.71-6.82-1.8-1.87-4.11-2.81-6.92-2.81-2.67 0-4.91.94-6.72 2.81-1.79 1.88-2.69 4.16-2.69 6.83v85.82c0 2.81.87 5.11 2.61 6.92 1.74 1.8 4.01 2.71 6.82 2.71s5.11-.94 6.92-2.81c1.8-1.87 2.71-4.14 2.71-6.82v-53.54c0-7.35 2.57-13.53 7.72-18.55 5.15-5.01 11.66-7.52 19.55-7.52 7.75 0 13.3 2.37 16.64 7.12s5.01 11.06 5.01 18.95v53.54c0 2.81.87 5.11 2.61 6.92 1.74 1.8 4.01 2.71 6.82 2.71s5.11-.94 6.92-2.81c1.8-1.87 2.71-4.14 2.71-6.82v-53.34c0-4.81 1.17-9.22 3.51-13.23s5.61-7.19 9.83-9.52c4.21-2.34 8.92-3.51 14.14-3.51 14.7 0 22.06 8.76 22.06 26.27v53.34c0 2.67.9 4.95 2.71 6.82 1.8 1.87 4.11 2.81 6.92 2.81s5.08-.9 6.82-2.71c1.74-1.8 2.61-4.11 2.61-6.92v-53.54c-.04-29.15-11.74-43.72-35.13-43.72z"/><path d="m517.13 91.19c-2.54-1.8-5.55-2.71-9.02-2.71-7.49.13-14.17 2.24-20.05 6.32s-10.29 9.39-13.23 15.94v-10.23c0-2.67-.9-4.95-2.71-6.82-1.8-1.87-4.11-2.81-6.92-2.81-2.67 0-4.91.94-6.72 2.81-1.8 1.87-2.71 4.14-2.71 6.82v85.82c0 2.81.87 5.11 2.61 6.92 1.74 1.8 4.01 2.71 6.82 2.71s5.11-.94 6.92-2.81c1.8-1.87 2.71-4.14 2.71-6.82v-48.32c0-6.15 1.24-11.73 3.71-16.74s5.68-8.96 9.62-11.83 7.99-4.31 12.13-4.31c1.6 0 3.81.47 6.62 1.4 2.41.8 4.21 1.2 5.41 1.2 2.41 0 4.45-.84 6.12-2.51s2.51-4.11 2.51-7.32c-.01-2.67-1.28-4.91-3.82-6.71z"/><path d="m653.28 89.48c-2.81 0-5.08.94-6.82 2.81s-2.61 4.21-2.61 7.02v4.81c-3.61-4.55-8.46-8.29-14.54-11.23s-12.67-4.41-19.75-4.41c-8.82 0-16.91 2.34-24.26 7.02s-13.13 11.2-17.34 19.55-6.32 17.75-6.32 28.17c0 10.43 2.11 19.82 6.32 28.17s10.03 14.87 17.44 19.55c7.42 4.68 15.67 7.02 24.76 7.02 6.95 0 13.43-1.64 19.45-4.91 6.02-3.28 10.76-7.25 14.24-11.93v5.21c0 2.81.87 5.11 2.61 6.92 1.74 1.8 4.01 2.71 6.82 2.71s5.11-.94 6.92-2.81c1.8-1.87 2.71-4.14 2.71-6.82v-87.02c0-2.94-.9-5.31-2.71-7.12-1.8-1.81-4.11-2.71-6.92-2.71zm-12.73 72.79c-2.74 5.61-6.55 10.03-11.43 13.23-4.88 3.21-10.46 4.81-16.74 4.81s-11.86-1.6-16.74-4.81-8.69-7.62-11.43-13.23-4.11-11.96-4.11-19.05c0-7.08 1.37-13.43 4.11-19.05 2.74-5.61 6.55-10.03 11.43-13.23 4.88-3.21 10.46-4.81 16.74-4.81s11.86 1.64 16.74 4.91c4.88 3.28 8.69 7.72 11.43 13.33s4.11 11.9 4.11 18.85c0 7.09-1.37 13.44-4.11 19.05z"/><path d="m736.7 88.48c-7.09 0-13.74 1.84-19.95 5.51-6.22 3.68-11.06 8.19-14.54 13.53v-7.02c0-2.67-.9-4.95-2.71-6.82-1.8-1.87-4.11-2.81-6.92-2.81-2.67 0-4.91.94-6.72 2.81-1.8 1.87-2.71 4.14-2.71 6.82v85.82c0 2.81.87 5.11 2.61 6.92 1.74 1.8 4.01 2.71 6.82 2.71s5.11-.94 6.92-2.81c1.8-1.87 2.71-4.14 2.71-6.82v-54.34c0-4.68 1.24-8.99 3.71-12.93s5.88-7.08 10.23-9.42c4.34-2.34 9.19-3.51 14.54-3.51 8.15 0 14.04 2.34 17.65 7.02s5.41 10.96 5.41 18.85v54.34c0 2.67.9 4.95 2.71 6.82 1.8 1.87 4.04 2.81 6.72 2.81 2.81 0 5.11-.94 6.92-2.81 1.8-1.87 2.71-4.14 2.71-6.82v-54.54c-.02-28.87-12.05-43.31-36.11-43.31z"/><path d="m539.19 55.8c-3.74 0-6.52.67-8.32 2.01s-2.71 3.61-2.71 6.82v3.21c0 3.07.84 5.31 2.51 6.72 1.67 1.4 4.44 2.11 8.32 2.11 3.74 0 6.48-.67 8.22-2.01s2.61-3.61 2.61-6.82v-3.21c0-3.07-.84-5.31-2.51-6.72s-4.38-2.11-8.12-2.11z"/><path d="m538.99 89.88c-2.67 0-4.91.94-6.72 2.81-1.8 1.87-2.71 4.14-2.71 6.82v86.82c0 2.67.9 4.95 2.71 6.82 1.8 1.87 4.04 2.81 6.72 2.81 2.81 0 5.11-.94 6.92-2.81 1.8-1.87 2.71-4.14 2.71-6.82v-86.82c0-2.67-.9-4.95-2.71-6.82s-4.11-2.81-6.92-2.81z"/><path d="m208.17 71.17c.3.21.64.31.98.31.5 0 .99-.22 1.32-.63 15.98-19.98 38.99-25.45 45.65-26.65v15.87c0 .59.31 1.13.81 1.44.27.16.57.25.88.25.26 0 .53-.06.77-.19l56.76-29.19c.56-.29.91-.87.91-1.5s-.35-1.21-.91-1.5l-56.76-29.19c-.25-.13-.51-.19-.77-.19-.3 0-.61.08-.88.25-.5.31-.81.85-.81 1.44v14.66c-44.66 3.88-70.73 35.86-70.99 36.18-.29.36-.42.83-.35 1.28.06.46.31.87.69 1.14z"/><path d="m364.33 206.06c-.3-.21-.64-.31-.98-.31-.5 0-.99.22-1.32.63-15.98 19.98-38.99 25.45-45.65 26.65v-15.87c0-.59-.31-1.13-.81-1.44-.27-.16-.57-.25-.88-.25-.26 0-.53.06-.77.19l-56.76 29.19c-.56.29-.91.87-.91 1.5s.35 1.21.91 1.5l56.76 29.19c.24.12.51.19.77.19.3 0 .61-.08.88-.25.5-.31.81-.85.81-1.44v-14.66c44.66-3.88 70.73-35.86 70.99-36.18.29-.36.42-.83.35-1.28-.06-.46-.31-.87-.69-1.14z"/></g></svg>