<svg height="110" preserveAspectRatio="xMidYMid" viewBox="0 0 512 110" width="512" xmlns="http://www.w3.org/2000/svg"><path d="m512 49.4486428v-9.0043052h-11.181733v-13.9986486l-.376368.1157732-10.502571 3.21317-.206782.0631489v10.6065565h-16.576614v-5.9081467c0-2.7513155.615394-4.8569014 1.827607-6.2610381 1.204164-1.3874208 2.926522-2.0925847 5.122498-2.0925847 1.579345 0 3.214408.3720839 4.859378 1.1057267l.412326.183875v-9.4828756l-.19378-.0711973c-1.534769-.5516252-3.62302-.8296046-6.210272-.8296046-3.261461 0-6.22513.7094976-8.809286 2.1161107-2.586014 1.4084705-4.620402 3.4193329-6.04497 5.9762486-1.420233 2.5538201-2.140875 5.50325-2.140875 8.7671869v6.4962991h-7.7859v9.0043052h7.7859v37.9333598h11.177374v-37.9333598h16.576614v24.106204c0 9.9280142 4.682932 14.9595041 13.918165 14.9595041 1.518053 0 3.114757-.1783031 4.746081-.5268608 1.659853-.3572253 2.790344-.7144505 3.45586-1.095821l.147348-.0866751v-9.0878847l-.454426.3008863c-.606725.4048966-1.362037.7348811-2.247955.9800479-.889683.2501195-1.632613.3757985-2.20774.3757985-2.163806 0-3.764175-.5831997-4.757869-1.7335021-1.004192-1.1608273-1.513693-3.1915012-1.513693-6.0313491v-22.160348zm-82.768163 29.9260659c-4.057014 0-7.255326-1.3453215-9.509497-3.9951033-2.267793-2.6634021-3.416857-6.4603908-3.416857-11.2844795 0-4.9770084 1.149064-8.8724353 3.418095-11.5828896 2.25541-2.6925002 5.423385-4.0588713 9.41725-4.0588713 3.875616 0 6.96063 1.3050794 9.170226 3.8811873 2.22136 2.5891092 3.348136 6.4535807 3.348136 11.4887852 0 5.0971154-1.059913 9.0123536-3.150021 11.63118-2.07525 2.599634-5.196173 3.9201912-9.277332 3.9201912zm.497763-40.0612336c-7.740087 0-13.887829 2.2677922-18.270493 6.7408468-4.380189 4.4736736-6.601548 10.6641335-6.601548 18.4017439 0 7.3488107 2.168116 13.2600528 6.444294 17.5665674 4.276179 4.3083718 10.095792 6.4907272 17.295398 6.4907272 7.502969 0 13.528127-2.2993668 17.909553-6.8343321 4.380807-4.5306316 6.60031-10.6622762 6.60031-18.2191072 0-7.4639647-2.082679-13.4191635-6.192317-17.6971991-4.111496-4.2798928-9.894583-6.4492469-17.185197-6.4492469zm-42.893346-.0002476c-5.264894 0-9.619698 1.3465596-12.946784 4.0019134-3.346897 2.6708315-5.044491 6.174363-5.044491 10.4133948 0 2.203405.366511 4.1610241 1.087773 5.8208523.725594 1.6660194 1.848656 3.1320669 3.340087 4.3628534 1.480905 1.2208808 3.765414 2.4999577 6.794089 3.8007033 2.545154 1.0475307 4.443957 1.9340932 5.649979 2.6324469 1.178782.6841142 2.015816 1.3725621 2.488195 2.0424369.458759.6556353.692163 1.5527226.692163 2.6609257 0 3.1531165-2.361278 4.6872659-7.220656 4.6872659-1.802223 0-3.85828-.3757985-6.110595-1.1181089-2.253552-.7410721-4.359139-1.8065569-6.257324-3.172928l-.463711-.3324609v10.7607144l.170255.0792458c1.58182.7299281 3.575348 1.3453214 5.925481 1.8300829 2.3458.4847614 4.476769.7317855 6.328521.7317855 5.713128 0 10.313719-1.3533699 13.670522-4.0242013 3.378471-2.6894047 5.090924-6.2752776 5.090924-10.661657 0-3.1636414-.921852-5.8771913-2.738933-8.0651186-1.804081-2.1705923-4.935529-4.1628814-9.303954-5.9242434-3.480006-1.3967074-5.709412-2.5562965-6.628788-3.4459546-.886563-.8599409-1.336654-2.0758687-1.336654-3.6155901 0-1.3651329.55534-2.4584774 1.696356-3.3444208 1.149683-.8902772 2.749457-1.342845 4.756606-1.342845 1.862276 0 3.76789.2940762 5.66236.8704657 1.893851.5763894 3.556775 1.3484169 4.945434 2.2931756l.456283.3120304v-10.207851l-.175207-.0755312c-1.280935-.5491486-2.969861-1.0190515-5.020966-1.400422-2.043056-.3776558-3.896046-.5689601-5.506965-.5689601zm-47.130207 40.0614812c-4.055776 0-7.255326-1.3453215-9.508878-3.9951033-2.268412-2.6634021-3.415619-6.4591525-3.415619-11.2844795 0-4.9770084 1.148446-8.8724353 3.418095-11.5828896 2.253553-2.6925002 5.420909-4.0588713 9.416631-4.0588713 3.874378 0 6.959392 1.3050794 9.169607 3.8811873 2.22136 2.5891092 3.348136 6.4535807 3.348136 11.4887852 0 5.0971154-1.060532 9.0123536-3.15064 11.63118-2.07525 2.599634-5.194935 3.9201912-9.277332 3.9201912zm.499001-40.0612336c-7.741945 0-13.889686 2.2677922-18.270493 6.7408468-4.380189 4.4736736-6.602786 10.6641335-6.602786 18.4017439 0 7.3519063 2.169354 13.2600528 6.445532 17.5665674 4.276179 4.3083718 10.095174 6.4907272 17.295398 6.4907272 7.501112 0 13.528127-2.2993668 17.909553-6.8343321 4.37957-4.5306316 6.60031-10.6622762 6.60031-18.2191072 0-7.4639647-2.083298-13.4191635-6.193556-17.6971991-4.112733-4.2798928-9.894582-6.4492469-17.183958-6.4492469zm-41.840178 9.25913v-8.1282675h-11.041171v46.9364268h11.041171v-24.0096233c0-4.0830166.925566-7.436724 2.751934-9.9701136 1.803461-2.5030531 4.206839-3.7716052 7.140791-3.7716052.994286 0 2.110538.1640636 3.319656.4884762 1.196735.3225552 2.063487.672351 2.57487 1.0407203l.463712.3361756v-11.1309408l-.178922-.0767694c-1.028338-.4370902-2.482623-.6574926-4.323231-.6574926-2.774222 0-5.257464.8915154-7.3841 2.6466862-1.86661 1.5428169-3.216266 3.6583086-4.247699 6.2963273zm-30.813307-9.2593776c-5.064922 0-9.583172 1.0865343-13.426593 3.2274094-3.850852 2.145828-6.828761 5.209793-8.855101 9.1058389-2.017053 3.8867593-3.041058 8.4266776-3.041058 13.4891228 0 4.4346699.993049 8.5046851 2.955621 12.0911772 1.963811 3.5926831 4.743605 6.403433 8.261995 8.3530037 3.513438 1.9470944 7.574166 2.9345714 12.070128 2.9345714 5.246939 0 9.726804-1.0493879 13.318868-3.1178274l.144872-.0835796v-10.1149847l-.463712.338652c-1.627016 1.1849725-3.445335 2.1309694-5.401717 2.8126072-1.951428.6810187-3.730744 1.0252427-5.290277 1.0252427-4.332516 0-7.810046-1.3558463-10.334768-4.027916-2.530294-2.6764034-3.813085-6.4337692-3.813085-11.1625153 0-4.7584633 1.337892-8.6124099 3.974672-11.4565917 2.628113-2.8355141 6.112452-4.2737017 10.355199-4.2737017 3.62921 0 7.165554 1.2289291 10.511214 3.6558321l.462474.3361756v-10.6579424l-.149206-.0841987c-1.259265-.7045448-2.976052-1.2865062-5.108259-1.7279301-2.122302-.4401857-4.198171-.6624454-6.171267-.6624454zm-32.927006 1.1312339h-11.04117v46.9364267h11.04117zm-5.407908-19.9953276c-1.817081 0-3.401997.6184887-4.703982 1.8443224-1.307555 1.2295482-1.971239 2.777318-1.971239 4.6036862 0 1.7978894.655636 3.3171802 1.95019 4.5139157 1.286506 1.193021 2.876375 1.7978893 4.725031 1.7978893 1.848037 0 3.444098-.6048683 4.746081-1.7960319 1.310652-1.1985929 1.974955-2.7178837 1.974955-4.5157731 0-1.7626001-.646349-3.2948922-1.921092-4.5541576-1.272886-1.256789-2.888138-1.893851-4.799944-1.893851zm-27.547765 16.5324095v50.3990973h11.267763v-65.494186h-15.594708l-19.822597 48.647022-19.236301-48.647022h-16.229913v65.494186h10.588602v-50.4040501h.364035l20.31293 50.4040501h7.990826l19.995946-50.3990973z" fill="#706d6e"/><path d="m51.9394377 51.9394377h-51.9394377v-51.9394377h51.9394377z" fill="#f1511b"/><path d="m109.286783 51.9394377h-51.9388188v-51.9394377h51.9388188z" fill="#80cc28"/><path d="m51.9381995 109.307213h-51.9381995v-51.9394373h51.9381995z" fill="#00adef"/><path d="m109.286783 109.307213h-51.9388188v-51.9394373h51.9388188z" fill="#fbbc09"/></svg>