<svg height="165" preserveAspectRatio="xMidYMid" viewBox="0 0 512 165" width="512" xmlns="http://www.w3.org/2000/svg"><path d="m0 0h512v164.197528h-512zm144.940558 123.833999-.008849-14.68167h-9.000156v-30.9208883c0-16.0533748-11.106387-23.4074843-23.257039-23.4074843-10.655052 0-18.3012014 5.5576182-22.0534787 14.5577738-3.300942-9.902826-12.3187969-14.5577738-22.0534785-14.5577738-9.4426411 0-16.4958603 4.3540576-20.5490277 11.5488722v-10.1948665h-29.0889984v14.6993692h9.7346816v38.2749977h-9.0001556v14.699369h41.2573503v-14.699369h-12.8674791v-23.5756286c0-9.4514908 3.7522773-16.0533748 13.053323-16.0533748 7.6549996 0 11.5488722 4.5045026 11.5488722 16.2038198v38.1245526h28.3190739v-14.699369h-8.9559074v-23.5756286c0-9.4514908 3.7522772-16.0533748 13.0533234-16.0533748 7.646149 0 11.548872 4.5045026 11.548872 16.2038198v38.1068536zm43.053842 1.495601v.00885c21.602143 0 37.204183-13.655104 37.186483-35.2660967 0-18.9029816-11.876311-35.2572466-36.159917-35.2572466-24.283605 0-36.283813 16.354265-36.283813 36.1599171 0 21.6021432 14.407329 34.3545762 35.257247 34.3545762zm.743375-55.6558294c9.159451 0 16.504711 6.1505488 16.53126 19.8056521 0 12.9028783-6.601884 21.0003633-16.655155 21.0003633-10.531156 0-15.929479-9.000156-15.929479-20.6994731 0-12.7612826 6.150548-20.1065423 16.053374-20.1065423zm106.975301 54.1602284 4.159364-23.690675-15.30115-1.4956012-3.150497 10.5046062h-21.867634l37.522772-42.7795004-1.495601-10.2037162h-59.470054l-2.398272 23.7083744 13.955994 1.4956011 3.000051-10.5046064h21.150808l-37.168784 42.7618015 1.946937 10.203716zm36.602402-43.3635816v-24.2924553h-20.256987v24.2924553zm0 43.3635816v-24.3013052h-20.256987v24.3013052zm10.619653 0h19.079976l29.257143-103.1787747h-19.053427zm39.310414 0h19.079976l29.239443-103.1787747h-19.053427zm100.815902 1.495601.026549.00885c4.26082-.053969 8.444006-1.147612 12.186051-3.185896l-.150445-10.203716c-.923616.285004-1.883124.436976-2.849607.451335-3.159346 0-4.654947-1.354006-4.654947-5.256728v-29.4075881c0-15.4515945-12.301098-22.956149-26.858872-22.956149-11.106386 0-17.10649 1.3894045-28.956252 6.1947973l-3.000052 17.5489759 15.451594 1.6548959 2.504468-9.6019359c3.150497-1.6460461 6.300994-1.9469363 10.354162-1.9469363 10.955941 0 11.106386 8.2479302 11.106386 15.1507043v2.2478265c-3.685894-.43274-7.395314-.6337284-11.106386-.6017803-15.451595 0-31.50497 3.8938726-31.50497 20.5490277 0 14.097589 11.115237 19.354317 20.849918 19.354317 10.947092 0 17.849866-6.601884 21.752589-13.504658.90267 8.24793 5.849658 13.504658 14.849814 13.504658zm-37.478524-21.602143c0-7.3452601 6.000104-9.2921964 12.929427-9.2833467 3.261272.0727625 6.513752.3684425 9.734681.884971-.442485 11.2479817-7.796595 16.2038197-14.699369 16.2038197-5.867358 0-7.964739-3.451387-7.964739-7.805444z"/></svg>