<svg viewBox="0 0 217 52" xmlns="http://www.w3.org/2000/svg"><g fill="#002235"><path d="m61.38 22.76c0-7.43 1.92-11.7 8.9-11.7s8.93 4.21 8.93 11.7-1.92 11.51-8.93 11.51-8.9-3.94-8.9-11.51zm15.22 0c0-6.09-1.17-9.48-6.32-9.48s-6.32 3.36-6.32 9.48 1.11 9.29 6.32 9.29 6.32-2.93 6.32-9.29z"/><path d="m83.37 17.64h2.41v1.17s2.48-1.5 4.89-1.5c4.11 0 5.9 2.51 5.9 8.28 0 6.39-2.09 8.67-7.1 8.67-1.53 0-3.2-.26-3.65-.36v7.27h-2.45zm2.45 3.16v10.98c.42.06 2.12.36 3.52.36 3.58 0 4.76-1.86 4.76-6.55s-1.4-6.1-3.78-6.1c-2.22 0-4.5 1.3-4.5 1.3z"/><path d="m112.58 31.82.06 1.92s-3.71.52-6.36.52c-4.85 0-6.45-2.84-6.45-8.38 0-6.19 2.67-8.57 6.81-8.57s6.55 2.28 6.55 7.63l-.13 1.86h-10.75c0 3.49 1.07 5.31 4.27 5.31 2.44 0 6-.29 6-.29zm-1.82-6.98c0-4.04-1.24-5.48-4.11-5.48s-4.33 1.53-4.37 5.48h8.47z"/><path d="m117.01 33.94v-16.3h2.41v1.14s2.64-1.47 5.05-1.47c4.5 0 5.51 2.22 5.51 8.02v8.61h-2.41v-8.54c0-4.3-.49-5.9-3.52-5.9-2.35 0-4.59 1.21-4.59 1.21v13.23h-2.44z"/><path d="m147.38 13.79s-4.53-.55-6.42-.55c-3.19 0-4.89 1.14-4.89 3.68 0 2.93 1.57 3.42 5.51 4.3 4.5 1.01 6.48 2.12 6.48 6.06 0 4.99-2.74 6.94-7.2 6.94-2.67 0-7.14-.72-7.14-.72l.26-2.08s4.44.59 6.75.59c3.19 0 4.82-1.4 4.82-4.53 0-2.54-1.34-3.26-5.02-3.98-4.66-1.01-7.01-2.12-7.01-6.42s2.87-6.06 7.27-6.06c2.67 0 6.81.65 6.81.65l-.23 2.12z"/><path d="m166.02 33.58c-1.6.33-4.07.69-6.23.69-6.75 0-8.24-4.11-8.24-11.54s1.47-11.67 8.24-11.67c2.31 0 4.79.42 6.23.72l-.1 2.12c-1.47-.26-4.11-.59-5.87-.59-5.02 0-5.9 3-5.9 9.42s.82 9.29 5.97 9.29c1.82 0 4.23-.29 5.8-.59z"/><path d="m174.33 11.38h5.47l6.19 22.55h-2.48l-1.63-5.8h-9.65l-1.63 5.8h-2.48l6.19-22.55zm-1.53 14.5h8.54l-3.42-12.35h-1.7z"/><path d="m192.06 26.34v7.59h-2.51v-22.55h8.25c4.92 0 7.2 2.38 7.2 7.27s-2.28 7.69-7.2 7.69zm5.7-2.22c3.29 0 4.66-1.99 4.66-5.48s-1.37-5.05-4.66-5.05h-5.7v10.53z"/><path d="m5 22.57c0-5.78 2.22-11.24 6.33-15.34 4.35-4.36 10.05-6.64 16.04-6.43 5.51.19 10.86 2.49 14.68 6.31 4.09 4.09 6.38 9.52 6.43 15.29.04 5.85-2.23 11.38-6.41 15.57-8.46 8.46-22.26 8.42-30.76-.09-.95-.95-1.23-2.67.1-4l5.78-5.78c-1.31-2.33-3.16-8.42 1.69-13.27 4.88-4.88 11.92-3.88 15.64-.15 2.1 2.1 3.27 4.85 3.29 7.75.04 2.97-1.18 5.8-3.37 8-2.68 2.68-6.54 3.73-10.34 2.81-.96-.23-1.55-1.2-1.32-2.16s1.2-1.55 2.16-1.32c2.61.63 5.15-.05 6.97-1.86 1.5-1.5 2.33-3.42 2.33-5.4v-.05c-.01-1.95-.81-3.81-2.24-5.24-2.51-2.51-7.26-3.16-10.58.15-4.04 4.04-1.05 9.06-1.02 9.11.99 1.56.47 3.19-.56 4.06l-5.39 5.39c6.33 5.73 17.44 7.18 25.1-.48 3.46-3.46 5.37-8.02 5.37-12.84 0-.06 0-.11 0-.17-.04-4.82-1.95-9.36-5.38-12.79-3.18-3.18-7.66-5.1-12.27-5.26-4.99-.17-9.74 1.74-13.39 5.39-5.58 5.58-5.57 12.18-5.07 15.61.22 1.51.7 3.12 1.39 4.65.41.9 0 1.96-.9 2.37-.9.4-1.96 0-2.37-.9-.84-1.86-1.4-3.75-1.67-5.6-.16-1.11-.24-2.22-.24-3.32z"/><path d="m92.44 42.69-1.42 3.84h2.84zm-.59-1.03h1.18l2.94 7.72h-1.09l-.7-1.98h-3.48l-.7 1.98h-1.1s2.95-7.72 2.95-7.72z"/><path d="m96.96 47.09v-3.51h.95v3.47c0 .55.11.96.32 1.24.21.27.53.41.96.41.51 0 .92-.16 1.22-.49s.45-.77.45-1.34v-3.28h.95v5.79h-.95v-.89c-.23.35-.5.61-.81.79-.3.17-.66.25-1.06.25-.67 0-1.17-.21-1.52-.62-.34-.41-.52-1.02-.52-1.82z"/><path d="m107.6 44.47v-3.13h.95v8.05h-.95v-.87c-.2.34-.45.6-.76.77-.3.17-.67.25-1.1.25-.7 0-1.27-.28-1.71-.84s-.66-1.29-.66-2.2.22-1.65.66-2.2c.44-.56 1.01-.84 1.71-.84.43 0 .79.08 1.1.25s.56.42.76.77zm-3.24 2.02c0 .7.14 1.25.43 1.65s.69.59 1.19.59.9-.2 1.19-.59c.29-.4.43-.95.43-1.65s-.14-1.25-.43-1.65-.69-.6-1.19-.6-.9.2-1.19.6-.43.94-.43 1.65z"/><path d="m110.51 43.59h.95v5.79h-.95zm0-2.26h.95v1.21h-.95z"/><path d="m114.39 41.94v1.64h1.96v.74h-1.96v3.15c0 .47.06.78.19.91s.39.2.79.2h.98v.8h-.98c-.73 0-1.24-.14-1.52-.41-.28-.28-.42-.78-.42-1.5v-3.15h-.7v-.74h.7v-1.64s.96 0 .96 0z"/><path d="m117.85 48.07h1.09v.89l-.85 1.66h-.67l.42-1.66v-.89z"/><path d="m124.39 41.66h4.44v.88h-3.39v2.28h3.06v.88h-3.06v3.69h-1.04s0-7.72 0-7.72z"/><path d="m129.69 43.59h.95v5.79h-.95zm0-2.26h.95v1.21h-.95z"/><path d="m137.45 43.59-2.09 2.82 2.2 2.97h-1.12l-1.69-2.28-1.69 2.28h-1.12l2.25-3.03-2.06-2.76h1.12l1.54 2.06 1.54-2.06z"/><path d="m144.9 46.47c-.77 0-1.3.09-1.6.26-.3.18-.44.48-.44.9 0 .34.11.61.33.81s.53.29.91.29c.53 0 .95-.19 1.27-.56.32-.38.48-.87.48-1.49v-.21zm1.9-.39v3.31h-.95v-.88c-.22.35-.49.61-.81.78s-.72.25-1.19.25c-.59 0-1.07-.17-1.42-.5s-.52-.78-.52-1.34c0-.65.22-1.14.65-1.47.44-.33 1.09-.5 1.96-.5h1.33v-.09c0-.44-.14-.78-.43-1.01-.29-.24-.69-.36-1.21-.36-.33 0-.65.04-.97.12-.31.08-.62.2-.91.36v-.88c.35-.13.69-.23 1.01-.3.33-.07.65-.1.96-.1.84 0 1.46.22 1.88.65s.62 1.09.62 1.98z"/><path d="m153.58 45.88v3.5h-.95v-3.47c0-.55-.11-.96-.32-1.23s-.53-.41-.96-.41c-.51 0-.92.16-1.22.49s-.44.77-.44 1.34v3.27h-.96v-5.79h.96v.9c.23-.35.49-.61.8-.78s.67-.26 1.07-.26c.67 0 1.17.21 1.51.62s.51 1.02.51 1.82z"/><path d="m159.31 44.47v-3.13h.95v8.05h-.95v-.87c-.2.34-.45.6-.76.77-.3.17-.67.25-1.1.25-.7 0-1.27-.28-1.71-.84s-.66-1.29-.66-2.2.22-1.65.66-2.2c.44-.56 1.01-.84 1.71-.84.43 0 .79.08 1.1.25s.56.42.76.77zm-3.24 2.02c0 .7.14 1.25.43 1.65s.69.59 1.19.59.9-.2 1.19-.59c.29-.4.43-.95.43-1.65s-.14-1.25-.43-1.65-.69-.6-1.19-.6-.9.2-1.19.6-.43.94-.43 1.65z"/><path d="m169.75 46.49c0-.7-.14-1.25-.43-1.65s-.68-.6-1.18-.6-.9.2-1.19.6-.43.94-.43 1.65.14 1.25.43 1.65.69.59 1.19.59.9-.2 1.18-.59c.29-.4.43-.95.43-1.65zm-3.24-2.02c.2-.34.45-.6.76-.77s.67-.25 1.1-.25c.7 0 1.27.28 1.71.84s.66 1.29.66 2.2-.22 1.65-.66 2.2c-.44.56-1.01.84-1.71.84-.42 0-.79-.08-1.1-.25-.3-.17-.56-.43-.76-.77v.87h-.96v-8.05h.96v3.13z"/><path d="m177.27 46.25v.47h-4.38c.04.66.24 1.16.59 1.5.36.34.85.51 1.48.51.37 0 .72-.04 1.06-.13s.69-.22 1.02-.4v.9c-.34.14-.69.26-1.05.33s-.72.11-1.09.11c-.92 0-1.66-.27-2.2-.81s-.81-1.27-.81-2.18.26-1.7.77-2.26 1.21-.84 2.07-.84c.78 0 1.39.25 1.85.76.46.5.68 1.18.68 2.04zm-.95-.28c0-.52-.15-.94-.44-1.25-.28-.31-.66-.47-1.13-.47-.53 0-.96.15-1.28.45s-.5.72-.55 1.27h3.39s0 0 0 0z"/><path d="m182.25 41.66h1.56l1.97 5.26 1.98-5.26h1.56v7.72h-1.02v-6.78l-1.99 5.3h-1.05l-1.99-5.3v6.78h-1.01v-7.72z"/><path d="m196.31 46.25v.47h-4.38c.04.66.24 1.16.59 1.5.36.34.85.51 1.48.51.37 0 .72-.04 1.06-.13s.69-.22 1.02-.4v.9c-.34.14-.69.26-1.05.33-.36.08-.72.11-1.09.11-.92 0-1.66-.27-2.2-.81s-.81-1.27-.81-2.18.26-1.7.77-2.26 1.21-.84 2.07-.84c.78 0 1.39.25 1.85.76.46.5.68 1.18.68 2.04zm-.95-.28c0-.52-.15-.94-.44-1.25-.28-.31-.66-.47-1.13-.47-.53 0-.96.15-1.28.45s-.5.72-.55 1.27h3.39s0 0 0 0z"/><path d="m201.23 44.48c-.11-.06-.22-.11-.35-.13-.12-.03-.26-.05-.41-.05-.54 0-.95.18-1.24.53s-.43.85-.43 1.51v3.05h-.96v-5.79h.96v.9c.2-.35.46-.61.78-.78s.71-.26 1.17-.26c.07 0 .14 0 .22.02.08 0 .17.02.26.04v.98s0 0 0 0z"/><path d="m205.41 44.48c-.11-.06-.22-.11-.35-.13-.12-.03-.26-.05-.41-.05-.54 0-.95.18-1.24.53s-.43.85-.43 1.51v3.05h-.96v-5.79h.96v.9c.2-.35.46-.61.78-.78s.71-.26 1.17-.26c.07 0 .14 0 .22.02.08 0 .17.02.26.04v.98s0 0 0 0z"/><path d="m208.83 49.92c-.27.69-.53 1.14-.79 1.35s-.6.32-1.02.32h-.76v-.8h.56c.26 0 .47-.06.61-.19.14-.12.31-.42.48-.88l.17-.43-2.34-5.7h1.01l1.81 4.53 1.81-4.53h1.01z"/></g></svg>