<svg height="23.934204mm" viewBox="0 0 126.08253 23.934204" width="126.08253mm" xmlns="http://www.w3.org/2000/svg"><g fill="#231f20" transform="translate(-42.036116 -81.681705)"><path d="m47.429206 89.674591c-.565962.872067-.774735 1.918758-.774735 2.96545 0 2.412647 1.192 4.597752 3.754472 4.597752 2.473325 0 3.694678-2.01048 3.694678-4.394552 0-1.685925-.417019-2.994378-1.281184-3.808236-.953452-.872067-2.026108-.900994-2.68164-.843139-1.311063.08749-2.085799.523522-2.711591 1.482725zm11.322932 2.993672c0 3.933119-2.264657 8.193967-8.343195 8.193967-4.380089 0-8.372827-2.443337-8.372827-8.193967 0-4.767791 3.009512-8.432447 8.968845-8.104363 6.346684.357364 7.747177 5.273322 7.747177 8.104363"/><path d="m99.433865 86.321439c.44697-.476956.745075-.83432 1.549405-1.22167.71509-.298097 1.72826-.535869 2.83069-.535869.92393 0 1.96674.148519 2.77107.595489 1.63901.863952 2.05634 2.26448 2.05634 4.677833v10.637658h-4.55894v-8.760175c0-1.400528-.03-1.907117-.20885-2.3241-.35771-.834319-1.16205-1.192036-2.05563-1.192036-2.413715 0-2.413715 1.93675-2.413715 3.8735v8.402811h-4.588578v-15.523983h4.618208z"/><path d="m88.077601 90.706466c-.08925-.655461-.208844-1.519766-.864304-2.204861-.566209-.566208-1.430163-.864305-2.234848-.864305-1.102432 0-1.876777.536575-2.323748 1.013177-.625827.685448-.775052 1.400528-.923925 2.055989zm4.558596 5.75063c-.420159.885472-1.773415 4.405134-7.747 4.405134-4.618567 0-7.86624-2.825748-7.86624-7.920917 0-3.754613 1.847498-8.377413 7.985477-8.377413.923925 0 3.60539-.114653 5.601758 2.030589 2.026005 2.175227 2.145242 5.214407 2.204863 6.972299h-11.113913c-.02998 1.93675 1.072446 3.873853 3.545771 3.873853 2.502959 0 3.366911-1.639006 3.933119-2.741436z"/><path d="m156.43818 88.173522h3.03918v-3.222625h-3.00955v-3.269192h-4.5586v3.269192h-.72319l-2.08703 3.222625h2.81022v7.385049c0 1.489428.0296 2.591858.65511 3.516136.98355 1.429813 2.71181 1.519413 4.29119 1.519413.83432 0 1.42981-.0896 2.41335-.23848v-3.575399l-1.63865.05927c-1.22167 0-1.22167-.804333-1.19203-1.757891z"/><path d="m110.92455 81.681705h4.5586v3.269192h4.73816l-2.08669 3.222625h-2.68111v6.908094c-.03.953558-.03 1.757891 1.19204 1.757891l1.63901-.05927v3.575403c-.9839.14887-1.57939.23848-2.41371.23848-1.57939 0-3.30764-.0896-4.29084-1.519417-.62582-.924278-.65546-2.026708-.65546-3.516136z"/><path d="m168.11865 88.173875h-.55316l.0194-1.99002.0289-.6604-.15558.543631-.66005 2.106789h-.50517l-.65018-2.106789-.16509-.534106.0388.650875.0194 1.99002h-.5436v-3.222978h.76693l.8061 2.543528.78599-2.543528h.76729zm-4.41784 0h-.56303v-2.747786h-1.03858v-.475192h2.62114v.475192h-1.01953z"/><path d="m130.28606 90.706466c-.0896-.655461-.20885-1.519766-.86431-2.204861-.56621-.566208-1.43016-.864305-2.23449-.864305-1.10244 0-1.87714.536575-2.3241 1.013177-.62583.685448-.7747 1.400528-.92393 2.055989zm4.29895 5.764389-.87313 1.348669c-.81703 1.198739-2.35479 3.042706-6.75922 3.042706-4.61857 0-7.72125-2.825748-7.72125-7.920917 0-3.754613 1.84715-8.377413 7.98548-8.377413.92357 0 3.60539-.114653 5.60176 2.030589 2.02635 2.175227 2.14524 5.214407 2.20521 6.972299h-11.11426c-.03 1.93675.92745 3.873853 3.40077 3.873853 2.50261 0 3.22157-1.639006 3.78778-2.741436z"/><path d="m150.20389 100.47665-5.69983-8.172101 4.75332-7.353652h-5.21758l-2.24367 3.471333-2.42146-3.471333h-5.21759l5.12939 7.353652-5.28249 8.172101h5.21758l2.77319-4.289429 2.99191 4.289429z"/><path d="m68.166824 88.145652c-.834319 0-1.698272.333023-2.353733 1.164873-.655814.804333-.953559 2.052108-.953559 3.411007 0 1.830211.536575 2.939345 1.102431 3.577167.529167.5969 1.310922.939094 2.055989.939094 2.234847 0 3.218038-2.35338 3.218038-4.627386 0-1.913466-.566208-3.937705-2.443339-4.381499-.208492-.05539-.417335-.08326-.625827-.08326zm-3.0988-1.824213c.438856-.66675 1.846086-1.757892 4.080933-1.757892 3.813881 0 6.496756 2.890308 6.496756 8.07473 0 3.188053-1.160991 8.223953-6.688314 8.223953-1.98755 0-3.529189-1.105603-3.919361-1.758242v6.511922h-4.58858v-20.665013h4.618566z"/></g></svg>