<svg viewBox="0 0 2390.6 500" xmlns="http://www.w3.org/2000/svg"><path d="m723.5 151.5c-58.8 0-74.9 50.9-74.9 104.2s16.8 103.7 74.9 103.7 74.1-49.7 74.1-103.7-16.1-104.2-74.1-104.2zm0 249.3c-84.3 0-122.5-64.3-122.5-145.1s39.2-145.8 122.7-145.8 122.3 64.2 122.3 145.8-36.9 145.1-122.3 145.1zm157.9-205.1c-.1-1.9 1.4-3.4 3.2-3.5h.6 36.5c1.9-.2 3.6 1.1 3.9 3v.8 123.5c0 29.8 11 42.8 35.7 42.8 32.1 0 49-29.8 49-58.1v-107.7c-.1-2.1 1.5-3.9 3.6-4h.3 36.5c2.3 0 3.5 1.2 3.5 4v194.4c.2 2-1.2 3.7-3.1 4-.2 0-.5 0-.7 0h-21.2c-2 .1-3.8-1-4.7-2.8-4-8.6-8.3-17.6-12.2-26.3-13.2 21.8-37.1 35-62.6 34.5-45.4 0-69-26.3-69-73.7zm200.1 32.1c-2 .2-3.7-1.3-3.9-3.3 0-.2 0-.4 0-.6v-27.8c-.2-2 1.3-3.7 3.3-3.9h.6 30.9v-36.5c-.1-2 1-3.8 2.8-4.7l37.3-17.7c2.7-1.5 4.7 0 4.7 2.8v56.1h47.4c1.9-.2 3.6 1.1 3.9 3v.8 28c.3 1.8-1 3.6-2.8 3.9-.4.1-.7.1-1.1 0h-47.8v104.3c0 19.2 7.9 28.2 25.1 28.2 8-.1 16-.8 24-2 1.9-.4 3.7.7 4.2 2.6 0 .2.1.4.1.6l2.8 27.4c.4 1.9-.7 3.7-2.6 4.2-.2 0-.4.1-.6.1-12 3.4-24.3 5.2-36.8 5.1-42.8 0-60.8-23.1-60.8-65.8v-104.8zm250.1-3.8c-36.9 0-51.8 29.8-51.8 66.6 0 44.6 14.5 72.9 51.4 72.9 32.9 0 49.7-28.5 49.7-69.6s-16-69.6-49.7-69.6zm95.2 69c0 60.8-29.8 107.4-87.5 107.4-22.7 1.2-44.5-8.6-58.8-26.3v93.7c0 2.4-1.2 3.6-3.9 3.6h-36.5c-2.3 0-3.5-1.2-3.5-4v-271.7c-.1-2 1.4-3.8 3.5-3.9h.4 24.4c2-.2 3.8 1.1 4.3 3.1l9.9 23.6c13.9-20.7 37.4-32.9 62.4-32.1 57.7 0 85.4 46.9 85.3 106.6zm121-69c-38 0-51.3 32.5-51.3 69s12.5 69.6 51.3 69.6 51.7-33.3 51.7-69.6-12.9-69-51.7-69zm0 176.4c-63.5 0-96.9-43.6-96.9-107s35.7-107 97.3-107c63.1 0 96.9 44.3 96.9 106.6s-34.9 107.4-97.3 107.4zm207.4 0c-45.1 0-85.9-19.9-89.5-65.1-.4-1.7.7-3.4 2.4-3.8.4-.1.7-.1 1.1-.1h35.3c2-.2 3.8 1.3 4 3.4v.2c3.9 21.9 22 30.5 47 30.5 26.7 0 42.4-8.3 42.4-27 0-22-23.2-24.4-53.4-29.8-43.5-3.9-73.7-23.1-73.7-59.7 0-40.8 36.9-63 83.1-63 50.6 0 80.3 25.5 83.5 60.8.3 1.8-.8 3.5-2.6 3.8-.3.1-.6.1-1 0h-34.1c-2.3 0-3.5-1.2-4.3-3.6-3.6-17.2-16.9-27.3-40.8-27.3-27 0-41.2 9.9-41.2 25.5s9.9 21.2 38 25.5c60.8 9.9 89.5 20.4 89.5 65 0 42.4-34.5 63.9-85.4 63.9zm102.8-172.6c-2 .2-3.7-1.3-3.9-3.3 0-.2 0-.4 0-.6v-27.8c-.2-2 1.3-3.7 3.3-3.9h.6 31v-36.5c-.1-2 .9-3.8 2.7-4.7l37.3-17.7c2.7-1.5 4.7 0 4.7 2.8v56.1h47.4c1.9-.2 3.6 1.1 3.9 3v.8 28c.2 1.9-1.1 3.6-3 3.9-.3 0-.6 0-.8 0h-47.6v104.3c0 19.2 7.9 28.2 25.1 28.2 8-.1 16-.8 24-2 1.9-.4 3.7.7 4.2 2.6 0 .2.1.4.1.6l2.8 27.4c.4 1.9-.7 3.7-2.6 4.2-.2 0-.4.1-.6.1-12 3.4-24.4 5.2-36.9 5.1-42.7 0-60.8-23.1-60.8-65.8v-104.8z" fill="#0f4a65"/><path d="m2018.3 395.3c-2.3 0-3.5-1.6-3.5-4v-19.2c.1-1.7.7-3.4 1.9-4.7 14.9-14.9 76.1-81.9 86.7-91.8 30.9-28.2 47.4-54.1 47.4-82.6 0-31.8-19.9-49.7-51-49.7-35.3 0-52.1 17.2-57.6 47.8-.1 2-1.8 3.6-3.9 3.5h-.1-19.9c-2.7 0-4.3-1.5-3.9-4.3 6.3-39.8 32.1-73.3 86.2-73.3 49 0 80.3 29.3 80.3 74.1 0 35.3-18 67-55.2 100.3-7.5 6.7-65.1 70.2-73 76.9h127.8c1.9-.3 3.7 1 4 2.9 0 .3.1.6 0 1v18.4c.1 2.1-1.5 3.9-3.6 4-.1 0-.3 0-.4 0h-161.9zm304.6-229.8-98 136.5h98zm-128.2 140.8c-.1-1.8.5-3.6 1.6-5.1l125-174.1c1.1-1.6 2.9-2.5 4.8-2.3h23.1c2.4 0 3.6 1.1 3.6 3.9v173.3h29.8c1.9-.3 3.7 1 4 2.9 0 .3.1.6 0 1v15.2c.2 2-1.2 3.7-3.1 4-.3 0-.6 0-.8 0h-30.7v66.2c0 2.4-1.2 3.6-4 3.6h-21.5c-2.1.1-3.9-1.5-4-3.6 0-.1 0-.3 0-.4v-66.2h-124c-2 .1-3.8-1.4-3.9-3.5 0-.1 0-.3 0-.4v-14.5zm-1941.8-191.7c-74.9 0-135.5 60.7-135.5 135.6s60.7 135.5 135.6 135.5 135.5-60.7 135.5-135.6c0-27-8.1-53.4-23.2-75.8-25.2-37.4-67.3-59.7-112.4-59.7zm0 286.9c-83.6-.1-151.3-67.9-151.3-151.4s67.9-151.4 151.5-151.3c83.5.1 151.2 67.7 151.3 151.3-.1 83.5-67.9 151.3-151.5 151.4z" fill="#1ac0c6"/><path d="m252.9 28.4c-122.4-.1-221.7 99.1-221.8 221.5s99 221.8 221.4 221.9 221.7-99.1 221.8-221.5c0-44.2-13.1-87.4-37.8-124-41.1-61.1-109.9-97.8-183.6-97.9zm0 459.1c-131.1-.1-237.3-106.4-237.3-237.5s106.4-237.3 237.5-237.3c131 .1 237.2 106.3 237.3 237.3-.2 131.1-106.4 237.3-237.5 237.5z" fill="#1ac0c6"/><g fill="#0f4a65"><path d="m252.9 498.6c-137.3.2-248.7-111-248.9-248.3-.2-119.7 85-222.5 202.7-244.6 15.3-2.8 30.7-4.3 46.2-4.3 32.4-.1 64.5 6.3 94.5 18.7l-14.9 35.3c-25.2-10.4-52.3-15.7-79.6-15.7-13.1 0-26.3 1.2-39.2 3.6-114.2 21.4-189.5 131.5-168 245.7s131.5 189.5 245.8 168 189.5-131.5 168-245.8c-5.3-28.1-16.2-54.8-32.2-78.5l31.7-22c76.9 113.8 47 268.3-66.7 345.2-41.1 27.9-89.7 42.7-139.4 42.7z"/><path d="m252.9 412.6c-89.8-.4-162.3-73.4-161.9-163.2.3-77.8 55.7-144.5 132.1-159.1 9.8-1.9 19.8-2.8 29.8-2.8 21.2 0 42.2 4.1 61.8 12.1l-14.5 35.4c-63.6-26-136.3 4.4-162.4 68.1s4.4 136.3 68.1 162.4c63.6 26 136.3-4.4 162.4-68.1 15.8-38.6 11.2-82.5-12.2-117l31.7-21.4c50.3 74.4 30.7 175.5-43.8 225.7-26.9 18.2-58.6 27.9-91.1 27.9z"/><path d="m252.9 269.9c-11 0-19.9-8.9-19.9-19.9s8.9-19.9 19.9-19.9 19.9 8.9 19.9 19.9-8.9 19.9-19.9 19.9zm0-93.1c-40.6 0-73.5 32.9-73.5 73.5s32.9 73.5 73.5 73.5 73.5-32.9 73.5-73.5c0-.1 0-.2 0-.3.1-40.5-32.7-73.3-73.2-73.4-.1 0-.2 0-.3 0z"/></g></svg>