<svg enable-background="new 0 0 250 54" height="54" viewBox="0 0 250 54" width="250" xmlns="http://www.w3.org/2000/svg"><path d="m52.3 25.8h-7v12.1h-4.6v-30.6h11.6c6 0 9.8 4 9.8 9.3s-3.9 9.2-9.8 9.2zm-.3-14.4h-6.7v10.2h6.7c3.3 0 5.4-1.9 5.4-5.1s-2.1-5.1-5.4-5.1z"/><path d="m78.5 35.6c-1.7 1.7-4.1 2.7-6.5 2.6-2.4.1-4.8-.9-6.5-2.6-2.1-2.2-2.6-4.9-2.6-8.6s.5-6.4 2.6-8.6c1.7-1.7 4.1-2.7 6.5-2.6 2.4-.1 4.8.9 6.5 2.6 2.1 2.2 2.6 4.9 2.6 8.6s-.5 6.4-2.6 8.6zm-3.3-14.6c-.9-.8-2-1.3-3.2-1.2-1.2 0-2.3.4-3.2 1.2-1.3 1.3-1.5 3.6-1.5 6s.2 4.6 1.5 6c.8.8 2 1.3 3.2 1.3s2.4-.4 3.2-1.3c1.3-1.3 1.5-3.6 1.5-6s-.2-4.7-1.5-6z"/><path d="m95.8 21.2c-1-1-1.8-1.5-3.3-1.5-2.4 0-4.3 1.9-4.3 4.9v13.3h-4.4v-21.8h4.3v2.4c1.1-1.6 3.4-2.6 5.8-2.6 1.9-.1 3.8.7 5.2 2.1z"/><path d="m108 37.9c-4.1 0-6-2.9-6-6.1v-12.3h-2.5v-3.3h2.5v-6.3h4.4v6.2h4.2v3.4h-4.2v12.2c0 1.6.8 2.5 2.4 2.5h1.8v3.7z"/><path d="m122.8 38.2c-4.6 0-7.9-1.1-10.8-4.1l3.1-3.1c2.2 2.2 4.8 3 7.9 3 4 0 6.3-1.7 6.3-4.7 0-1.4-.3-2.5-1.2-3.2-.8-.7-1.8-1.1-3.4-1.3l-3.6-.5c-2.5-.4-4.4-1.2-5.8-2.5-1.5-1.4-2.3-3.4-2.3-5.9 0-5.3 3.9-9 10.2-9 4.1 0 6.9 1 9.5 3.5l-2.9 2.9c-1.9-1.8-4.1-2.4-6.8-2.4-3.6 0-5.5 2-5.5 4.8-.1 1.1.3 2.1 1.1 2.8s1.7 1.1 3.4 1.4l3.7.5c2.8.4 4.3 1.1 5.7 2.3 1.6 1.5 2.5 3.6 2.5 6.3-.1 5.8-4.7 9.2-11.1 9.2z"/><path d="m157.5 37.9h-3.8l-5.1-15.2-5.1 15.2h-3.8l-6.7-21.8h4.6l4.2 15.4 5.1-15.4h3.4l5 15.4 4.2-15.4h4.7z"/><path d="m165.5 11.8v-4.7h4.6v4.6h-4.6zm.2 26.1v-21.8h4.4v21.8z"/><path d="m181.1 47c-3.3 0-5.4-.8-7.7-2.9l2.8-2.8c1.2 1.3 2.9 2 4.7 1.9 3.7 0 5.1-2.6 5.1-5.6v-2.8c-1.6 1.9-3.4 2.5-5.6 2.5-1.9.1-3.8-.6-5.2-1.9-2.1-2.1-2.5-5.2-2.5-8.9s.3-6.8 2.5-8.9c1.2-1.2 3.1-1.9 5.2-1.9 2.3 0 4.1.6 5.7 2.6v-2.3h4.3v21.7c0 5.4-3.5 9.3-9.3 9.3zm.5-27.2c-4 0-4.5 3.4-4.5 6.8s.5 6.8 4.5 6.8 4.4-3.4 4.4-6.8-.4-6.8-4.4-6.8z"/><path d="m201.6 47c-3.3 0-5.4-.8-7.7-2.9l2.8-2.8c1.2 1.3 2.9 2 4.7 1.9 3.7 0 5.1-2.6 5.1-5.6v-2.8c-1.6 1.9-3.4 2.5-5.6 2.5-1.9.1-3.8-.6-5.2-1.9-2.1-2.1-2.5-5.2-2.5-8.9s.3-6.8 2.5-8.9c1.2-1.2 3.1-1.9 5.2-1.9 2.3 0 4.1.6 5.7 2.6v-2.3h4.3v21.7c.1 5.4-3.5 9.3-9.3 9.3zm.5-27.2c-4 0-4.5 3.4-4.5 6.8s.5 6.8 4.5 6.8 4.4-3.4 4.4-6.8-.4-6.8-4.4-6.8z"/><path d="m218 28.3c0 3.8 1.9 6.1 5.5 6.1 2.5 0 3.7-.7 5.3-2.2l2.8 2.6c-2.2 2.2-4.3 3.4-8.2 3.4-5.5 0-9.8-2.9-9.8-11.2 0-7.1 3.7-11.1 9.3-11.1 5.9 0 9.3 4.2 9.3 10.6v1.9zm9.2-6c-1.1-2.4-3.9-3.4-6.3-2.3-1 .5-1.8 1.3-2.3 2.3-.4.9-.6 1.9-.6 3h9.8c0-1.1-.2-2.1-.6-3z"/><path d="m246.7 21.2c-1-1-1.8-1.5-3.3-1.5-2.4 0-4.3 1.9-4.3 4.9v13.3h-4.4v-21.8h4.3v2.4c1.1-1.6 3.4-2.6 5.8-2.6 2-.1 3.9.7 5.2 2.1z"/><path d="m0 7.1h30.9v30.9h-30.9z" fill="#f63"/><path d="m17.1 38.1h-3.3v-5l4.5-5.5h-4.5v-6.7h-8.1l8.1-10v-3.8h3.3v5l-4.5 5.5h4.5v6.7h8.1l-8.1 10z" fill="#fff"/></svg>