<svg viewBox="0 0 193 25" xmlns="http://www.w3.org/2000/svg"><path d="m75.2 9.6c-2.7-.4-3.3-.7-3.3-1.3s.8-1.1 2.5-1.1c1.4 0 2.9.4 4.1.9.3.1.6.3.9.4v-2.7h-.1c-1.4-.6-2.9-.9-4.9-.9-3.5 0-5.8 1.6-5.8 3.6 0 2.2 1.9 3 5.6 3.6 2.6.4 3.2.7 3.2 1.3 0 .7-.9 1.2-3.1 1.2-1.4 0-3-.4-4.3-.9-.3-.1-.8-.3-1.2-.6v2.7c.1 0 .2.1.3.1 1.6.6 3.3 1 5.4 1 3.4 0 6-1.4 6-3.7.2-2.2-1.6-3-5.3-3.6zm-42.8-4.5c3.2 0 5 1.5 5 3.9s-2 4-5.1 4h-3.4v3.6h-3v-11.5zm-3.6 5.6h3c1.9 0 2.6-.6 2.6-1.6s-.7-1.6-2.4-1.6h-3.2zm16.5 6h-3v-11.6h7.5c3.1 0 4.8 1.4 4.8 3.8 0 1.9-1.2 3.1-3 3.6l3.6 4.2h-3.4l-3.3-4h-3.1zm0-6.2h3.8c1.7 0 2.5-.5 2.5-1.5s-.7-1.5-2.4-1.5h-3.9zm18.1-5.4v11.6h-3v-11.6zm26.4 0 4 7.9h.1l4-7.9h4.4v11.6h-3v-8.7l-4.4 8.6h-2.1l-4.6-8.6v8.6h-2.8v-11.5zm27.5 9.5h-6.6l-1 2.1h-3.1l5.9-11.7h3.3l5.8 11.6h-3.2c-.1.1-1.1-2-1.1-2zm-5.5-2.1h4.5l-2.2-4.6z"/><path d="m121.7 6.1c0-.3-.2-.5-.5-.5h-.6v1.3h.3v-.4h.3l.2.4h.3l-.3-.5c.2 0 .3-.2.3-.3zm-.8-.2h.3c.2 0 .2.1.2.2s-.1.2-.2.2h-.3z" fill="#fff"/><path d="m121.2 4.9c-.8 0-1.4.6-1.4 1.4s.6 1.4 1.4 1.4 1.4-.6 1.4-1.4-.7-1.4-1.4-1.4zm0 2.6c-.7 0-1.2-.5-1.2-1.2s.5-1.2 1.2-1.2 1.2.5 1.2 1.2c-.1.7-.6 1.2-1.2 1.2z" fill="#fff"/><path d="m12.4 16.7v-11.6l6 11.6zm0-11.6-6 11.6h6v8.3l-12.4-12.5 6.3-6.4 1-1 5-5.1v5.1z" fill="#00bfe7"/><path d="m25.8 21.5h2c.6 0 1 .3 1 .8 0 .4-.1.6-.5.7.4.2.6.4.6.7 0 .6-.5.9-1.2.9h-1.9zm1.7 1.3c.3 0 .4-.1.4-.3s-.1-.3-.4-.3h-.8v.5h.8zm.1 1.1c.3 0 .4-.1.4-.3s-.1-.3-.4-.3h-.8v.6zm3.2-.2-1.4-2.1h1l.8 1.2.8-1.2h1l-1.4 2.1v1h-.9zm4.7-2.2h1.8c.8 0 1.2.4 1.2 1.2s-.5 1.2-1.2 1.2h-.8v.8h-.9zm1.6 1.6c.3 0 .4-.2.4-.4 0-.3-.1-.4-.4-.4h-.7v.9h.7zm2.9-1.6h1.5l1.1 3.1h-1l-.3-.6h-1.3l-.2.6h-1zm.3 1.8h.8l-.3-1h-.2zm3-1.8h.9v2.3h1.6v.8h-2.5zm3.2 1.6c0-1 .7-1.7 1.8-1.7s1.8.6 1.8 1.7c0 1-.7 1.7-1.8 1.7s-1.8-.7-1.8-1.7zm2.6 0c0-.5-.3-.9-.8-.9s-.8.3-.8.9c0 .5.3.9.8.9s.8-.4.8-.9zm4.4-1.6h1.5l1.1 3.1h-1l-.2-.6h-1.3l-.2.6h-1zm.3 1.8h.8l-.3-1h-.2zm3.1-1.8h.9v2.3h1.6v.8h-2.5zm3.8.8h-1.1v-.8h3v.8h-1.1v2.3h-.9zm2.7.8c0-1 .7-1.7 1.8-1.7s1.8.6 1.8 1.7c0 1-.7 1.7-1.8 1.7-1.2-.1-1.8-.7-1.8-1.7zm2.6 0c0-.5-.3-.9-.8-.9s-.8.3-.8.9c0 .5.3.9.8.9s.8-.4.8-.9zm3.5-1.6h1l1.3 1.8v-1.8h.9v3.1h-.9l-1.4-1.8v1.8h-.9zm4.3 0h2.7v.8h-1.8v.4h1.4v.7h-1.4v.5h1.9v.8h-2.8s0-3.2 0-3.2zm4.6.8h-1.1v-.8h3v.8h-1.1v2.3h-.9zm2.7-.8h1l.5 2.2.7-2.2h.9l.6 2.2.5-2.2h.9l-.8 3.1h-1.2l-.6-1.9-.6 1.9h-1.2zm5.9 1.6c0-1 .7-1.7 1.8-1.7s1.8.6 1.8 1.7c0 1-.7 1.7-1.8 1.7s-1.8-.7-1.8-1.7zm2.6 0c0-.5-.3-.9-.8-.9s-.8.3-.8.9c0 .5.3.9.8.9s.8-.4.8-.9zm1.8-1.6h1.8c.8 0 1.2.4 1.2 1.1 0 .5-.2.8-.6 1l.7 1h-1.1l-.4-.8h-.6v.8h-.9zm1.7 1.6c.3 0 .4-.2.4-.4s-.1-.4-.4-.4h-.8v.8zm2.3-1.6h.9v1.2h.4l.9-1.2h1l-1.1 1.5 1.3 1.6h-1.1l-.9-1.2h-.4v1.2h-.9c-.1.1-.1-3.1-.1-3.1zm4 2.9v-.9c.5.3 1 .4 1.5.4.3 0 .5-.1.5-.2s-.1-.2-.8-.3-1.2-.3-1.2-1c0-.6.5-1 1.5-1 .4 0 .8.1 1.2.2v.9c-.4-.2-.9-.3-1.3-.3s-.5.1-.5.2c0 .2.2.2.8.3.7.1 1.2.3 1.2 1 0 .5-.4 1-1.5 1-.5 0-1-.1-1.4-.3zm28.8-13.5c0-3.2 2.2-6.2 6.5-6.2 1.9 0 3.4.7 4.3 1.4v2.6c-1.2-.8-2.5-1.7-4.3-1.7-2.5 0-3.9 1.6-3.9 3.8s1.3 3.7 3.8 3.7c1.8 0 3.1-.7 4.3-1.6v2.6c-.8.6-2.4 1.3-4.5 1.3-4.3.1-6.2-2.7-6.2-5.9zm13.8-5.9h2.5v9.3h6.6l-.1 2.4h-9zm10.2 5.8c0-3.7 2.5-6.1 6.3-6.1s6.3 2.4 6.3 6.1-2.5 6.1-6.3 6.1-6.3-2.4-6.3-6.1zm10.1 0c0-2.4-1.3-3.8-3.7-3.8s-3.8 1.4-3.8 3.8 1.3 3.8 3.7 3.8 3.8-1.4 3.8-3.8zm5.3 1.4v-7.2h2.5v7c0 1.9 1.4 2.5 3 2.5 1.5 0 3-.6 3-2.4v-7.1h2.5v7.1c0 3.6-2.5 4.8-5.6 4.8s-5.4-1.3-5.4-4.7zm13.9-7.2h5.7c3.6 0 5.8 2.2 5.8 5.8s-2.2 5.8-5.8 5.8h-5.7zm5.7 9.4c2 0 3.2-1.1 3.2-3.5s-1.2-3.5-3.2-3.5h-3.1v7z" fill="#636363"/></svg>