<svg height="58" width="65.812" xmlns="http://www.w3.org/2000/svg"><g fill="#a29d86" stroke="#ccc" stroke-linejoin="bevel" stroke-width=".072694"><g transform="matrix(2.92733 0 0 2.92733 564.377 -156.012)"><path d="m-186.329 59.726 3.185 1.16v3.742l-3.185-1.159z" fill="#e9e9ff"/><path d="m-189.56 60.903v3.743l3.231-1.177v-3.743z" fill="#353564"/><path d="m-189.56 64.646 3.184 1.159 3.232-1.177-3.185-1.159z" fill="#afafde"/><path d="m-189.56 60.903 3.184 1.159 3.232-1.177-3.185-1.159z" fill="#f7f7f4"/><path d="m-186.376 62.062v3.743l3.232-1.177v-3.743z" fill="#fff"/><path d="m-189.56 60.903 3.184 1.159v3.743l-3.185-1.16z" fill="#efeeea"/></g><g transform="matrix(2.92733 0 0 2.92733 573.74 -163.673)"><path d="m-186.329 59.726 3.185 1.16v3.742l-3.185-1.159z" fill="#e9e9ff"/><path d="m-189.56 60.903v3.743l3.231-1.177v-3.743z" fill="#353564"/><path d="m-189.56 64.646 3.184 1.159 3.232-1.177-3.185-1.159z" fill="#afafde"/><path d="m-189.56 60.903 3.184 1.159 3.232-1.177-3.185-1.159z" fill="#f7f7f4"/><path d="m-186.376 62.062v3.743l3.232-1.177v-3.743z" fill="#fff"/><path d="m-189.56 60.903 3.184 1.159v3.743l-3.185-1.16z" fill="#efeeea"/></g><g transform="matrix(2.92733 0 0 2.92733 555.014 -141.542)"><path d="m-186.329 59.726 3.185 1.16v3.742l-3.185-1.159z" fill="#e9e9ff"/><path d="m-189.56 60.903v3.743l3.231-1.177v-3.743z" fill="#353564"/><path d="m-189.56 64.646 3.184 1.159 3.232-1.177-3.185-1.159z" fill="#afafde"/><path d="m-189.56 60.903 3.184 1.159 3.232-1.177-3.185-1.159z" fill="#f7f7f4"/><path d="m-186.376 62.062v3.743l3.232-1.177v-3.743z" fill="#fff"/><path d="m-189.56 60.903 3.184 1.159v3.743l-3.185-1.16z" fill="#efeeea"/></g><g transform="matrix(2.92733 0 0 2.92733 564.377 -138.137)"><path d="m-186.329 59.726 3.185 1.16v3.742l-3.185-1.159z" fill="#e9e9ff"/><path d="m-189.56 60.903v3.743l3.231-1.177v-3.743z" fill="#353564"/><path d="m-189.56 64.646 3.184 1.159 3.232-1.177-3.185-1.159z" fill="#afafde"/><path d="m-189.56 60.903 3.184 1.159 3.232-1.177-3.185-1.159z" fill="#f7f7f4"/><path d="m-186.376 62.062v3.743l3.232-1.177v-3.743z" fill="#fff"/><path d="m-189.56 60.903 3.184 1.159v3.743l-3.185-1.16z" fill="#efeeea"/></g><g transform="matrix(2.92733 0 0 2.92733 564.377 -149.203)"><path d="m-186.329 59.726 3.185 1.16v3.742l-3.185-1.159z" fill="#e9e9ff"/><path d="m-189.56 60.903v3.743l3.231-1.177v-3.743z" fill="#353564"/><path d="m-189.56 64.646 3.184 1.159 3.232-1.177-3.185-1.159z" fill="#afafde"/><path d="m-189.56 60.903 3.184 1.159 3.232-1.177-3.185-1.159z" fill="#f7f7f4"/><path d="m-186.376 62.062v3.743l3.232-1.177v-3.743z" fill="#fff"/><path d="m-189.56 60.903 3.184 1.159v3.743l-3.185-1.16z" fill="#efeeea"/></g><g transform="matrix(2.92733 0 0 2.92733 601.83 -144.947)"><path d="m-186.329 59.726 3.185 1.16v3.742l-3.185-1.159z" fill="#e9e9ff"/><path d="m-189.56 60.903v3.743l3.231-1.177v-3.743z" fill="#353564"/><path d="m-189.56 64.646 3.184 1.159 3.232-1.177-3.185-1.159z" fill="#afafde"/><path d="m-189.56 60.903 3.184 1.159 3.232-1.177-3.185-1.159z" fill="#f7f7f4"/><path d="m-186.376 62.062v3.743l3.232-1.177v-3.743z" fill="#fff"/><path d="m-189.56 60.903 3.184 1.159v3.743l-3.185-1.16z" fill="#efeeea"/></g><g transform="matrix(2.92732719 0 0 2.92732719 592.462926 -141.543195)"><path d="m-186.329 59.726 3.185 1.16v3.742l-3.185-1.159z" fill="#e9e9ff"/><path d="m-189.56 60.903v3.743l3.231-1.177v-3.743z" fill="#353564"/><path d="m-189.56 64.646 3.184 1.159 3.232-1.177-3.185-1.159z" fill="#afafde"/><path d="m-189.56 60.903 3.184 1.159 3.232-1.177-3.185-1.159z" fill="#f7f7f4"/><path d="m-186.376 62.062v3.743l3.232-1.177v-3.743z" fill="#ffd242"/><path d="m-189.56 60.903 3.184 1.159v3.743l-3.185-1.16z" fill="#efeeea"/></g></g><circle cx="2835.218" cy="1823.899" fill="#fff" r="2.967" transform="matrix(.61246827 -.22292022 0 .65177 -1683.66 -513.275)"/><g fill="#a29d86" stroke="#ccc" stroke-linejoin="bevel" stroke-width=".072694"><g transform="matrix(2.92733 0 0 2.92733 583.104 -138.137)"><path d="m-186.329 59.726 3.185 1.16v3.742l-3.185-1.159z" fill="#e9e9ff"/><path d="m-189.56 60.903v3.743l3.231-1.177v-3.743z" fill="#353564"/><path d="m-189.56 64.646 3.184 1.159 3.232-1.177-3.185-1.159z" fill="#afafde"/><path d="m-189.56 60.903 3.184 1.159 3.232-1.177-3.185-1.159z" fill="#f7f7f4"/><path d="m-186.376 62.062v3.743l3.232-1.177v-3.743z" fill="#ffd242"/><path d="m-189.56 60.903 3.184 1.159v3.743l-3.185-1.16z" fill="#efeeea"/></g><g transform="matrix(2.92733 0 0 2.92733 573.74 -134.732)"><path d="m-186.329 59.726 3.185 1.16v3.742l-3.185-1.159z" fill="#e9e9ff"/><path d="m-189.56 60.903v3.743l3.231-1.177v-3.743z" fill="#353564"/><path d="m-189.56 64.646 3.184 1.159 3.232-1.177-3.185-1.159z" fill="#afafde"/><path d="m-189.56 60.903 3.184 1.159 3.232-1.177-3.185-1.159z" fill="#f7f7f4"/><path d="m-186.376 62.062v3.743l3.232-1.177v-3.743z" fill="#fff"/><path d="m-189.56 60.903 3.184 1.159v3.743l-3.185-1.16z" fill="#efeeea"/></g><g transform="matrix(2.92733 0 0 2.92733 601.83 -156.012)"><path d="m-186.329 59.726 3.185 1.16v3.742l-3.185-1.159z" fill="#e9e9ff"/><path d="m-189.56 60.903v3.743l3.231-1.177v-3.743z" fill="#353564"/><path d="m-189.56 64.646 3.184 1.159 3.232-1.177-3.185-1.159z" fill="#afafde"/><path d="m-189.56 60.903 3.184 1.159 3.232-1.177-3.185-1.159z" fill="#f7f7f4"/><path d="m-186.376 62.062v3.743l3.232-1.177v-3.743z" fill="#ffd242"/><path d="m-189.56 60.903 3.184 1.159v3.743l-3.185-1.16z" fill="#efeeea"/></g><g transform="matrix(2.92733 0 0 2.92733 601.83 -167.078)"><path d="m-186.329 59.726 3.185 1.16v3.742l-3.185-1.159z" fill="#e9e9ff"/><path d="m-189.56 60.903v3.743l3.231-1.177v-3.743z" fill="#353564"/><path d="m-189.56 64.646 3.184 1.159 3.232-1.177-3.185-1.159z" fill="#afafde"/><path d="m-189.56 60.903 3.184 1.159 3.232-1.177-3.185-1.159z" fill="#ffc91d"/><path d="m-186.376 62.062v3.743l3.232-1.177v-3.743z" fill="#ffd242"/><path d="m-189.56 60.903 3.184 1.159v3.743l-3.185-1.16z" fill="#efeeea"/></g><g transform="matrix(2.92733 0 0 2.92733 592.467 -152.608)"><path d="m-186.329 59.726 3.185 1.16v3.742l-3.185-1.159z" fill="#e9e9ff"/><path d="m-189.56 60.903v3.743l3.231-1.177v-3.743z" fill="#353564"/><path d="m-189.56 64.646 3.184 1.159 3.232-1.177-3.185-1.159z" fill="#afafde"/><path d="m-189.56 60.903 3.184 1.159 3.232-1.177-3.185-1.159z" fill="#f7f7f4"/><path d="m-186.376 62.062v3.743l3.232-1.177v-3.743z" fill="#ffd242"/><path d="m-189.56 60.903 3.184 1.159v3.743l-3.185-1.16z" fill="#efeeea"/></g><g transform="matrix(2.92733 0 0 2.92733 592.467 -163.673)"><path d="m-186.329 59.726 3.185 1.16v3.742l-3.185-1.159z" fill="#e9e9ff"/><path d="m-189.56 60.903v3.743l3.231-1.177v-3.743z" fill="#353564"/><path d="m-189.56 64.646 3.184 1.159 3.232-1.177-3.185-1.159z" fill="#afafde"/><path d="m-189.56 60.903 3.184 1.159 3.232-1.177-3.185-1.159z" fill="#f7f7f4"/><path d="m-186.376 62.062v3.743l3.232-1.177v-3.743z" fill="#3775a9"/><path d="m-189.56 60.903 3.184 1.159v3.743l-3.185-1.16z" fill="#efeeea"/></g><g transform="matrix(2.92733 0 0 2.92733 592.467 -174.739)"><path d="m-186.329 59.726 3.185 1.16v3.742l-3.185-1.159z" fill="#e9e9ff"/><path d="m-189.56 60.903v3.743l3.231-1.177v-3.743z" fill="#353564"/><path d="m-189.56 64.646 3.184 1.159 3.232-1.177-3.185-1.159z" fill="#afafde"/><path d="m-189.56 60.903 3.184 1.159 3.232-1.177-3.185-1.159z" fill="#2f6491"/><path d="m-186.376 62.062v3.743l3.232-1.177v-3.743z" fill="#3775a9"/><path d="m-189.56 60.903 3.184 1.159v3.743l-3.185-1.16z" fill="#efeeea"/></g><g transform="matrix(2.92733 0 0 2.92733 583.104 -149.203)"><path d="m-186.329 59.726 3.185 1.16v3.742l-3.185-1.159z" fill="#e9e9ff"/><path d="m-189.56 60.903v3.743l3.231-1.177v-3.743z" fill="#353564"/><path d="m-189.56 64.646 3.184 1.159 3.232-1.177-3.185-1.159z" fill="#afafde"/><path d="m-189.56 60.903 3.184 1.159 3.232-1.177-3.185-1.159z" fill="#f7f7f4"/><path d="m-186.376 62.062v3.743l3.232-1.177v-3.743z" fill="#ffd242"/><path d="m-189.56 60.903 3.184 1.159v3.743l-3.185-1.16z" fill="#efeeea"/></g><g transform="matrix(2.92733 0 0 2.92733 583.104 -160.268)"><path d="m-186.329 59.726 3.185 1.16v3.742l-3.185-1.159z" fill="#e9e9ff"/><path d="m-189.56 60.903v3.743l3.231-1.177v-3.743z" fill="#353564"/><path d="m-189.56 64.646 3.184 1.159 3.232-1.177-3.185-1.159z" fill="#afafde"/><path d="m-189.56 60.903 3.184 1.159 3.232-1.177-3.185-1.159z" fill="#f7f7f4"/><path d="m-186.376 62.062v3.743l3.232-1.177v-3.743z" fill="#3775a9"/><path d="m-189.56 60.903 3.184 1.159v3.743l-3.185-1.16z" fill="#efeeea"/></g><g transform="matrix(2.92733 0 0 2.92733 573.74 -145.798)"><path d="m-186.329 59.726 3.185 1.16v3.742l-3.185-1.159z" fill="#e9e9ff"/><path d="m-189.56 60.903v3.743l3.231-1.177v-3.743z" fill="#353564"/><path d="m-189.56 64.646 3.184 1.159 3.232-1.177-3.185-1.159z" fill="#afafde"/><path d="m-189.56 60.903 3.184 1.159 3.232-1.177-3.185-1.159z" fill="#f7f7f4"/><path d="m-186.376 62.062v3.743l3.232-1.177v-3.743z" fill="#3775a9"/><path d="m-189.56 60.903 3.184 1.159v3.743l-3.185-1.16z" fill="#2f6491"/></g><g transform="matrix(2.92733 0 0 2.92733 573.74 -156.864)"><path d="m-186.329 59.726 3.185 1.16v3.742l-3.185-1.159z" fill="#e9e9ff"/><path d="m-189.56 60.903v3.743l3.231-1.177v-3.743z" fill="#353564"/><path d="m-189.56 64.646 3.184 1.159 3.232-1.177-3.185-1.159z" fill="#afafde"/><path d="m-189.56 60.903 3.184 1.159 3.232-1.177-3.185-1.159z" fill="#2f6491"/><path d="m-186.376 62.062v3.743l3.232-1.177v-3.743z" fill="#3775a9"/><path d="m-189.56 60.903 3.184 1.159v3.743l-3.185-1.16z" fill="#2f6491"/></g></g><g fill="#a29d86" stroke="#ccc" stroke-linejoin="bevel" stroke-width=".072694" transform="matrix(2.92732719 0 0 2.92732719 583.099598 -171.33495)"><path d="m-186.329 59.726 3.185 1.16v3.742l-3.185-1.159z" fill="#e9e9ff"/><path d="m-189.56 60.903v3.743l3.231-1.177v-3.743z" fill="#353564"/><path d="m-189.56 64.646 3.184 1.159 3.232-1.177-3.185-1.159z" fill="#afafde"/><path d="m-189.56 60.903 3.184 1.159 3.232-1.177-3.185-1.159z" fill="#2f6491"/><path d="m-186.376 62.062v3.743l3.232-1.177v-3.743z" fill="#3775a9"/><path d="m-189.56 60.903 3.184 1.159v3.743l-3.185-1.16z" fill="#2f6491"/></g><circle cx="2816.017" cy="1772.922" fill="#fff" r="2.967" transform="matrix(.61246827 -.22292022 0 .65177 -1683.66 -513.275)"/></svg>