<svg viewBox="0 0 272 46" xmlns="http://www.w3.org/2000/svg"><path d="m28.25 20.57h-11.17l2.42-10.95h10.33c3.4 0 5.4 1.83 5.4 4.5 0 3.52-2.58 6.45-6.98 6.45m18.43-7.53c0-7.52-5.8-13.04-15.94-13.04h-20.64l-10.1 46h11.5l3.48-15.8h6.73l6.69 15.8h11.47l-7.13-16.56c8.55-1.34 13.94-8.2 13.94-16.4"/><path d="m66.52 28.78 9.86-16.96 3.73 16.96zm5.2-28.78-26.72 46h11.47l4.47-7.63h21.28l1.68 7.63h11.47l-10.07-46zm56.58 20.57h-10.2l2.4-10.95h8.88c3.5 0 5.65 1.67 5.65 4.5 0 3.52-2.65 6.45-6.72 6.45m2.24-20.57h-19.45l-10.1 46h11.48l3.5-15.82h12.82c10.96 0 17.6-8.26 17.6-16.97 0-7.76-6.05-13.2-15.86-13.2"/><path d="m168.62 0h-11.5l-10.12 46h11.5z"/><path d="m250.98 0h-36.26c.55.56 1.1 1.14 1.6 1.75 4.06 4.92 6.2 11.1 6.2 17.9 0 10.5-4.42 19.97-11.52 26.35h22.2l10.55-26.22h-13.2l2.2-10.17h26.22l-13.77 36.39h5.4c12.57.08 21.07-10.36 21.07-23.04s-8.1-22.96-20.7-22.96" fill="#e85e26"/><path d="m186.96 36.4h-6.35l5.9-26.78h6c6.58 0 10.27 4.93 10.27 11.1 0 8.3-5.92 15.68-15.8 15.68m23.02-28.9c-3.94-4.8-10.45-7.5-18.13-7.5h-14.74l-10.13 46h18.55c7.2 0 12.74-1.6 16.97-4.15 8.6-5.22 11.65-14.4 11.65-22.2 0-4.86-1.52-8.98-4.16-12.15"/></svg>