<svg viewBox="0 0 283.73 146.64" xmlns="http://www.w3.org/2000/svg" xmlns:xlink="http://www.w3.org/1999/xlink"><mask id="a" height="10.03" maskUnits="userSpaceOnUse" width="14.4" x="39.16" y="100.21"><path d="m43.56 109c-1.79-1.34-3.63-3-3.63-4.33 0-.85 1.53-3.47 1.53-3.47h11.37s1.49 2.32 1.49 3.47-1.85 2.85-3.71 4.19c-.63-1.07-1.43-1.25-1.8-.41a3.36 3.36 0 0 0 -.14 1.72c-1 .64-1.74 1-1.74 1s-.57-.32-1.39-.85a3.53 3.53 0 0 0 -.1-1.92c-.38-.86-1.19-.65-1.83.45z" fill="#fff" transform="translate(-.76 -.99)"/></mask><g transform="translate(-.76 -.99)"><path d="m256.23 81.86h-1.1v19.06h-13.7v-47.47l13.7-21.4v44.29c2.72-3.34 11.9-16 11.9-16h16.91l-16 17 16.55 23.66h-17.29zm-38.16-3.12 5.62-18.29h13.56l-15.9 40.34c-4.73 12.13-11.52 20.34-21.64 20.34a19.29 19.29 0 0 1 -8.89-2l5.45-8.43a22.86 22.86 0 0 0 2.5.13c4.67 0 8.18-4.54 10.45-9.93l-16.68-40.45h15.35l6 18.07a68.49 68.49 0 0 1 2 10 94.51 94.51 0 0 1 2.18-9.78zm-41.36-.94c0-5.28-2.34-7.78-6.78-7.78a12.24 12.24 0 0 0 -6 1.56v29.34h-13.7v-40.08l13.4-1.1-.32 6.55h.45a17 17 0 0 1 13.63-6.84c7 0 13.07 4.34 13.07 14.62v26.85h-13.75zm-65.71 21.05 1.23-9.34a30.84 30.84 0 0 0 13.17 3.11c3 0 4.9-1 4.9-2.79 0-5.12-18.46-3.89-18.46-17.28 0-8.56 7.85-13.07 17.69-13.07a41.75 41.75 0 0 1 13.27 2.52l-1.33 9.17a36.24 36.24 0 0 0 -12-2.56c-2.4 0-4.35.85-4.35 2.4 0 5.06 18.85 4.06 18.85 17.12 0 8.69-7.72 13.69-18.3 13.69a33.19 33.19 0 0 1 -14.67-2.97z" fill="#091c30"/><path d="m81.23 39.68h-68.11q0-6.41 18.47-38.69s1.71 11.35 5.12 34.06h20.8l5.11-34.05q18.62 32.71 18.61 38.68z" fill="#fff"/><path d="m47.07 147.62-46.31-32.48v-75.8s17.13-6.34 46.37-6.34 46.25 6.33 46.25 6.33v75.8z" fill="#fff"/><path d="m47.07 143.06-43.35-30.28v-70.4s16.21-5.88 43.35-5.88z" fill="#dbdbdb"/><path d="m47.13 36.5h-.06v106.5l43-30.19v-70.43s-15.8-5.88-42.94-5.88z" fill="#c6c6c6"/><path d="m70.53 126.49-3.65-31.8h-20.1v48.44l.29.27q11.73-8.02 23.46-16.91z" fill="#3b3b63"/><path d="m23.63 126.74 23.44 16.66v-49.67h-20.29z" fill="#53537a"/><path d="m57.11 117.33c0 5.46-5.18 8.17-9.93 8.17s-10-2.71-10-8.17" fill="#bc9375"/><path d="m47.12 120.16c-3.81 0-5.66-2.76-5.66-8.43h1.81c0 6.64 2.6 6.64 3.85 6.64s3.85 0 3.85-6.64h1.82c0 5.67-1.85 8.43-5.67 8.43z" fill="#fff"/><path d="m47.07 113.11a6.69 6.69 0 0 0 6.81 4.56 8.59 8.59 0 0 0 8.29-5.92c2.19-5.9 2.17-14.12 2.17-14.12s9.71-12 9.71-16h-27z" fill="#c49a7e"/><path d="m19.71 81.61c0 4.69 9.63 16 9.63 16s0 8.21 2.16 14.12a8.6 8.6 0 0 0 8.3 5.92 7.55 7.55 0 0 0 7.27-4.56v-31.48z" fill="#d8b7a0"/><path d="m72.89 54.64c-7.49-7.56-9.36-23.32-9.36-23.32-1.4 5-4.44 19.61-4.44 19.61a46 46 0 0 0 -12.25-1.93q-.31 0 0 59.21l6-4.31 1.16-20.9 6.44 7.24 8.31 2.39 3.1-2.17a15.77 15.77 0 0 0 2.08-4.17c1.16-2.9-1.43-25.29-1.43-25.29-.92-1.87.39-6.36.39-6.36z" fill="#3b3b63"/><path d="m35.21 50.93s-3-14.65-4.43-19.62c0 0-1.87 15.77-9.36 23.33 0 0 1.31 4.48.39 6.38 0 0-2.59 22.37-1.44 25.29a15.64 15.64 0 0 0 2.08 4.18l3.1 2.17 8.3-2.39 6.44-7.27 1.13 20.91 5.66 4.19v-59.17a39.19 39.19 0 0 0 -11.87 2z" fill="#53537a"/><path d="m67.65 16.7c1.24 2.3 11.92 23.36 11.92 30.66l-4.74 12.71c.8 7.17 2.4 22.75 1.19 25.79-.74 1.88-3.57 5.76-6 8.89l3.31 29.77-4.48 3.17-2.48-21.75a35.81 35.81 0 0 1 -1.64 6.68 11.27 11.27 0 0 1 -5.22 6.18c-.13 6.72-6.42 10.34-12.34 10.34s-12.31-3.62-12.45-10.33a11.3 11.3 0 0 1 -5.23-6.19 35.26 35.26 0 0 1 -1.6-6.42l-2.38 21.89-4.51-3.23 3.25-30c-2.44-3.15-5.33-7.08-6.08-9-1.2-3 .33-18.62 1.14-25.79l-5-13.15v-.43c0-7.3 11-27.51 12.2-29.79l3.55-6.4q3.24 22.25 3.24 22.27l1.75 12 2.29 3.72a32.61 32.61 0 0 1 9.76-1.75 33 33 0 0 1 9.8 1.75l2.29-3.72 5-34.29zm-20.47 107.67c2.62 0 6.35-1.17 7.28-4.27h-.29a11.09 11.09 0 0 1 -1.45-.11 6.54 6.54 0 0 1 -5.6 2.41 6.52 6.52 0 0 1 -5.58-2.4 9.69 9.69 0 0 1 -1.46.12h-.29c.94 3.08 4.73 4.25 7.39 4.25zm-3.07-5.09a5.34 5.34 0 0 0 6 0 9.83 9.83 0 0 1 -1.75-1 4.18 4.18 0 0 1 -1.26.13 4.71 4.71 0 0 1 -1.27-.13 9.39 9.39 0 0 1 -1.72 1zm18.62-23.09c3.27-3.94 8.07-10.28 8.78-12.06.49-1.82-.38-13.94-1.51-24.13l-.06-.56 1-2.52c-3.13-3.29-5.32-7.8-6.81-12.05l-.2 1.33-4.94 8-1.99-.77a30 30 0 0 0 -9.88-2.1 29.38 29.38 0 0 0 -9.83 2.1l-1.93.81-5-8-.15-1c-1.51 4.21-3.7 8.64-6.82 11.86l.91 2.4-.06.57c-1.15 10.15-2.06 22.27-1.51 24.14s5.53 8.08 8.75 12l.54.66v.84c0 .08 0 7.87 2 13.29a6.2 6.2 0 0 0 6 4.36 5.52 5.52 0 0 0 4.8-3.14c.78-1.51 1.17-4 1.17-7.45h2a21.08 21.08 0 0 0 1.25 7.47 5.63 5.63 0 0 0 4.85 3.12 6.2 6.2 0 0 0 6-4.35c2-5.44 2-13.22 2-13.3v-.84z" fill="#333152"/><path d="m62.19 75h-9.7v.1a6.37 6.37 0 0 0 12.73 0v-.1z" fill="#333152"/><path d="m54.91 75v.1a3.64 3.64 0 0 0 7.28 0v-.1z" fill="#fff"/><path d="m58 75c.21 0 .33.51.28.82a1 1 0 0 1 -1 .83 1.57 1.57 0 0 0 1.34 1.22 1.6 1.6 0 0 0 1.82-1.34c.09-.64-.22-1.55-.74-1.55z" fill="#333152"/><path d="m38.78 75h-9.7v.1a6.37 6.37 0 0 0 12.73 0v-.1z" fill="#333152"/><path d="m31.51 75v.1a3.64 3.64 0 0 0 7.27 0v-.1z" fill="#fff"/><path d="m36.26 75h-1.7-.05c.22 0 .33.51.29.82a1 1 0 0 1 -1 .83 1.62 1.62 0 0 0 3.2-.09c.1-.64-.21-1.56-.74-1.56z" fill="#333152"/><path d="m61.45 72.17c.41-.44 3.87-4.3-.76-4.3-4.17 0-7.18 3.32-8 4.3z" fill="#c49a7e"/><path d="m41.51 72.17c-.79-1-3.8-4.3-8-4.3-4.62 0-1.16 3.86-.76 4.3z" fill="#d8b7a0"/><path d="m19.29 46.1c.27-3.79 4.28-12.86 8.1-20.5l1 7c-.39 2.6-2.15 12.85-6.91 19.31z" fill="#d8b7a0"/><path d="m65.93 32 .93-6.44c3.82 7.64 7.83 16.71 8.1 20.5l-2.14 5.68c-5.14-7.08-6.76-18.64-6.89-19.74z" fill="#c49a7e"/></g><g mask="url(#a)"><path d="m43.56 109c-1.79-1.34-3.63-3-3.63-4.33 0-.85 1.53-3.47 1.53-3.47h11.37s1.49 2.32 1.49 3.47-1.85 2.85-3.71 4.19c-.63-1.07-1.43-1.25-1.8-.41a3.36 3.36 0 0 0 -.14 1.72c-1 .64-1.74 1-1.74 1s-.57-.32-1.39-.85a3.53 3.53 0 0 0 -.1-1.92c-.38-.86-1.19-.65-1.83.45z" fill="#333152" transform="translate(-.76 -.99)"/></g></svg>