<svg viewBox="0 0 256 64" xmlns="http://www.w3.org/2000/svg"><g fill="#fd3456"><path d="m53.34 27.4c.02-5-.92-9.96-2.77-14.6-.38.16-.66.3-.86.4-.41.21-.74.54-.95.95s-.3.87-.24 1.32c.24 2.03.36 4.08.36 6.12 0 9.35-3.02 18.32-8.5 25.26-5.19 6.56-12.14 10.77-19.71 11.98l.07.04c2.18 1.24 4.64 1.93 7.15 2 2.51.08 5-.46 7.26-1.57 10.68-5.24 18.2-17.56 18.2-31.9z"/><path d="m55.43 11.84c-.66-.02-1.33.02-1.98.13 1.92 4.92 2.89 10.15 2.87 15.43 0 16.07-8.96 30.34-22.03 35.54.66.04 1.32.07 1.99.07h.1c3.12-.01 6.19-.72 9-2.07s5.28-3.31 7.24-5.73c5.01-6.2 8.08-14.54 8.08-23.69.05-6.91-1.77-13.71-5.27-19.67z"/><path d="m67.77 31.51c0-4.14-.81-8.25-2.4-12.08-.69-1.72-1.72-3.28-3.03-4.59-.7-.71-1.5-1.31-2.38-1.78-.22-.11-.45-.22-.67-.31 2.89 5.83 4.38 12.25 4.36 18.75 0 9.3-3.03 18.26-8.42 25.13 3.89-2.93 7.05-6.72 9.23-11.08 2.17-4.36 3.31-9.17 3.3-14.04z"/></g><g fill="#2a0142"><path d="m58.88 9.57c-2.93-3.03-6.44-5.44-10.32-7.08-3.88-1.65-8.05-2.49-12.26-2.49-17.41 0-31.67 14.42-31.49 31.83.04 4.13.89 8.21 2.51 12-.52-.07-1.04-.09-1.57-.07-1.41.07-3.41-.44-4.31-.7-.9-.25-1.71.47-1.34 1.31v.03c3.13 7.16 10.06 11.82 16.68 11.81.44 0 .88-.02 1.32-.07 15.5-1.18 27.79-16.22 27.79-34.55 0-1.16-.05-2.3-.15-3.44-.01-.14-.07-.27-.15-.37-.09-.11-.21-.18-.34-.22s-.27-.03-.4.01-.25.13-.33.24c-4.29 5.67-10.64 15.65-18.58 10.45-3.06-1.99-4.69-6.28-3.77-10.65 1.65-7.84 10.79-13.01 14.82-11.39.31.13 1.45.58 1.83 1.61.59 1.58-1.19 2.87-2.09 5.67-.98 3.02-.42 6.23.26 6.37.77.15 2.05-2.65 5.21-5.21 2.3-1.85 4.03-2.37 5.11-4.33 1.05-1.91-.82-3.93-.18-4.11s1.23 2.02 3.12 3.12c1.58.92 2.99.34 5.07.26.77 0 1.54.05 2.3.18 0 0 .41.06 1.05.19.05.01.1 0 .15 0 .05-.02.09-.05.11-.1.03-.04.04-.09.03-.14 0-.05-.02-.1-.06-.14zm-23.48 24.28c.35-.47.86-.78 1.44-.87.25-.04.5-.02.74.05s.47.18.66.34c.77.71.54 2.08-.12 2.87-.61.73-1.82 1.21-2.66.67-.23-.18-.42-.41-.55-.68s-.19-.56-.19-.85c.02-.57.26-1.11.67-1.52z"/><path d="m84.68 15.58s-6.75 0-6.75 6.75v7.69s0 6.75 6.75 6.75h18.37v7.69h-17.64c-6.71 0-6.75 6.75-6.75 6.75h24.76s6.75 0 6.75-6.75v-7.69s0-6.75-6.75-6.75h-18.37v-7.69h17.26c6.7 0 6.75-6.75 6.75-6.75z"/><path d="m139.63 15.58h-18.75c-6.75 0-6.75 6.75-6.75 6.75v22.14c0 6.75 6.75 6.75 6.75 6.75h18.75c6.75 0 6.75-6.75 6.75-6.75v-22.14c0-6.75-6.75-6.75-6.75-6.75zm-.38 28.88h-17.99v-22.14h17.99z"/><path d="m150.7 15.96v34.89h7.13v-28.51s0-6.37-7.13-6.37z"/><path d="m176.21 15.58h-11.63c-6.75 0-6.75 6.75-6.75 6.75h17.99v28.51h7.16v-28.51c0-6.75-6.76-6.75-6.76-6.75z"/><path d="m195.15 15.58h-6.75c0 6.72 6.75 6.75 6.75 6.75h17.26v6.94h-18.37s-6.75 0-6.75 6.75v8.44s0 6.75 6.75 6.75h12.01s6.38 0 6.38-6.75h-18.01v-8.72h18.01v8.72s.18 6.38 7.13 6.38v-28.51s0-6.75-6.75-6.75h-17.64z"/><path d="m224.49 15.96v34.89h7.13v-28.51c0-6.38-7.13-6.37-7.13-6.37z"/><path d="m238.37 15.58c-6.75 0-6.75 6.75-6.75 6.75h17.63s6.75 0 6.75-6.75z"/></g></svg>