<svg viewBox="0 0 180 165" xmlns="http://www.w3.org/2000/svg"><path d="m148.46 130.73h-13.56c-1.04 0-1.9-.85-1.9-1.9v-6.85h13.08c1.12 0 2.04-.91 2.04-2.04s-.91-2.04-2.04-2.04h-13.08v-6.74c0-1.05.85-1.9 1.9-1.9h13.56c1.18 0 2.14-.96 2.14-2.14s-.96-2.14-2.14-2.14h-13.56c-3.4 0-6.17 2.77-6.17 6.17v17.66c0 3.4 2.77 6.17 6.17 6.17h13.56c1.18 0 2.14-.96 2.14-2.14s-.96-2.14-2.14-2.14m-39.86-12.76c-2.86-.51-4.86-1.12-5.97-1.83s-1.67-1.67-1.67-2.87c0-1.3.57-2.36 1.72-3.19s2.76-1.24 4.84-1.24 3.8.41 5.07 1.22c.68.44 1.3 1.02 1.86 1.75.83 1.07 2.38 1.21 3.39.31.95-.85 1.03-2.32.18-3.27-1.03-1.15-2.2-2.06-3.51-2.73-1.95-1-4.29-1.49-7.04-1.49-2.36 0-4.41.41-6.18 1.22-1.76.81-3.12 1.92-4.05 3.3-.94 1.39-1.4 2.93-1.4 4.62 0 1.6.37 2.96 1.11 4.07.74 1.12 1.92 2.05 3.55 2.81 1.63.75 3.82 1.39 6.56 1.9 2.75.51 4.67 1.1 5.77 1.76 1.1.67 1.65 1.54 1.65 2.62 0 1.36-.61 2.41-1.83 3.15s-2.9 1.11-5.04 1.11c-2.26 0-4.16-.42-5.68-1.27-.87-.48-1.65-1.12-2.34-1.92-.87-1.01-2.42-1.03-3.36-.09-.86.87-.93 2.26-.11 3.16 2.58 2.88 6.43 4.32 11.55 4.32 2.35 0 4.43-.35 6.22-1.06s3.19-1.73 4.18-3.05c1-1.33 1.49-2.87 1.49-4.62 0-1.63-.36-2.99-1.09-4.1-.73-1.1-1.88-2.02-3.46-2.76s-3.72-1.35-6.4-1.83m-66.83.01c-2.87-.52-4.86-1.12-5.97-1.83-1.12-.71-1.67-1.67-1.67-2.88 0-1.3.57-2.36 1.72-3.19s2.76-1.24 4.84-1.24 3.8.41 5.07 1.22c.68.44 1.3 1.02 1.86 1.75.83 1.07 2.38 1.21 3.39.31.95-.86 1.03-2.32.18-3.27-1.03-1.15-2.2-2.06-3.51-2.73-1.95-.99-4.29-1.49-7.04-1.49-2.35 0-4.41.41-6.18 1.22-1.77.82-3.12 1.92-4.05 3.3-.93 1.39-1.4 2.93-1.4 4.62 0 1.6.37 2.96 1.11 4.07.74 1.12 1.92 2.05 3.55 2.81 1.63.75 3.82 1.39 6.56 1.9 2.75.51 4.67 1.1 5.77 1.76s1.65 1.54 1.65 2.62c0 1.36-.61 2.41-1.83 3.15s-2.9 1.11-5.04 1.11c-2.26 0-4.16-.42-5.68-1.27-.87-.48-1.65-1.12-2.34-1.92-.87-1.01-2.43-1.03-3.37-.09-.86.87-.92 2.26-.11 3.16 2.58 2.88 6.43 4.32 11.55 4.32 2.35 0 4.43-.35 6.22-1.06 1.8-.71 3.19-1.73 4.19-3.05 1-1.33 1.49-2.87 1.49-4.62 0-1.63-.36-2.99-1.09-4.09-.72-1.1-1.88-2.02-3.46-2.76s-3.72-1.35-6.4-1.83m44.57-10.92v16.43c0 3.92-1.04 6.89-3.12 8.89-2.08 2.01-5.11 3.01-9.1 3.01s-7.02-1-9.1-3.01-3.12-4.97-3.12-8.89v-16.43c0-1.35 1.09-2.44 2.44-2.44s2.44 1.09 2.44 2.44v15.84c0 2.84.6 4.92 1.79 6.27 1.19 1.34 3.04 2.01 5.54 2.01s4.35-.67 5.54-2.01 1.79-3.43 1.79-6.27v-15.84c0-1.35 1.1-2.44 2.44-2.44s2.44 1.09 2.44 2.44" fill="#0c322c"/><path d="m144.61 50.57c-.66.44-1.54.44-2.19 0-1.08-.72-1.18-2.21-.31-3.08.77-.8 2.05-.8 2.82 0 .87.87.76 2.36-.31 3.08m3.14-4.36c1.25 5.33-3.54 10.12-8.87 8.87-2.71-.64-4.87-2.79-5.5-5.5-1.25-5.33 3.54-10.11 8.86-8.87 2.71.63 4.87 2.79 5.5 5.5m-35.88 28.66c.61.88 1.12 1.72 1.4 2.57.2.6.46 1.39 1.05 1.71.03.02.06.03.1.04 1.09.4 3.88.33 3.88.33h5.14c.44 0 4.3 0 4.21-.44-.46-2.07-2.86-2.43-4.67-3.51-1.68-1-3.27-2.13-3.99-4.08-.37-1.01-.15-3.33.5-4.17.47-.61 1.17-1.02 1.92-1.18.83-.18 1.69-.02 2.52.06 1.02.1 2.03.29 3.05.42 1.97.26 3.95.36 5.94.31 3.27-.09 6.55-.61 9.66-1.67 2.16-.73 4.3-1.71 6.14-3.08 2.09-1.56 1.55-1.41-.58-1.19-2.54.26-5.11.3-7.66.15-2.38-.14-4.72-.42-6.88-1.52-1.7-.87-3.15-1.75-4.49-3.1-.2-.2-.33-.8.04-1.18.36-.37 1.11-.15 1.35.04 2.34 1.96 5.84 3.57 9.46 3.75 1.96.1 3.86.13 5.82.05.98-.04 2.46-.04 3.43-.05.51 0 1.89.14 2.15-.4.08-.16.07-.34.07-.51-.29-7.83-.87-16.66-9.06-20.41-6.11-2.8-15.28-7.13-19.15-8.92-.9-.42-1.95.25-1.95 1.25 0 2.62.13 6.37.13 9.79-1.85-1.89-4.98-3.08-7.36-4.17-2.7-1.24-5.5-2.29-8.33-3.17-5.72-1.77-11.64-2.86-17.59-3.45-6.75-.67-13.61-.35-20.26 1.02-10.94 2.27-21.7 7.53-29.86 15.23-5.01 4.72-8.95 11.44-9.21 18.25-.38 9.64 2.32 14.82 7.29 20.16 7.92 8.51 24.96 9.7 31.86-.39 3.1-4.54 3.78-10.7 1.53-15.72s-7.43-8.64-12.93-8.83c-4.26-.14-8.81 2.03-10.44 5.97-1.25 3.01-.54 6.73 1.73 9.07.88.91 2.08 1.66 3.39 1.37.77-.17 1.41-.75 1.53-1.53.17-1.15-.84-1.9-1.46-2.79-1.12-1.6-.89-4 .51-5.36 1.18-1.15 2.94-1.49 4.59-1.48 1.53 0 3.1.28 4.43 1.05 1.86 1.09 3.1 3.1 3.52 5.22 1.28 6.33-3.87 11.48-10.85 11.88-3.57.21-7.21-.73-10-2.97-7.06-5.68-8.79-17.29-.72-23.49 7.66-5.88 17.33-4.37 23.03-1.31 4.57 2.44 7.97 6.45 10.54 10.87 1.29 2.22 2.39 4.55 3.42 6.91.98 2.27 1.9 4.56 3.87 6.22 1.3 1.1 2.91 1.06 4.62 1.06h9.75c1.32 0 1-.88.43-1.47-1.29-1.32-3.15-1.62-4.87-2.09-3.93-1.08-3.53-6.28-2.44-6.28 3.51 0 3.62.1 6.7.06 4.44-.06 5.78-.32 9.25.97 1.86.69 3.64 2.5 4.8 4.16" fill="#30ba78"/></svg>