<svg viewBox="0 0 276.32 60.13" xmlns="http://www.w3.org/2000/svg"><g fill="#5a2a82"><path d="m19.24 7c0-1.84-.92-3.23-5-3.23s-5 1.39-5 3.23v5a5.43 5.43 0 0 0 2 4.28l13.76 11.9a7.75 7.75 0 0 1 3.2 5.82v7.52c0 4.48-5.27 7-14 7-9.59-.05-14.2-2.22-14.2-7.03v-6.49h8.7v6.26c0 2.25 1.71 3.56 5.53 3.56 3.56 0 5.27-1.31 5.27-3.56v-6.69c0-1.65-.66-2.9-2.51-4.55l-12.77-11.14c-2.37-2-3.69-3.62-3.69-6.06v-5.73c0-4.68 4.88-7 13.7-7 9.77.01 13.71 2.32 13.71 6.67v6.06h-8.7z"/><path d="m103.13 8c0-4.68 3.55-8 15.29-8s15.28 3.36 15.28 8v32.33c0 4.68-3.56 8-15.29 8s-15.29-3.36-15.29-8zm8.69 32.15c0 2.64 1.06 4.49 6.59 4.49s6.59-1.81 6.59-4.45v-32c0-2.64-1-4.48-6.58-4.48s-6.6 1.84-6.6 4.48z"/><path d="m138.51.39h13.84c11.21 0 14.5 1.85 14.5 7.25v11.67c0 5.4-3.3 7.25-14.5 7.25h-5.14v21.44h-8.7zm12.92 22.47c3.95 0 6.72-.52 6.72-3v-12.81c0-2.44-2.77-3-6.72-3h-4.22v18.81z"/><path d="m188.57 6.92c0-1.85-.92-3.23-5-3.23s-5 1.38-5 3.23v5a5.45 5.45 0 0 0 2 4.28l13.84 11.86a7.8 7.8 0 0 1 3.16 5.8v7.51c0 4.49-5.27 7-14 7-9.62 0-14.23-2.18-14.23-7v-6.51h8.66v6.26c0 2.24 1.71 3.56 5.53 3.56 3.56 0 5.27-1.32 5.27-3.56v-6.66c0-1.64-.65-2.9-2.5-4.54l-12.75-11.14c-2.38-2-3.69-3.62-3.69-6.06v-5.72c0-4.68 4.87-7 13.71-7 9.75 0 13.7 2.3 13.7 6.66v6.06h-8.7z"/><path d="m252.76 6.92c0-1.85-.92-3.23-5-3.23s-5 1.38-5 3.23v5a5.45 5.45 0 0 0 2 4.28l13.84 11.86a7.77 7.77 0 0 1 3.16 5.8v7.51c0 4.49-5.27 7-14 7-9.62 0-14.24-2.18-14.24-7v-6.51h8.71v6.26c0 2.24 1.72 3.56 5.54 3.56 3.56 0 5.27-1.32 5.27-3.56v-6.66c0-1.64-.66-2.9-2.5-4.54l-12.81-11.14c-2.37-2-3.69-3.62-3.69-6.06v-5.72c0-4.67 4.88-7 13.71-7 9.75 0 13.71 2.31 13.71 6.66v6.06h-8.7z"/><path d="m55.12.4h8.71l-19.06 59.73h-8.71z"/><path d="m41.38 37.5-11.78-37h8.71l7.42 23.33z"/><path d="m224.35.4h8.71l-19.06 59.73h-8.71z"/><path d="m210.66 37.39-11.79-36.99h8.71l7.43 23.32z"/><path d="m97.76 48v-40.35c0-5.4-3.3-7.25-14.5-7.25h-16.72v47.6h8.7v-43.9h7.16c4 0 6.72.52 6.72 3v40.9z"/><path d="m265.1 6.27a5.61 5.61 0 1 1 5.63 5.56 5.53 5.53 0 0 1 -5.63-5.56zm5.63 4.63a4.47 4.47 0 0 0 4.48-4.63 4.5 4.5 0 1 0 -9 0 4.48 4.48 0 0 0 4.52 4.63zm-1.18-1.42h-1v-6.39h2.45c1.51 0 2.26.56 2.26 1.82a1.67 1.67 0 0 1 -1.66 1.76l1.82 2.81h-1.08l-1.69-2.77h-1.12zm1.16-3.59c.82 0 1.56-.06 1.56-1 0-.79-.72-.94-1.39-.94h-1.33v2z"/></g></svg>