<svg enable-background="new 0 0 1061.54 298.63" viewBox="0 0 1061.54 298.63" xmlns="http://www.w3.org/2000/svg"><path d="m1030.03 98.04c1.48.83 2.64 1.96 3.48 3.39.84 1.42 1.27 2.98 1.27 4.67s-.42 3.24-1.27 4.66c-.84 1.41-2.01 2.53-3.48 3.35-1.48.82-3.11 1.23-4.9 1.23-1.74 0-3.35-.41-4.81-1.23-1.47-.82-2.62-1.94-3.47-3.35s-1.27-2.96-1.27-4.66c0-1.69.42-3.25 1.27-4.67.84-1.42 2-2.55 3.47-3.39 1.46-.83 3.07-1.25 4.81-1.25 1.79 0 3.42.41 4.9 1.25zm-.99 14.56c1.15-.64 2.05-1.53 2.69-2.66.65-1.14.97-2.41.97-3.84 0-1.42-.32-2.71-.97-3.86-.64-1.15-1.54-2.05-2.69-2.7s-2.46-.98-3.92-.98c-1.42 0-2.69.33-3.83.98s-2.03 1.55-2.67 2.7c-.65 1.15-.97 2.43-.97 3.86s.32 2.7.97 3.84c.64 1.13 1.53 2.02 2.67 2.66s2.41.96 3.83.96c1.47 0 2.77-.32 3.92-.96zm-.47-6.85c-.46.47-1.05.81-1.78 1.03l2.8 4.17h-2.54l-2.31-3.84h-.91v3.84h-2.16v-10h2.95c3.08 0 4.62 1.01 4.62 3.04.01.71-.21 1.29-.67 1.76zm-4.73-.23h1.14c1.37 0 2.05-.51 2.05-1.52 0-.51-.17-.87-.51-1.1s-.88-.34-1.61-.34h-1.06v2.96z"/><path d="m350.59 128.19c-.62.6-1.37.89-2.25.89h-26.98c-.88 0-1.32.42-1.32 1.27v61.31c0 6.45 1.46 11.11 4.36 13.99 2.91 2.89 7.54 4.32 13.89 4.32h7.94c.88 0 1.63.3 2.25.89.62.6.93 1.32.93 2.16v19.08c0 1.87-1.06 2.97-3.17 3.31l-13.76.25c-13.93 0-24.34-2.29-31.21-6.87s-10.41-13.23-10.58-25.95v-72.5c0-.85-.44-1.27-1.32-1.27h-15.08c-.88 0-1.63-.29-2.25-.89-.62-.59-.93-1.31-.93-2.16v-17.81c0-.85.31-1.57.93-2.16s1.36-.89 2.25-.89h15.08c.88 0 1.32-.42 1.32-1.27v-29.76c0-.85.31-1.57.93-2.16s1.36-.89 2.25-.89h23.01c.88 0 1.63.3 2.25.89.62.6.93 1.32.93 2.16v29.76c0 .85.44 1.27 1.32 1.27h26.98c.88 0 1.63.3 2.25.89.62.6.93 1.32.93 2.16v17.81c-.03.86-.34 1.58-.95 2.17z"/><path d="m471.92 169.79-.26 7.89c0 2.04-1.06 3.05-3.17 3.05h-82.8c-.88 0-1.32.43-1.32 1.27.53 5.6 1.32 9.41 2.38 11.45 4.23 12.21 14.55 18.4 30.95 18.57 11.99 0 21.51-4.75 28.57-14.25.7-1.02 1.59-1.53 2.65-1.53.7 0 1.32.25 1.85.76l16.4 12.97c1.59 1.19 1.85 2.54.79 4.07-5.47 7.46-12.74 13.23-21.82 17.3s-19.18 6.11-30.29 6.11c-13.76 0-25.44-2.97-35.05-8.9s-16.62-14.25-21.03-24.93c-4.06-9.16-6.08-21.88-6.08-38.16 0-9.83 1.06-17.81 3.17-23.91 3.53-11.87 10.18-21.24 19.97-28.11s21.56-10.3 35.31-10.3c34.74 0 54.31 17.47 58.72 52.41.71 4.23 1.06 8.98 1.06 14.24zm-76.05-36.51c-4.32 3.14-7.37 7.5-9.13 13.1-1.06 2.89-1.77 6.61-2.12 11.19-.36.85 0 1.27 1.06 1.27h53.7c.88 0 1.32-.42 1.32-1.27-.36-4.24-.88-7.46-1.59-9.67-1.59-6.11-4.72-10.85-9.39-14.25-4.67-3.39-10.54-5.09-17.59-5.09-6.52.01-11.94 1.58-16.26 4.72z"/><path d="m582.6 115.34c8.55 8.14 12.83 19.25 12.83 33.33v83.44c0 .85-.31 1.57-.93 2.16-.62.6-1.37.89-2.25.89h-24.34c-.88 0-1.63-.29-2.25-.89-.62-.59-.93-1.31-.93-2.16v-77.34c0-7.8-2.29-14.12-6.88-18.95s-10.67-7.25-18.25-7.25-13.71 2.38-18.38 7.12c-4.67 4.75-7.01 11.03-7.01 18.83v77.59c0 .85-.31 1.57-.93 2.16-.62.6-1.37.89-2.25.89h-24.34c-.88 0-1.63-.29-2.25-.89-.62-.59-.93-1.31-.93-2.16v-123.89c0-.85.31-1.57.93-2.16s1.36-.89 2.25-.89h24.34c.88 0 1.63.3 2.25.89.62.6.93 1.32.93 2.16v8.14c0 .51.17.85.53 1.02.35.17.62 0 .79-.51 7.23-9.16 18.16-13.74 32.8-13.74 14.29 0 25.71 4.07 34.27 12.21z"/><path d="m696.02 108.73c8.46 3.73 14.99 8.86 19.57 15.39s6.88 13.95 6.88 22.26v85.73c0 .85-.31 1.57-.93 2.16-.62.6-1.37.89-2.25.89h-24.34c-.88 0-1.63-.29-2.25-.89-.62-.59-.93-1.31-.93-2.16v-8.14c0-.51-.18-.8-.53-.89-.36-.08-.71.04-1.06.38-8.64 9.16-21.16 13.74-37.56 13.74-13.23 0-24.12-3.22-32.67-9.67-8.56-6.44-12.83-16.03-12.83-28.75 0-13.23 4.8-23.53 14.42-30.91 9.61-7.38 23.15-11.07 40.6-11.07h28.3c.88 0 1.32-.42 1.32-1.27v-6.11c0-6.61-2.03-11.74-6.08-15.39-4.06-3.65-10.14-5.47-18.25-5.47-6.7 0-12.13 1.14-16.27 3.43-4.15 2.29-6.75 5.47-7.8 9.54-.53 2.04-1.77 2.89-3.7 2.54l-25.66-3.05c-.88-.17-1.63-.46-2.25-.89-.62-.42-.84-.97-.66-1.65 1.41-10.34 7.18-18.83 17.33-25.44 10.14-6.61 22.88-9.92 38.22-9.92 11.13.01 20.92 1.88 29.38 5.61zm-14.49 98.45c6.17-4.41 9.26-10.01 9.26-16.79v-11.96c0-.85-.44-1.27-1.32-1.27h-22.22c-9.35 0-16.71 1.7-22.09 5.09s-8.07 8.23-8.07 14.5c0 5.43 2.07 9.63 6.22 12.59 4.14 2.97 9.48 4.45 16 4.45 8.64.01 16.05-2.19 22.22-6.61z"/><path d="m852.89 169.79c0 12.04-1.68 22.64-5.03 31.8-3.88 11.19-10.14 19.93-18.78 26.2-8.64 6.28-19.22 9.41-31.74 9.41-12.35 0-22.48-4.49-30.42-13.48-.36-.51-.71-.68-1.06-.51-.36.17-.53.51-.53 1.02v7.89c0 .85-.31 1.57-.93 2.16-.62.6-1.37.89-2.25.89h-24.34c-.88 0-1.63-.29-2.25-.89-.62-.59-.93-1.31-.93-2.16v-171.98c0-.85.31-1.57.93-2.16s1.36-.89 2.25-.89h24.34c.88 0 1.63.3 2.25.89.62.6.93 1.32.93 2.16v55.2c0 .51.17.85.53 1.02.35.17.7.09 1.06-.25 7.58-8.65 17.63-12.97 30.16-12.97 13.05 0 23.85 3.14 32.4 9.41 8.55 6.28 14.86 15.01 18.91 26.2 3 9.5 4.5 19.84 4.5 31.04zm-31.48.5c0-13.23-2.65-23.57-7.94-31.04-4.76-7.12-11.82-10.68-21.16-10.68-8.64 0-15.26 3.73-19.84 11.19-4.41 6.96-6.61 17.04-6.61 30.27 0 13.06 2.03 22.9 6.08 29.51 4.58 8.14 11.46 12.21 20.63 12.21 4.93 0 9.34-1.06 13.23-3.18 3.88-2.12 6.96-5.13 9.26-9.03 4.23-7.11 6.35-16.86 6.35-29.25z"/><path d="m865.56 234.47c-.62-.59-.93-1.31-.93-2.16v-171.97c0-.85.31-1.57.93-2.16s1.36-.89 2.25-.89h24.34c.88 0 1.63.3 2.25.89.62.6.93 1.32.93 2.16v171.97c0 .85-.31 1.57-.93 2.16-.62.6-1.37.89-2.25.89h-24.35c-.88 0-1.63-.29-2.24-.89z"/><path d="m1025.42 169.59-.26 7.89c0 2.04-1.06 3.05-3.17 3.05h-82.8c-.88 0-1.32.43-1.32 1.27.53 5.6 1.32 9.41 2.38 11.45 4.23 12.21 14.55 18.4 30.95 18.57 11.99 0 21.51-4.75 28.57-14.25.7-1.02 1.59-1.53 2.64-1.53.7 0 1.32.25 1.85.76l16.4 12.97c1.59 1.19 1.85 2.54.79 4.07-5.47 7.46-12.74 13.23-21.82 17.3s-19.18 6.11-30.29 6.11c-13.75 0-25.44-2.97-35.05-8.9s-16.62-14.25-21.03-24.93c-4.06-9.16-6.08-21.88-6.08-38.16 0-9.83 1.06-17.81 3.17-23.91 3.53-11.87 10.18-21.24 19.97-28.11s21.56-10.3 35.31-10.3c34.74 0 54.31 17.47 58.72 52.41.71 4.24 1.07 8.99 1.07 14.24zm-76.05-36.51c-4.32 3.14-7.37 7.5-9.13 13.1-1.06 2.89-1.76 6.61-2.12 11.19-.36.85 0 1.27 1.06 1.27h53.7c.88 0 1.32-.42 1.32-1.27-.36-4.24-.88-7.46-1.59-9.67-1.59-6.11-4.72-10.85-9.39-14.25-4.67-3.39-10.54-5.09-17.59-5.09-6.52.02-11.94 1.59-16.26 4.72z"/><path d="m255.2 161.59-30.59-90.84c-2.21-6.56-7.81-11.47-14.61-12.79l-95.48-18.63c-6.66-1.3-13.6 1.04-18.11 6.1l-64.76 72.58c-4.61 5.17-6.1 12.46-3.89 19.02l30.59 90.84c2.21 6.57 7.81 11.47 14.61 12.79l95.48 18.63c1.22.24 2.44.35 3.66.35 5.45 0 10.76-2.32 14.45-6.45l64.76-72.58c4.61-5.16 6.1-12.45 3.89-19.02zm-36.96-88.69 20.12 59.74-42.76-67.46c-.92-1.46-2.05-2.74-3.32-3.83l16.45 3.21c4.42.86 8.07 4.06 9.51 8.34zm-31.52 157.55-37.27 1.89 60.29-34.9c.09-.05.18-.11.27-.17l-14.51 27.57c-1.72 3.28-5.09 5.43-8.78 5.61zm-93.67-.59-21.06-33.22c.4.29.81.56 1.24.81l60.77 35.18c.28.16.57.32.86.46l-32.39 1.64c-3.79.18-7.4-1.68-9.42-4.87zm3.19-161.68 37.27-1.89-60.28 34.9c-.09.05-.18.11-.27.17l14.51-27.57c1.72-3.28 5.08-5.42 8.77-5.61zm93.68.6 21.06 33.22c-.4-.29-.81-.56-1.24-.81l-60.77-35.17c-.28-.16-.57-.32-.86-.46l32.39-1.64c3.77-.22 7.39 1.66 9.42 4.86zm20.55 115.74c0 2.92-1.57 5.65-4.1 7.12l-60.77 35.17c-2.54 1.47-5.7 1.47-8.24 0l-60.76-35.18c-2.53-1.47-4.1-4.19-4.1-7.12v-70.4c0-2.92 1.57-5.65 4.1-7.12l60.77-35.17c1.27-.74 2.69-1.1 4.12-1.1 1.42 0 2.85.37 4.12 1.1l60.76 35.18c2.53 1.46 4.1 4.19 4.1 7.12zm-144.44 2.71-17.65-27.85c-2.01-3.17-2.17-7.21-.42-10.53l17.81-33.85v69.51c0 .93.09 1.83.26 2.72zm150.91-75.83 17.65 27.85c2.01 3.17 2.17 7.21.42 10.53l-17.82 33.85v-69.51c0-.92-.09-1.83-.25-2.72zm-115.5-61.49c2.41-2.7 5.87-4.21 9.42-4.21.79 0 1.59.08 2.39.23l59.61 11.63-76.95 3.9c-2.13.11-4.18.62-6.08 1.46zm-64.77 72.58 42.83-47.99-37.49 71.23c-1.13 2.14-1.76 4.47-1.93 6.82l-5.94-17.65c-1.45-4.29-.47-9.04 2.53-12.41zm28.05 103.24-20.12-59.74 42.76 67.46c.92 1.45 2.05 2.74 3.32 3.83l-16.44-3.21c-4.43-.86-8.07-4.06-9.52-8.34zm116.81 23c-2.94 3.3-7.47 4.83-11.81 3.98l-59.61-11.63 76.95-3.9c2.13-.11 4.18-.62 6.08-1.46zm64.76-72.59-42.82 48 37.49-71.23c1.13-2.14 1.76-4.47 1.93-6.82l5.94 17.65c1.44 4.28.47 9.03-2.54 12.4z"/></svg>