<?xml version="1.0" encoding="utf-8"?>
<!-- Generator: Adobe Illustrator 28.1.0, SVG Export Plug-In . SVG Version: 6.00 Build 0)  -->
<svg version="1.1" id="Layer_1" xmlns:serif="http://www.serif.com/"
	 xmlns="http://www.w3.org/2000/svg" xmlns:xlink="http://www.w3.org/1999/xlink" x="0px" y="0px" viewBox="0 0 629.6 724.6"
	 style="enable-background:new 0 0 629.6 724.6;" xml:space="preserve">
<style type="text/css">
	.st0{fill:#21BAD9;}
</style>
<g transform="matrix(0.50614,0.000255441,-0.000255441,0.50614,-131.78,-537.354)">
	<path class="st0" d="M1495.8,1412.3l-603.3-348.6c-5.7-3.3-12.8-3.3-18.6,0l-603.3,348.6c-5.7,3.3-9.3,9.5-9.3,16.1l0,697.1
		c0,6.7,3.5,12.8,9.3,16.1L874,2490.3c5.7,3.3,12.8,3.3,18.6,0l603.3-348.6c5.8-3.3,9.3-9.5,9.3-16.1l0-697.1
		C1505.1,1421.8,1501.6,1415.6,1495.8,1412.3z M490.4,2225.7l0-432.5l182.7,105.3l0,221.7l-182.7,105.4V2225.7z M1467.9,1871.7
		l-164-94.7l164.1-94.7L1467.9,1871.7z M883.3,1555.3l191.9,110.8l0,221.7l-191.9,110.8l-191.8-110.8l0-221.7L883.3,1555.3z
		 M672.9,1877.1L499.5,1777l173.4-100.1L672.9,1877.1z M691.5,1909.3l173.2,100.1l-173.2,100.1L691.5,1909.3z M1075,1909.3l0,200.2
		l-173.2-100.1L1075,1909.3z M1093.6,1676.9l173.2,100.1l-173,100.1L1093.6,1676.9z M1467.9,1660.8l-173.4,100.1l0-421.8
		l173.4,100.1L1467.9,1660.8z M1276,1328.3l0,432.5l-182.5-105.3l0-221.8L1276,1328.3L1276,1328.3z M1075.2,1644.7l-173.4-100.1
		l173.4-100.1L1075.2,1644.7z M691.6,1644.7l0-200.2l173.1,100.1L691.6,1644.7z M673.1,1655.4l-191.9,110.8l-182.7-105.4
		l374.3-216.3L673.1,1655.4z M298.6,1682.3l164.1,94.7l-164.1,94.7L298.6,1682.3z M298.6,1893.2l173.4-100.1l0,421.8l-173.4-100.1
		L298.6,1893.2z M883.3,2020.2l191.9,110.7l0,198l-374-203.6L883.3,2020.2z M1093.8,1898.5l191.8-110.8l182.7,105.4l-374.4,216.4
		L1093.8,1898.5z M1093.8,1412.3l0-189.4l163.9,94.7L1093.8,1412.3z M1075.2,1412.3L710,1201.4l173.2-100.1l191.9,110.8
		L1075.2,1412.3z M691.5,1212.1l374.4,216.3l-182.5,105.3l-191.8-110.8l0-210.8H691.5z M672.9,1412.3l-164.1-94.7l164.1-94.7
		L672.9,1412.3z M663.6,1428.4l-365,210.9l0-200.1l191.9-110.8L663.6,1428.4z M672.9,2141.7l0,189.5l-164.1-94.7L672.9,2141.7z
		 M691.5,2141.2l376.3,204.9l-184.5,106.6l-191.8-110.8L691.5,2141.2z M1093.6,2141.7l163.9,94.7l-163.8,94.7L1093.6,2141.7z
		 M1102.9,2125.6l365-210.9l0,200.1L1276,2225.5L1102.9,2125.6z"/>
</g>
</svg>
