<svg viewBox="0 0 169 25" xmlns="http://www.w3.org/2000/svg" xmlns:xlink="http://www.w3.org/1999/xlink"><mask id="a" height="24.14" maskUnits="userSpaceOnUse" width="22.76" x="0" y=".4"><path d="m0 .4h22.76v24.14h-22.76z" fill="#fff" fill-rule="evenodd"/></mask><path d="m136.67 12.5v11.69c0 .31-.06.4-.4.4-1.51-.02-3.01 0-4.52 0-.21 0-.26-.06-.25-.24 0-.08 0-.17 0-.25 0-6.13 0-12.26 0-18.38 0-.52.07-.45-.47-.45-1.02 0-2.03 0-3.05 0-.24 0-.31-.07-.31-.31.01-1.42 0-2.84 0-4.26 0-.19.02-.28.25-.28 2.79.01 5.57.01 8.36 0 .32 0 .38.1.38.39v11.69" fill="#00b3e6" fill-rule="evenodd"/><path d="m74.98 24.49c1.57-.01 3.14-.01 4.71 0 .17 0 .32 0 .31-.24-.1-.27-.19-.55-.29-.82-2.9-7.56-5.8-15.12-8.69-22.68-.1-.25-.21-.34-.5-.34-1.15.02-2.3.02-3.45 0-.33 0-.48.09-.6.41-2.25 5.93-4.5 11.86-6.76 17.79-.62 1.63-1.24 3.27-1.87 4.91-.28-.27-5.25-7.2-5.37-7.49 3.08-.9 5.03-2.82 5.52-6.04-.05-.17-.11-.34.04-.5.12-.71.07-1.42 0-2.13-.4-3.79-3.09-6.45-6.92-6.82-.17.07-.35.13-.5-.04-.46-.1-.92-.08-1.38-.08-2.55-.01-5.09 0-7.64-.02-.35 0-.42.1-.42.42v23.29c0 .12.01.24.02.36h5.13v-8.25c.89 1.13 1.7 2.26 2.52 3.39 1.17 1.62 2.35 3.24 3.52 4.86h10.03c.16 0 .32-.02.47-.07.04-.09.09-.17.13-.26.53-1.4 1.07-2.81 1.59-4.21.1-.26.21-.36.51-.36 2.36.02 4.73.02 7.09 0 .44 0 .62.13.76.54.53 1.47 1.11 2.91 1.67 4.37.11-.14.23 0 .35 0m-23.89-13.12c-.58.26-1.21.36-1.82.49-.22.18-.47.08-.72.06-.65 0-1.29 0-1.94.03-.2 0-.28-.04-.27-.26 0-2.06 0-4.12 0-6.18 0-.18.03-.26.24-.25 1.05.03 2.1-.03 3.15.04.15-.03.3-.11.42.06.53.16 1.07.31 1.53.65 1.01.74 1.35 1.76 1.25 2.96-.11 1.18-.78 1.94-1.84 2.41m19.65 3.64c-1.32 0-2.64 0-3.97 0-.1 0-.23.04-.28-.1.21-.82.55-1.6.83-2.4.44-1.28.91-2.55 1.36-3.83.02-.07.03-.14.12-.2.55 1.57 1.11 3.14 1.65 4.71.2.57.44 1.12.57 1.72-.06.14-.18.1-.28.1m21.29-10.09c1.87.27 3.31 1.32 4.5 2.73.18.21.36.32.65.31 1.74-.01 3.48 0 5.22 0 .12 0 .24.03.35-.03-2.56-5.74-7.97-8.73-14.07-7.73-6.15 1-10.56 6.43-10.38 12.68.17 5.97 4.82 11.26 10.82 12.02 6.2.79 11.2-2.58 13.49-7.68h-.37c-1.64 0-3.28.02-4.92-.01-.5-.01-.9.05-1.18.51-.12.19-.31.34-.48.5-1.65 1.48-3.55 2.22-5.79 1.89-3.57-.53-6.21-3.69-6.39-7.25-.11-2.03.49-3.87 1.84-5.41 1.78-2.03 4.03-2.91 6.73-2.51m76.55 15.19c0-.32-.11-.37-.4-.37-1.81.01-3.62 0-5.44 0h-2.76c-.14 0-.3.04-.3-.2 0-1.44.02-2.89.01-4.33 0-.37.14-.42.47-.42 2.67.01 5.34 0 8.01.02.3 0 .4-.07.4-.38-.02-1.36-.02-2.72 0-4.08 0-.3-.08-.38-.39-.38-2.69.01-5.39 0-8.08.02-.35 0-.43-.11-.43-.43.02-1.3.02-2.6 0-3.89 0-.34.11-.42.43-.41 2.69.01 5.39 0 8.08 0 .19 0 .39.06.38-.27-.02-1.44 0-2.89 0-4.33 0-.18-.03-.25-.24-.25-1.64.02-3.28.02-4.91.02-2.81 0-5.62 0-8.44 0-.35 0-.45.08-.45.44.01 3.88 0 7.77 0 11.65s0 7.74 0 11.61c0 .35.07.48.45.47 1.79-.02 3.58-.01 5.36-.01 2.63 0 5.27.01 7.9.02.24 0 .34-.07.34-.33-.01-1.38-.02-2.77 0-4.15m-130.85-19.75c-4.41 0-8.82 0-13.23 0-.12 0-.24-.04-.36.03 0 7.88 0 15.75-.01 23.62 0 .35.12.41.44.41h13.52v-4.66c-2.79 0-5.59 0-8.39 0-.14 0-.3.06-.42-.07l-.07-.08c-.13-.08-.08-.22-.08-.33 0-1.38 0-2.76 0-4.14 0-.11-.05-.25.09-.33l.06-.07c.12-.14.27-.07.42-.07h8.39v-4.66c-2.8 0-5.6 0-8.39 0-.14 0-.3.06-.41-.07l-.06-.07c-.13-.07-.09-.19-.09-.29 0-1.35 0-2.69 0-4.04 0-.09-.04-.21.05-.28.02-.02.04-.03.06-.03.15 0 .29-.01.44-.01h8.08c.28 0 .34-.07.34-.34-.02-1.38-.02-2.77 0-4.15 0-.31-.09-.37-.39-.37" fill-rule="evenodd"/><g mask="url(#a)"><path d="m22.44.4c-1.58.01-3.16.01-4.74 0-.27 0-.4.06-.5.33-1.73 4.45-3.47 8.89-5.21 13.33-.18.46-.36.91-.57 1.42l-.14-.33c-1.89-4.81-3.78-9.63-5.65-14.44-.09-.23-.2-.31-.45-.31-1.58.01-3.16 0-4.74 0q-.51.01-.33.46c3.16 7.75 6.31 15.5 9.47 23.25.06.15.08.33.22.44.11-.12.25-.07.38-.07h2.85c.04-.08.09-.15.12-.22l2.28-5.62c2.42-5.96 4.83-11.92 7.26-17.88.14-.34.05-.36-.26-.36" fill-rule="evenodd"/></g><g fill-rule="evenodd"><path d="m145 1.19c-1.97-.7-4.01-.81-6.07-.76-.23 0-.21.15-.21.29v4.26c0 .23.07.28.29.28.76 0 1.51-.04 2.27.07 1.96.27 3.59 1.11 4.71 2.76 1.23 1.82 1.55 3.83 1.26 5.98-.37 2.76-2.12 4.72-4.84 5.39-1.12.27-2.25.32-3.39.29-.24 0-.31.06-.31.3.02.7 0 1.41 0 2.11s0 1.43 0 2.15c0 .2.06.27.27.27 1.79.02 3.57-.04 5.31-.53 2.26-.64 4.22-1.78 5.68-3.61 1.82-2.27 2.48-4.97 2.54-7.81.04-1.89-.41-3.7-1.18-5.43-1.28-2.87-3.33-4.93-6.34-6"/><path d="m37.73 24.51c-4.41 0-8.81 0-13.22 0-.41 0-.41 0-.41-.42v-23.25c0-.13-.03-.27.03-.39-.13.11-.06.25-.06.37v7.5 15.9c0 .23 0 .38.31.37 4.48-.01 8.96 0 13.44-.01.09 0 .23.07.26-.1-.11.07-.24.03-.36.03"/><path d="m24.13 24.07c.01-7.88 0-15.75 0-23.62-.07.13-.03.26-.03.39v23.25q0 .42.41.42h13.22c.12 0 .25.03.36-.03-4.51 0-9.01 0-13.52 0-.32 0-.44-.06-.44-.41"/><path d="m29.68 10.02h8.01c.13 0 .27-.03.4.03-.03-.15-.16-.08-.24-.08-2.85 0-5.71 0-8.56 0 .12.08.26.04.39.04"/><path d="m29.7 10.06h8.39c-.13-.07-.26-.03-.4-.03-2.67 0-5.34 0-8.01 0-.13 0-.27.04-.39-.04.11.14.27.07.41.07m-.53-4.62v4.3c0 .06 0 .12.06.16l.02-4.64s-.04.02-.06.03c-.03.04-.01.09-.01.14"/><path d="m29.14 5.57v4.04c0 .1-.04.22.09.29-.06-.04-.06-.1-.06-.16 0-1.44 0-2.87 0-4.31 0-.04-.02-.1.01-.14-.08.07-.05.18-.05.28m28.85 4.41c.01-.16.03-.33.04-.5-.11.16-.03.33-.04.5"/><path d="m57.99 9.98c.01-.16-.07-.34.04-.5-.15.15-.09.32-.04.5m-6.88-9.44-.5-.04c.16.12.33.05.5.04"/><path d="m51.11.54c-.17 0-.34.08-.5-.04.15.17.33.11.5.04m-2.47 11.37h-.09c.24.03.49.13.72-.05-.2.1-.42.04-.62.05"/><path d="m49.26 11.86-.62.05c.21 0 .42.05.62-.05m.88-6.52c-.12-.16-.28-.09-.42-.06.14.03.29-.05.42.06"/><path d="m49.72 5.29.42.06c-.13-.11-.28-.03-.42-.06"/><path d="m116.04 0c-7.04 0-12.74 5.56-12.75 12.45 0 6.91 5.65 12.54 12.61 12.54 7.04 0 12.73-5.54 12.74-12.41.01-7.04-5.54-12.58-12.6-12.58m4.98 18.23c-1.36 1.38-3.11 1.91-4.79 1.94-3.92 0-6.73-2.34-7.59-6.13-.76-3.35 1.09-7.18 4.2-8.56 3.51-1.55 8.33-.56 10.08 4.19 1.19 3.23.53 6.11-1.89 8.56" fill="#00b3e6"/></g></svg>