<svg fill="none" height="40" viewBox="0 0 190 40" width="190" xmlns="http://www.w3.org/2000/svg" xmlns:xlink="http://www.w3.org/1999/xlink"><linearGradient id="a" gradientUnits="userSpaceOnUse" x1="172.831" x2="71.6555" y1="1.10428" y2="184.772"><stop offset="0" stop-color="#ff8b61"/><stop offset="1" stop-color="#d92e7f"/></linearGradient><g fill="#4c4c4c"><path d="m57.699 37.6456c.712 1.3372 1.0846 1.9424 1.2514 2.0332.1306.071.4622.1306.7366.1326.4496.0034.5272-.027.7878-.3082.159-.1716.6854-1.0876 1.1696-2.0354.4844-.9478.912-1.7242.9502-1.7252s.0704.071.073.1602c.002.089.2248.9746.4952 1.9678l.4916 1.8058.9992.0262c.7836.0208.9894.0008.9538-.0924-.0248-.0656-.3896-1.3276-.8104-2.8046-.913-3.2038-.9662-3.3472-1.3056-3.5224-.3798-.1964-1.032-.1734-1.3112.046-.2084.1638-1.6158 2.538-2.2476 3.7912l-.2518.5-.3272-.5926c-.1798-.326-.7078-1.255-1.1732-2.0648-.903-1.5706-1.135-1.8146-1.7268-1.8146-.3582 0-.8668.2674-1.0026.527-.0808.1544-1.7784 5.8768-1.7784 5.9946 0 .029.4298.0526.9552.0526h.9552l.4418-1.6712c.243-.9192.4652-1.8152.4938-1.991.0284-.1758.0776-.3196.1092-.3194s.5136.8572 1.0712 1.9046z"/><path clip-rule="evenodd" d="m46.4424 39.6786c-1.0332-.195-2.008-.72-2.3856-1.2846-.3968-.5928-.5222-1.064-.5216-1.9592 0-1.3642.4764-2.2048 1.5438-2.7286.933-.4578 1.7344-.581 3.4954-.5366 1.3636.0342 1.6088.0656 2.2618.29.4028.1382.89.3642 1.0828.5022.7634.546 1.151 1.5274 1.0866 2.7524-.0822 1.5624-.8188 2.404-2.5306 2.8908-.679.1932-3.1594.2384-4.0326.0736zm3.4484-1.6356c.8966-.1914 1.3066-.9016 1.1442-1.9826-.0834-.5558-.4764-1.0034-.9994-1.1378-1.032-.2654-3.254-.1958-3.8676.1212-.5094.2632-.6658.6332-.634 1.5008.0254.696.0502.7814.303 1.0448.1514.1578.4642.3452.6952.4164.5222.1606 2.6688.1846 3.3586.0372z" fill-rule="evenodd"/><path d="m35.2354 38.4608c.4144.4706 1.4322 1.027 2.1228 1.1608.2294.0444 1.2932.0832 2.3638.0864l1.9466.0056.631-.829.631-.8288h-2.4944c-2.627 0-2.884-.0326-3.4256-.4344-.4024-.2984-.5794-.6668-.5794-1.2064 0-.5866.3096-1.0456.9004-1.3348.411-.2012.588-.2206 2.4046-.2646l1.961-.0472.5684-.7408.5684-.7408-2.6628-.0246c-2.8998-.0268-3.212.012-4.143.5154-.583.3152-1.2096 1.017-1.396 1.5634-.35 1.026-.0992 2.3228.6032 3.1198z"/></g><g clip-rule="evenodd" fill-rule="evenodd"><path d="m1.29592 8.98725 14.82248-8.632308c.8154-.474841 1.8236-.473141 2.6374.00444l14.698 8.626468c.7982.46844 1.2884 1.32405 1.2884 2.24885v17.5307c0 .9246-.4902 1.7804-1.2884 2.2488l-14.698 8.6264c-.8138.4776-1.822.4792-2.6374.0044l-14.82248-8.6322c-.80244-.4674-1.29592-1.3254-1.29592-2.2534v-17.5188c0-.928.49348-1.78601 1.29592-2.25335zm6.66927 3.71895 8.12741-4.73321c.8152-.47482 1.8236-.47312 2.6374.00446l8.0546 4.72735c.7982.4684 1.2882 1.324 1.2882 2.2488v9.6538c0 .9248-.49 1.7804-1.2882 2.2488l-8.0546 4.7274c-.8138.4776-1.8222.4792-2.6374.0044l-8.12741-4.7332c-.80244-.4672-1.29594-1.3254-1.29594-2.2532v-9.6421c0-.928.4935-1.786 1.29594-2.2533zm60.95591 11.1349c-.0744 6.3156-.1372 12.4516-.1372 13.6358h.0004l-.0028 2.153h60.4375 60.439v-2.5928-2.593h-57.313-57.3119l.0268-2.0604c.057-4.3844.2124-19.717.2119-20.8819l-.0005-1.227h-3.1054-3.1052l-.0026 1.0417c-.0012.573-.0628 6.209-.137 12.5246zm-27.4358 4.2406c1.8356 1.4862 4.5112 2.3374 8.3402 2.6536 1.4614.1206 5.36.0436 6.5352-.129 1.9242-.2826 3.2452-.6584 4.4956-1.2792 2.0462-1.0154 3.462-2.5978 4.1212-4.6062.4056-1.235.4524-1.9858.5224-8.3728l.0666-6.0733h-3.1048-3.105l-.061 2.7086c-.0336 1.4897-.063 3.9587-.063 5.4867-.0026 4.0076-.129 4.9026-.803 5.6894-.4338.5062-.8876.7868-1.7198 1.063-.9514.3158-2.047.4238-4.3022.4242-4.5416.0006-6.4018-.5402-7.09-2.061l-.2196-.4854.028-6.4128.028-6.4127h-3.0556-3.0556l-.0516.3472c-.0282.191-.0632 3.1393-.0776 6.5517-.0262 6.2022-.0262 6.2046.186 7.0378.4058 1.5944 1.2338 2.9378 2.3856 3.8702zm55.8733 1.8848c.4562.3968.9278.6594 1.4104.7854.153.0398.591.0608.9732.0464 1.7168-.0642 2.9808-1.2628 3.2348-3.0678.05-.3566.115-3.0444.143-5.973.029-2.9286.08-6.731.112-8.45l.06-3.1253h-2.841-2.8408l-.0022.3472c-.0178 2.5565-.1882 11.5421-.2196 11.5733-.023.023-2.7878-2.4534-6.1438-5.503-3.356-3.0497-6.3374-5.7365-6.6256-5.9707-.717-.583-1.2788-.75652-2.2906-.70758-.6892.03334-.882.08208-1.3834.34958-.7028.375-1.068.7718-1.439 1.564-.2548.5439-.2856.7162-.3488 1.949-.038.7439-.0942 4.1027-.1249 7.4643-.0306 3.3614-.0813 6.8098-.113 7.6628l-.0573 1.5512h2.8392 2.839l.0064-1.1808c.019-3.5462.1538-10.5854.2034-10.635.0318-.0318 2.7822 2.4158 6.1122 5.4392 3.33 3.0232 6.2534 5.6696 6.4964 5.8808zm9.3044-3.4168c-.033.6494-.061 1.8162-.061 2.593v1.4122h11.262 11.263v-2.593-2.5928h-11.202-11.202zm57.369 1.3628c-1.099 1.3962-1.998 2.5646-1.998 2.5966 0 .0318 4.64.0398 10.312.0178 8.67-.0336 10.438-.0624 11.101-.1802 4.212-.7492 6.117-2.754 6.139-6.4592.007-1.1284-.161-1.8898-.594-2.7022-.537-1.0062-1.805-1.9488-3.145-2.338-.278-.0808-.505-.1468-.735-.2012-1.035-.2451-2.126-.2535-8.201-.3034-6.649-.0546-7.064-.0676-7.396-.2324-.452-.2242-.658-.6176-.652-1.2448.006-.5892.202-.9048.731-1.1734.355-.18.58-.186 7.966-.2156l7.601-.0302 1.947-2.5024c1.071-1.3763 1.96-2.5399 1.977-2.5857.019-.0492-3.906-.0831-9.547-.0829-7.931.0005-9.73.0238-10.459.1357-3.231.4959-5.14 1.8419-5.903 4.1625-.212.6466-.247.9114-.253 1.952-.006.9978.028 1.3154.197 1.8558.593 1.8856 2.14 3.1418 4.568 3.7086.618.1444 1.475.1684 7.74.216 6.805.0518 7.058.0598 7.41.2388.562.2854.748.6044.746 1.2818-.002.7012-.227 1.0696-.808 1.3236-.375.1636-.83.174-8.571.1982l-8.175.0256zm-31.785-4.2414c-.034 1.9182-.061 4.231-.061 5.1394v1.6518h3.105 3.105v-2.6856-2.6854l4.89.0048 4.89.0048 2.206 2.6808 2.207 2.6806h4.136 4.136l-.185-.2084c-1.024-1.1568-4.27-4.5516-5.105-5.3394l-1.06-1.0008.772-.2438c2.526-.798 4.205-2.8434 4.531-5.52.157-1.2944-.076-2.7734-.595-3.7766-.244-.4715-1.051-1.4217-1.614-1.9014-1-.8514-2.86-1.6093-4.884-1.9899-.771-.1449-2.622-.1595-23.339-.1839l-22.502-.0266v.7739c0 .4256-.028 1.5927-.061 2.5936l-.061 1.8197 22.285.024c21.066.0228 22.311.0332 22.767.1886.96.3272 1.54.967 1.658 1.8316.167 1.2144-.753 2.2066-2.36 2.547-.504.1068-2.255.1306-9.707.1318l-9.092.0016zm-25.491-4.2518c-.034.8022-.061 1.8232-.061 2.2688v.8102h11.216 11.216v-2.2686-2.2688h-11.155-11.156z" fill="url(#a)"/><path d="m27.7155 25.9244c.2302-.393.3572-.846.3572-1.317v-10.822l6.405-3.6942c-.2216-.45361-.5738-.84109-1.024-1.10535l-14.698-8.626468c-.8138-.477581-1.8222-.479281-2.6374-.00444l-14.82254 8.632308c-.452322.26342-.806482.651-1.029403 1.10525l6.402723 3.6929z" fill="#4d4d4d"/><path d="m17.3709.00048828c-.4334.01032002-.8648.12835972-1.2526.35420072l-14.82254 8.632331c-.452322.26342-.806482.65098-1.029403 1.10518l6.402733 3.693v10.8162c0 .4726.12808.9272.35984 1.3212l10.34197-5.965z" fill="#38383a"/></g></svg>