<svg height="33" viewBox="0 0 2214 455" width="162" xmlns="http://www.w3.org/2000/svg"><path d="m102.79 64.95-73.58-239.16h-58.09l-73.6 239.16-72.93-239.32h-66.82l106.51 348.74h54.22l81.67-252.4 81.33 252.4h54.22l106.51-348.58h-66.49z" transform="translate(242.96 268.59)"/><path d="m-134.41-113.94h179.75l-197.84 277.56v10.67h295.33v-60.35h-187.84l197.51-277.25v-10.98h-286.91z" transform="translate(1092.54 268.67)"/><path d="m1052.639 408.128c-29.888-31.188-70.664-47.599-118.641-47.599-101.53 0-178.083 79.72-178.083 185.428 0 105.697 76.553 185.405 178.083 185.405 47.865 0 88.642-16.31 118.641-47.287v39.977h68.243v-356.189h-68.243zm-111.686 259.015c-67.02 0-115.686-50.965-115.686-121.185 0-69.998 48.665-120.807 115.686-120.807 66.82 0 115.33 50.81 115.33 120.807 0 70.22-48.509 121.185-115.33 121.185z" transform="translate(-247 -277)"/><path d="m1809.883 568.668c0 62.576-34.443 98.475-94.464 98.475-60.243 0-94.797-35.899-94.797-98.475v-200.805h-68.265v206.294c0 116.03 87.842 157.206 163.062 157.206 75.064 0 162.706-41.176 162.706-157.206v-206.294h-68.242z" transform="translate(-246.99 -277)"/><path d="m2272.846 488.87c-1.933-14.211-5.6-28.733-10.977-43.577-5.378-14.844-13.177-28.566-23.399-41.154-10.222-12.577-23.51-22.744-39.843-30.499-16.355-7.744-36.599-11.611-60.687-11.611-31.421 0-58.198 6.778-80.353 20.333-13.567 8.293-25.174 18.601-34.865 30.88v-135.287h-60.354v442.009h68.42v-181.395c0-20.655 2.311-38.188 6.933-52.609 4.644-14.411 10.978-26.033 19.044-34.855s17.488-15.222 28.243-19.199c10.755-3.989 22.155-5.978 34.221-5.978 18.489 0 33.51 3.766 45.021 11.3s20.444 17.422 26.777 29.688c6.355 12.266 10.666 25.555 12.911 39.866 2.267 14.311 3.4 28.232 3.4 41.788v171.395h68.42v-193.662c0-10.756-.978-23.233-2.912-37.433z" transform="translate(-246.99 -277)"/><circle cx="2158.99" cy="394.88" fill="#007aff" r="55.013"/></svg>