<svg height="512" viewBox="0 0 317.51 135.47" width="1200" xmlns="http://www.w3.org/2000/svg" xmlns:xlink="http://www.w3.org/1999/xlink"><linearGradient id="a"><stop offset="0" stop-color="#4a88f1"/><stop offset="1" stop-color="#622e78"/></linearGradient><linearGradient id="b" gradientUnits="userSpaceOnUse" x1="15.688" x2="15.688" xlink:href="#a" y1="292.29" y2="220.32"/><linearGradient id="c" gradientUnits="userSpaceOnUse" x1="68.271" x2="68.271" y1="250.29" y2="157.13"><stop offset="0" stop-color="#2656a8"/><stop offset="1" stop-color="#8c42ab"/></linearGradient><linearGradient id="d" gradientUnits="userSpaceOnUse" x1="67.218" x2="67.218" xlink:href="#a" y1="250.03" y2="178.69"/><linearGradient id="e" gradientUnits="userSpaceOnUse" x1="254.05" x2="254.05" xlink:href="#a" y1="349.89" y2="64.851"/><g transform="matrix(.94651 0 0 .94651 23.56745 -149.777)"><path d="m3.7378 222.94c-1.0487.0157-1.8393.95826-1.6722 1.9937 1.5016 9.2924 5.4178 14.907 10.148 19.261 4.7304 4.3543 10.153 7.5562 15.143 12.545 11.404 11.404 27.431 15.172 40.377 7.6057 12.946 7.5658 28.973 3.7981 40.377-7.6057 4.9893-4.9893 10.412-8.1912 15.143-12.545 4.7306-4.3543 8.6472-9.9684 10.149-19.261.26506-1.6466-1.7334-2.6689-2.9135-1.4903-9.8848 9.8848-14.753 11.751-18.415 12.131-1.831.18953-3.5214-.0312-5.5888.0672s-4.4439.5987-7.228 2.2061c-.03017.0174-.05982.0356-.08888.0548l-5.6637 3.7455c-3.6089 2.3864-7.2944 3.466-10.501 2.6789.31976-1.1228.60409-2.254.81029-3.3988.18987-1.0548-.62068-2.0245-1.6924-2.0247h-22.276c-.0034.00016-.0069.00033-.01033.00051h-6.4869c-1.0717.00022-1.8823.96991-1.6924 2.0247.20618 1.1447.49058 2.2753.81029 3.3977-3.2069.78747-6.8924-.29227-10.502-2.6789l-5.6637-3.745c-.02906-.0192-.05871-.0374-.08888-.0548-2.784-1.6074-5.1606-2.1077-7.228-2.2061s-3.7579.12235-5.5888-.0672c-3.6619-.37905-8.5301-2.2457-18.415-12.131-.32875-.32861-.7765-.51017-1.2413-.50333zm54.633 16.801c-.0069.0187-.11621.31371-.17467.47129.0591-.16216.17106-.46924.17105-.46922zm-.22324.6041c-.000286.005-.02061.36586-.02067.3669 0 .00002.02016-.36589.02015-.36587l.000516-.001z" opacity=".3"/><path d="m14.223 228.6c10.93 67.642 54.726 77.613 93.768 116.65 42.464 42.464 101.32 55.451 148.01 25.877 46.691 29.573 105.55 16.587 148.01-25.877 39.042-39.042 82.839-49.012 93.77-116.65-75.682 75.682-80.596 33.076-119.39 55.473l-21.406 14.156c-16.798 11.108-35.305 15.967-51.277 8.8242 2.0068-5.9337 3.5644-11.992 4.668-18.119h-84.191c-.00028.00046.00028.001 0 .002h-24.557c1.1035 6.1266 2.6616 12.182 4.668 18.115-15.973 7.144-34.48 2.2842-51.279-8.8242l-21.406-14.154c-38.792-22.397-43.705 20.209-119.39-55.473z" fill="url(#e)" stroke="#2656a8" stroke-linecap="round" stroke-linejoin="round" stroke-width="13" transform="matrix(.26458 0 0 .26458 0 161.53)"/><path d="m503.22 225.04c-6.2689 31.922-20.443 51.8-37.385 67.395-17.879 16.457-38.375 28.559-57.232 47.416-43.101 43.101-103.68 57.341-152.61 28.746-48.929 28.596-109.5 14.355-152.61-28.746-18.857-18.857-39.354-30.959-57.232-47.416-16.939-15.592-31.109-35.466-37.379-67.379-.84886 1.2993-1.2468 2.9068-.97656 4.582 5.6753 35.121 20.477 56.34 38.355 72.797 17.879 16.457 38.375 28.559 57.232 47.416 43.101 43.101 103.68 57.342 152.61 28.746 48.929 28.595 109.5 14.355 152.61-28.746 18.857-18.857 39.353-30.959 57.232-47.416s32.682-37.676 38.357-72.797c.28557-1.774-.13774-3.3451-.97265-4.5976zm-306.92 60.182c-.9483 1.3574-1.3924 3.0782-1.0703 4.8672.20072 1.1144.42103 2.2263.6582 3.334.80866-.13497 1.6106-.29729 2.4043-.49219-.72808-2.5561-1.3965-5.1255-1.9922-7.709zm119.4 0c-.59565 2.5842-1.264 5.1538-1.9922 7.7109.79309.19466 1.5944.35736 2.4024.49219.23749-1.1093.45917-2.222.66015-3.3379.32193-1.7884-.12263-3.5081-1.0703-4.8652z" opacity=".3" transform="matrix(.26458 0 0 .26458 0 161.53)"/><path d="m81.021 244.05c-.74795.007-1.3508.61473-1.3508 1.3627v12.474c.000173.7626.62608 1.3766 1.3885 1.3622 1.5656-.0294 3.3646.61074 5.1082 1.7637l3.5006 2.3146c.02298.0153.04641.03.07028.0439 1.7587 1.0154 3.2921 1.3407 4.6028 1.403s2.345-.0733 3.4375.0398c2.185.22611 5.1128 1.3244 11.2 7.4114.93512.93525 2.5203.12423 2.3089-1.1813-.93772-5.803-3.4098-9.3562-6.365-12.076-2.9552-2.7201-6.2969-4.6923-9.3498-7.7453-4.1425-4.1425-9.2335-6.6921-14.415-7.1665-.04518-.004-.09053-.006-.13591-.006zm-26.629.00051c-.02795.00081-.05587.002-.08371.005-5.1816.4744-10.272 3.024-14.415 7.1665-3.053 3.053-6.3946 5.0251-9.3498 7.7453s-5.4273 6.2737-6.365 12.077c-.21136 1.3056 1.3738 2.1166 2.3089 1.1813 6.087-6.087 9.0148-7.1852 11.2-7.4114 1.0925-.11311 2.1273.0221 3.438-.0403s2.8436-.38766 4.6023-1.403c.02404-.0139.04765-.0285.0708-.0439l3.4995-2.3151c1.7435-1.1529 3.5424-1.7926 5.1082-1.7632.76246.0144 1.3884-.59959 1.3885-1.3622v-12.474c.00003-.76842-.63493-1.3849-1.403-1.3622z" opacity=".3"/><g transform="matrix(.26458 0 0 .26458 0 161.53)"><path d="m205.73 307.04c-18.215 1.6676-36.396 10.689-51.307 25.6-24.129 24.129-51.198 30.292-57.953 72.098 46.775-46.774 49.812-20.443 73.787-34.285l13.229-8.75c7.1986-4.76 14.904-7.6556 22.244-7.5176zm100.54 0v47.145c7.3397-.13796 15.046 2.7595 22.244 7.5195l13.23 8.748c23.975 13.842 27.013-12.491 73.787 34.283-6.7554-41.806-33.824-47.966-57.953-72.096-14.911-14.911-33.094-23.932-51.309-25.6z" fill="url(#e)" stroke="#2656a8" stroke-linecap="round" stroke-linejoin="round" stroke-width="10.3"/><path d="m210.88 344.19c-.00065 2.8823-2.3663 5.2029-5.248 5.1484-5.9182-.11126-12.717 2.3067-19.307 6.6641l-13.227 8.75c-.0875.0582-.17672.11348-.26758.16601-6.6469 3.8376-12.441 5.0669-17.395 5.3027-4.9539.23584-8.8649-.27516-12.994.15234-8.2585.85501-19.324 5.0056-42.33 28.012-2.35 2.3504-5.776 1.7726-7.5801-.32227-.42456 1.8897-.81825 3.8262-1.1465 5.8574-.79885 4.9344 5.1923 7.9996 8.7266 4.4648 23.006-23.006 34.072-27.157 42.33-28.012 4.1292-.4275 8.0403.0835 12.994-.15234 4.9539-.23585 10.748-1.4652 17.395-5.3027.0909-.0525.18008-.10781.26758-.16601l13.227-8.75c6.5896-4.3574 13.388-6.7753 19.307-6.6641 2.8818.0544 5.2474-2.2662 5.248-5.1484zm90.236 0v10c.00065 2.8823 2.3663 5.203 5.248 5.1484 5.9173-.11111 12.717 2.3083 19.307 6.666l13.23 8.748c.0869.0578.17541.11348.26563.16601 6.6469 3.8376 12.443 5.0671 17.396 5.3027 4.9539.23546 8.863-.27708 12.992.15039 8.2584.85459 19.324 5.0056 42.33 28.012 3.5343 3.5348 9.5254.46951 8.7266-4.4648-.32826-2.0314-.72384-3.9657-1.1484-5.8555-1.8045 2.0935-5.2287 2.6701-7.5781.32032-23.006-23.006-34.072-27.157-42.33-28.012-4.1292-.42747-8.0382.0851-12.992-.15039-4.9539-.23562-10.75-1.4651-17.396-5.3027-.0902-.0525-.17877-.10819-.26563-.16601l-13.23-8.748c-6.5901-4.3577-13.389-6.7771-19.307-6.666-2.8817.0546-5.2474-2.2662-5.248-5.1484z" opacity=".2"/></g><path d="m16.173 233.27c4.0463.064 8.2021.92798 11.617 3.1865 6.3201 4.1048 8.2323 12.205 8.0532 19.302.01895 5.9674-1.3991 11.787-2.963 17.499-.92919 3.9273 2.38 6.8534 4.0639 9.9964 1.5494 3.0757-.30029 6.3992-2.7991 8.2952-5.1359 4.1617-11.475 6.8444-17.972 7.9793-6.4974-1.135-12.836-3.8176-17.972-7.9793-2.4988-1.8961-4.3484-5.2195-2.7991-8.2952 1.6838-3.143 4.9931-6.0691 4.0639-9.9964-1.5639-5.7115-2.9819-11.532-2.963-17.499-.17902-7.0971 1.7331-15.197 8.0532-19.302 3.4149-2.2585 7.5708-3.1224 11.617-3.1865z" fill="url(#b)" transform="matrix(1.0622 0 0 1.0622 50.555 -59.181)"/><g transform="translate(-.88668)"><path d="m80.008 209.75c-1.9827-.1887-3.9325.65168-5.4531 1.8688-.75574.60426-1.6989 1.5797-2.7426 1.1067-.94789-.31083-2.544-.4004-2.7221.89685-.23323 1.0991.73162 1.9573 1.7132 2.1921 1.0848.30265 2.25.4858 3.0826 1.3251 1.3088 1.1792 3.3586 1.6247 4.9119.65296 1.4704-.80965 2.0197-2.4862 2.6071-3.9452.48412-1.037 2.2647-1.3535 1.8744-2.8406-.43458-1.3662-2.1277-1.2683-3.2714-1.2566z" fill="#622e78" stroke-width=".19117"/><path d="m80.779 212.06c.05733.013.09955.032.12456.0645.18624.23384-.41937 1.5362-1.346 2.8944-1.8195 2.6669-3.3046 3.1488-4.973 1.6126-.86975-.80078-.88675-1.0378-.12461-1.7699 1.1814-1.1348 5.4579-2.99 6.3191-2.8018z" opacity=".1" stroke-width=".56365"/><path d="m80.779 211.01c.05733.013.09955.032.12456.0645.18624.23384-.41937 1.5362-1.346 2.8944-1.8195 2.6669-3.3046 3.1488-4.973 1.6126-.86975-.80078-.88675-1.0378-.12461-1.7699 1.1814-1.1348 5.4579-2.99 6.3191-2.8018z" fill="#b8174c" stroke-width=".56365"/><path d="m68.154 187.05c-7.0996.0794-14.535 3.0099-18.276 9.33-3.9173 5.4168-4.7868 12.293-4.4453 18.805.0726 5.1653 1.2154 10.23 2.6769 15.155 1.0153 4.191-3.1633 6.6956-4.3327 10.22-1.5136 5.2969 2.4941 10.174 6.6847 12.884 5.4102 3.5858 11.583 6.2425 18.023 7.1764.0449.0003.08926-.002.13411-.003.04484.001.08921.003.13411.003 6.4407-.93397 12.613-3.5907 18.023-7.1764 4.1906-2.7106 8.1983-7.5873 6.6847-12.884-1.1694-3.5243-5.348-6.0289-4.3327-10.22 1.4614-4.9242 2.6043-9.9893 2.6769-15.155.34142-6.5124-.52802-13.389-4.4453-18.805-3.7401-6.3201-11.176-9.2506-18.276-9.33v-.0006c-.1554-.001-.31048-.00031-.46552.0006-.15503-.00099-.31012-.002-.46552-.0006zm.46552 3.6144c4.0463.064 8.2021.92798 11.617 3.1865 6.3201 4.1048 8.2323 12.205 8.0532 19.302.01895 5.9674-1.3991 11.787-2.963 17.499-.92919 3.9273 2.38 6.8534 4.0639 9.9964 1.5494 3.0757-.30029 6.3992-2.7991 8.2952-5.1359 4.1617-11.475 6.8444-17.972 7.9793-6.4974-1.135-12.836-3.8176-17.972-7.9793-2.4988-1.8961-4.3484-5.2195-2.7991-8.2952 1.6838-3.143 4.9931-6.0691 4.0639-9.9964-1.5639-5.7115-2.9819-11.532-2.963-17.499-.17902-7.0971 1.7331-15.197 8.0532-19.302 3.4149-2.2585 7.5708-3.1224 11.617-3.1865z" fill="url(#c)"/></g><path d="m168.19 188.36c-.14361 4.8182-.0721 9.6333.17774 14.398.27362 19.467 4.5711 38.558 10.072 57.119.77153-3.0358.9085-6.277.0449-9.8418-5.5235-18.611-9.8428-37.755-10.117-57.277-.0766-1.4618-.13484-2.9284-.17774-4.3984zm175.62 0c-.0429 1.47-.1011 2.9367-.17774 4.3984-.27438 19.522-4.5936 38.666-10.117 57.277-.86357 3.5648-.7266 6.806.0449 9.8418 5.5012-18.562 9.7986-37.652 10.072-57.119.24982-4.7652.32135-9.5802.17774-14.398zm-150.92 73.049c-2.2375 10.059-10.577 18.589-15.398 27.588-2.3475 4.6602-2.6257 9.4702-1.5137 14.023.34928-1.347.84271-2.6915 1.5137-4.0234 6.3363-11.827 18.756-22.842 15.398-37.588zm126.21 0c-3.3573 14.745 9.0622 25.761 15.398 37.588.67096 1.3319 1.1644 2.6764 1.5137 4.0234 1.112-4.5532.83386-9.3633-1.5137-14.023-4.821-8.9984-13.161-17.529-15.398-27.588zm-157.83 40.98c-2.9967 18.561 11.245 35.365 26.096 44.971 20.448 13.553 43.776 23.593 68.119 27.123.1697.001.3383-.008.50781-.0117.16947.004.33811.0117.50781.0117 24.343-3.53 47.671-13.57 68.119-27.123 14.851-9.606 29.092-26.409 26.096-44.971-2.2605 14.481-13.969 27.125-26.096 34.969-20.448 13.553-43.776 23.595-68.119 27.125-.1697 0-.33834-.008-.50781-.0117-.16951.004-.33811.0129-.50781.0117-24.343-3.53-47.671-13.572-68.119-27.125-12.127-7.8439-23.835-20.488-26.096-34.969z" opacity=".3" transform="matrix(.26458 0 0 .26458 0 161.53)"/><path d="m55.496 209.76c1.9827-.1888 3.9325.65173 5.4531 1.8688.75574.60426 1.6989 1.5797 2.7426 1.1067.94789-.31083 2.544-.4004 2.7221.89685.23323 1.0991-.73162 1.9573-1.7132 2.1921-1.0848.30265-2.25.4858-3.0826 1.3251-1.3088 1.1792-3.3586 1.6247-4.9119.65296-1.4704-.80965-2.0197-2.4862-2.6071-3.9452-.48412-1.037-2.2647-1.3535-1.8744-2.8406.43458-1.3662 2.1277-1.2683 3.2714-1.2566z" fill="#622e78" stroke-width=".19117" transform="translate(-.88668)"/><path d="m67.268 186.98v.001c-7.0996.0795-14.535 3.0095-18.275 9.3296-3.6995 5.1156-4.6794 11.533-4.4895 17.716.1671-5.2851 1.3455-10.573 4.4895-14.92 3.7401-6.3201 11.176-9.2501 18.275-9.3296v-.001c.1554-.001.31068.00009.46571.001.15503-.00092.31032-.002.46571-.001v.001c7.0996.0793 14.535 3.0095 18.275 9.3296 3.1441 4.3476 4.3224 9.6352 4.4895 14.92.18987-6.1831-.79006-12.6-4.4895-17.716-3.7401-6.3201-11.176-9.2502-18.275-9.3296v-.001c-.1554-.00099-.31068.00018-.46571.001-.15503-.00099-.31031-.002-.46571-.001z" fill="#fff" opacity=".1"/><path d="m54.724 212.08c-.05733.013-.09955.032-.12456.0645-.18624.23384.41937 1.5362 1.346 2.8944 1.8195 2.6669 3.3046 3.1488 4.973 1.6126.86975-.80078.88675-1.0378.12461-1.7699-1.1814-1.1348-5.4579-2.99-6.3191-2.8018z" opacity=".1" stroke-width=".56365" transform="translate(-.88668)"/><path d="m54.724 211.02c-.05733.013-.09955.032-.12456.0645-.18624.23384.41937 1.5362 1.346 2.8944 1.8195 2.6669 3.3046 3.1488 4.973 1.6126.86975-.80078.88675-1.0378.12461-1.7699-1.1814-1.1348-5.4579-2.99-6.3191-2.8018z" fill="#b8174c" stroke-width=".56365" transform="translate(-.88668)"/><path d="m301.2 186.94c-4.4739.20012-18.943 6.614-23.129 10.635-2.3083 2.2171-2.689 3.2476-1.0723 5.1211.29831-.34378.64103-.70689 1.0723-1.1211 4.186-4.0208 18.655-10.434 23.129-10.635.1275-.006.2118.0151.32227.0195.86992-1.9023 1.245-3.3003.90234-3.7305-.0945-.12284-.25402-.19502-.4707-.24414-.20342-.0444-.45565-.0583-.75391-.0449zm-96.965.0391c-.29826-.0134-.55244.00047-.75586.0449-.21668.0491-.37619.1213-.4707.24414-.34262.43018.0339 1.8281.90429 3.7305.11063-.005.1951-.026.32227-.0195 4.4739.20008 18.941 6.614 23.127 10.635.43124.41421.77395.77732 1.0723 1.1211 1.6167-1.8735 1.236-2.904-1.0723-5.1211-4.186-4.0208-18.653-10.435-23.127-10.635z" opacity=".3" stroke-width="2.1303" transform="matrix(.26458 0 0 .26458 0 161.53)"/><path d="m396.98 153.44c-3.2707.0712-6.4286 2.5734-6.4238 6.5195 0 41.064-6.1702 54.642-12.777 62.775-3.3036 4.0665-7.2463 7.099-11.457 11.73-4.2107 4.6315-8.2916 10.899-10.799 20.256-.0333.12699-.0642.25408-.0898.38281l-4 19.615v.008c-1.8355 9.0014-5.2911 16.716-10.025 21.9-4.7343 5.1839-10.495 8.1289-18.846 8.1289-7.4759 0-13.987-2.3737-18.916-6.4844l-47.654 47.654-47.652-47.652c-4.9268 4.1091-11.436 6.4824-18.91 6.4824-8.3508 0-14.111-2.945-18.846-8.1289-4.7343-5.1839-8.1879-12.899-10.023-21.9v-.008l-4.002-19.615c-.028-.12888-.0598-.25597-.0957-.38281-2.5072-9.357-6.5822-15.624-10.793-20.256-4.2107-4.6315-8.1534-7.6639-11.457-11.73-6.6072-8.133-12.777-21.711-12.777-62.775-.00094-3.6658-3.0311-6.6059-6.6953-6.4961-2.0184.0582-3.8944 1.0517-5.0781 2.6875-16.411 22.737-20.06 43.064-19.268 62.207.79279 19.143 5.418 37.064 5.418 57.66 0 28.232 8.7346 54.264 24.93 73.398 16.195 19.135 40.015 31.158 68.688 31.158 25.294 0 48.408-9.4745 66.562-24.648 18.155 15.175 41.275 24.648 66.57 24.648 28.672 0 52.494-12.023 68.689-31.158s24.928-45.166 24.928-73.398c0-20.596 4.6252-38.517 5.418-57.66.79276-19.143-2.8545-39.47-19.266-62.207-1.3845-1.9207-3.3891-2.7537-5.3516-2.7109z" opacity=".3" transform="matrix(.26458 0 0 .26458 0 161.53)"/><path d="m59.443 227.74v4.1801c-.000001 5.309-4.014 9.3229-9.3229 9.3229-5.309 0-8.2633-4.1214-9.324-9.3229l-1.0583-5.1899c-2.3927-8.9298-9.3276-3.429-9.3276-25.519-8.2764 11.467-3.3398 19.313-3.3398 30.709 0 14.229 8.8213 25.943 23.05 25.943 6.7711 0 12.972-2.6528 17.613-6.967m0 0c4.6408 4.3142 10.842 6.967 17.613 6.967 14.229 0 23.05-11.714 23.05-25.943 0-11.395 4.9366-19.242-3.3398-30.709 0 22.09-6.9349 16.589-9.3276 25.519l-1.0583 5.1899c-1.0607 5.2016-4.015 9.3229-9.324 9.3229s-9.3229-4.014-9.3229-9.3229v-4.1801" fill="url(#d)" stroke="#2656a8" stroke-linecap="round" stroke-linejoin="round" stroke-width="3.4396"/><g fill="#65cfd4"><ellipse cx="226.39" cy="140.9" rx="1.3774" ry="2.2675" transform="matrix(.80569057 .59233665 -.59233665 .80569057 0 0)"/><ellipse cx="205" cy="164.47" rx="1.3774" ry="2.2675" transform="matrix(.88047735 .47408821 -.47408821 .88047735 0 0)"/><ellipse cx="155.64" cy="206.07" rx="1.3774" ry="2.2675" transform="matrix(.97354701 .22848681 -.22848681 .97354701 0 0)"/><ellipse cx="117.24" cy="221.14" rx="1.3774" ry="2.2675" transform="matrix(-.80569 .59234 .59234 .80569 0 0)"/><ellipse cx="85.73" cy="228.69" rx="1.3774" ry="2.2675" transform="matrix(-.88047 .47409 .47409 .88047 0 0)"/><ellipse cx="23.756" cy="237.02" rx="1.3774" ry="2.2675" transform="matrix(-.97355 .22848 .22848 .97355 0 0)"/><ellipse cx="199.81" cy="141.61" rx="1.3774" ry="2.2675" transform="matrix(-.49853 .86687 .86687 .49853 0 0)"/><ellipse cx="178.02" cy="162.09" rx="1.3774" ry="2.2675" transform="matrix(-.61464 .78881 .78881 .61464 0 0)"/><ellipse cx="130.78" cy="197.19" rx="1.3774" ry="2.2675" transform="matrix(-.79883 .60156 .60156 .79883 0 0)"/><ellipse cx="267.34" cy="24.178" rx="1.3774" ry="2.2675" transform="matrix(.49853313 .86687065 -.86687065 .49853313 0 0)"/><ellipse cx="261.28" cy="55.231" rx="1.3774" ry="2.2675" transform="matrix(.61464321 .78880525 -.78880525 .61464321 0 0)"/><ellipse cx="239" cy="115.7" rx="1.3774" ry="2.2675" transform="matrix(.79882454 .60156409 -.60156409 .79882454 0 0)"/></g><path d="m421.58 198.78c-.84259 18.984-5.3945 36.794-5.3945 57.238 0 28.232-8.7326 54.264-24.928 73.398-16.195 19.135-40.017 31.158-68.689 31.158-25.295 0-48.415-9.473-66.57-24.648-18.155 15.174-41.269 24.648-66.562 24.648-28.672 0-52.492-12.023-68.688-31.158-16.195-19.135-24.93-45.166-24.93-73.398 0-20.439-4.5504-38.245-5.3945-57.225-.14758 3.2228-.15402 6.4113-.02344 9.5645.79279 19.143 5.418 37.064 5.418 57.66 0 28.232 8.7346 54.264 24.93 73.398 16.195 19.135 40.015 31.158 68.688 31.158 25.294 0 48.408-9.4745 66.562-24.648 18.155 15.175 41.275 24.648 66.57 24.648 28.672 0 52.494-12.023 68.689-31.158s24.928-45.166 24.928-73.398c0-20.596 4.6252-38.517 5.418-57.66.13076-3.1576.12481-6.3506-.0234-9.5781z" opacity=".3" transform="matrix(.26458 0 0 .26458 0 161.53)"/></g><g transform="translate(16.15905 .18918)"><path d="m156.1 41.289c-7.8174-.14584-14.832 5.7516-16.087 13.451a2.4817 2.4817 0 0 0 -.011.06961c-.44438 3.3175-.1719 6.4148-.23812 9.2193a2.4817 2.4817 0 0 0 0 .05862v29.31a2.4817 2.4817 0 0 0 2.482 2.4821h5.1344a2.4817 2.4817 0 0 0 2.4802-2.4949c-.0313-6.0126-.0621-13.08-.0934-19.362h16.579a2.4817 2.4817 0 0 0 2.482-2.482v-5.1271a2.4817 2.4817 0 0 0 -2.4802-2.4802l-16.612-.0055c-.023-2.4269-.083-4.8556.0201-7.1512.30273-2.9221 3.2748-5.6203 6.1712-5.3982a2.4817 2.4817 0 0 0 .19051.0074c3.4101-.0022 6.8202-.005 10.23-.0074a2.4817 2.4817 0 0 0 2.4802-2.482v-5.1253a2.4817 2.4817 0 0 0 -2.482-2.482zm-.0916 4.9623a2.4817 2.4817 0 0 0 .0457 0h7.8107v.16669c-2.5833.0017-5.1668.0019-7.7502.0037l.19234.0074c-1.454-.11147-2.8548.09952-4.1526.54953 1.2357-.48308 2.5404-.75172 3.854-.72721zm-9.1955 5.0392c-.17982.26358-.43079.4687-.588.74736.16182-.27452.4029-.48618.588-.74736zm-1.2419 2.493c-.25859.72103-.55732 1.4238-.65944 2.1981.0154-.14338-.009-.32915.009-.47076.10129-.60907.43466-1.1479.65029-1.7274zm28.385 3.3192a2.4817 2.4817 0 0 0 -2.4821 2.482v19.858c0 8.9483 7.3393 16.29 16.288 16.29.14251 0 .16764-.002.0788-.002a2.4817 2.4817 0 0 0 .006 0c-.0957.00018-.0709.002.0752.002 8.9488 0 16.286-7.3416 16.286-16.29v-19.858a2.4817 2.4817 0 0 0 -2.4802-2.482h-5.1216a2.4817 2.4817 0 0 0 -2.482 2.4802l-.0129 20.334c-.002 3.241-2.8499 5.8856-6.2702 5.8855-3.42-.00007-6.268-2.6443-6.2702-5.8855l-.0129-20.334a2.4817 2.4817 0 0 0 -2.4821-2.4802zm38.899.45794a2.4817 2.4817 0 0 0 -2.482 2.482v4.9623a2.4817 2.4817 0 0 0 2.482 2.482h11.696l-16.151 20.309a2.4817 2.4817 0 0 0 -.002 0c-2.4818 3.1218-.10298 8.0515 3.8852 8.0525h21.604a2.4817 2.4817 0 0 0 2.4821-2.482v-4.9641a2.4817 2.4817 0 0 0 -2.4821-2.482h-11.317l16.151-20.307c2.4828-3.1215.1052-8.0514-3.8834-8.0525zm36.117 0a2.4817 2.4817 0 0 0 -2.482 2.482v4.9623a2.4817 2.4817 0 0 0 2.482 2.482h11.696l-16.151 20.309a2.4817 2.4817 0 0 0 -.002 0c-2.4818 3.1218-.10296 8.0515 3.8852 8.0525h21.604a2.4817 2.4817 0 0 0 2.482-2.482v-4.9641a2.4817 2.4817 0 0 0 -2.482-2.482h-11.317l16.151-20.307c2.4828-3.1215.10519-8.0513-3.8834-8.0525zm-104.19 4.1581c.0153 1.5546-.006 3.1695-.0165 4.671a2.4817 2.4817 0 0 0 2.482 2.4985l16.618.0074v.16486h-16.59a2.4817 2.4817 0 0 0 -2.482 2.493c.0313 6.0132.0621 13.081.0934 19.364h-.15936v-26.771c.0209-.88413.0623-1.5834.0549-2.4271zm31.657.34804h.15753l.0129 17.854c.00018.26515.0629.5114.0824.77118-.0497-.42974-.25278-.80646-.25278-1.2493zm22.648 0h.15936v17.376c0 .44802-.20557.8293-.25645 1.2639.0202-.26462.0841-.51562.0843-.78583zm13.771.45611v.0018h2.4802v-.0018zm2.4802.0018h14.409a2.4817 2.4817 0 0 0 -.0513-.0018h-14.357zm-2.4802 0 2.4802 2.4802v-2.4802zm36.117-.0018v.0018h2.4802v-.0018zm2.4802.0018h14.411a2.4817 2.4817 0 0 0 -.0531-.0018h-14.357zm-2.4802 0 2.4802 2.4802v-2.4802zm-50.495 20.701c-.10218.28405-.15649.57502-.28025.84811.11781-.27118.18522-.56576.28025-.84811zm-21.276.0018c.0949.28157.16092.57582.27843.84628-.12347-.27245-.17644-.56292-.27843-.84628zm20.215 2.004c-.50303.82023-.96764 1.6591-1.6559 2.3245.68903-.6638 1.1609-1.5043 1.6559-2.3245zm-19.153.004c.49457.81861.96628 1.6582 1.6541 2.3209-.68717-.66437-1.1515-1.5022-1.6541-2.3209zm2.9034 3.1635c.7517.55179 1.4725 1.1518 2.3465 1.5094-.87831-.3579-1.5938-.95335-2.3465-1.5094zm13.343.002c-.75233.55554-1.4688 1.1499-2.3465 1.5075.87343-.35724 1.5952-.95628 2.3465-1.5075zm36.894.002v4.9641l2.482-2.482zm36.117 0v4.9641l2.482-2.482zm-77.297 1.8996c-.76847.16536-1.4873.46711-2.3044.46711.0887 0 .0518-.002-.0806-.002.83543.00002 1.5922-.29107 2.385-.46527zm-4.7479.004c.78482.17087 1.5328.46132 2.3593.46161-.12559.00016-.15983.002-.0751.002-.80961 0-1.5222-.301-2.2842-.46344z" fill="#1b3f7c"/><path d="m156.1 38.808c-7.8174-.14584-14.832 5.7516-16.087 13.451a2.4817 2.4817 0 0 0 -.011.0696c-.44438 3.3175-.1719 6.4148-.23812 9.2193a2.4817 2.4817 0 0 0 0 .05862v29.31a2.4817 2.4817 0 0 0 2.482 2.482h5.1344a2.4817 2.4817 0 0 0 2.4802-2.4949c-.0313-6.0126-.0621-13.08-.0934-19.362h16.579a2.4817 2.4817 0 0 0 2.482-2.482v-5.1271a2.4817 2.4817 0 0 0 -2.4802-2.4802l-16.612-.0055c-.023-2.4269-.083-4.8556.0201-7.1512.30273-2.9221 3.2748-5.6203 6.1712-5.3982a2.4817 2.4817 0 0 0 .19051.0074c3.4101-.0022 6.8202-.005 10.23-.0074a2.4817 2.4817 0 0 0 2.4802-2.482v-5.1253a2.4817 2.4817 0 0 0 -2.482-2.482zm-.0916 4.9623a2.4817 2.4817 0 0 0 .0457 0h7.8107v.16669c-2.5833.0017-5.1668.0019-7.7502.0037l.19234.0074c-1.454-.11147-2.8548.09952-4.1526.54953 1.2357-.48308 2.5404-.75172 3.854-.72721zm-9.1955 5.0392c-.17982.26358-.43079.4687-.588.74736.16182-.27452.4029-.48618.588-.74736zm-1.2419 2.493c-.25859.72103-.55732 1.4238-.65944 2.1981.0154-.14339-.009-.32915.009-.47077.10129-.60907.43466-1.1479.65029-1.7274zm28.385 3.3192a2.4817 2.4817 0 0 0 -2.4821 2.482v19.858c0 8.9483 7.3393 16.29 16.288 16.29.14251 0 .16764-.002.0788-.002a2.4817 2.4817 0 0 0 .006 0c-.0957.00016-.0709.002.0752.002 8.9488 0 16.286-7.3416 16.286-16.29v-19.858a2.4817 2.4817 0 0 0 -2.4802-2.482h-5.1216a2.4817 2.4817 0 0 0 -2.482 2.4802l-.0129 20.334c-.002 3.241-2.8499 5.8856-6.2702 5.8855-3.42-.000075-6.268-2.6443-6.2702-5.8855l-.0129-20.334a2.4817 2.4817 0 0 0 -2.4821-2.4802zm38.899.45794a2.4817 2.4817 0 0 0 -2.482 2.482v4.9623a2.4817 2.4817 0 0 0 2.482 2.482h11.696l-16.151 20.309a2.4817 2.4817 0 0 0 -.002 0c-2.4818 3.1218-.10298 8.0515 3.8852 8.0525h21.604a2.4817 2.4817 0 0 0 2.4821-2.482v-4.9641a2.4817 2.4817 0 0 0 -2.4821-2.482h-11.317l16.151-20.307c2.4828-3.1215.1052-8.0514-3.8834-8.0525zm36.117 0a2.4817 2.4817 0 0 0 -2.482 2.482v4.9623a2.4817 2.4817 0 0 0 2.482 2.482h11.696l-16.151 20.309a2.4817 2.4817 0 0 0 -.002 0c-2.4818 3.1218-.10296 8.0515 3.8852 8.0525h21.604a2.4817 2.4817 0 0 0 2.482-2.482v-4.9641a2.4817 2.4817 0 0 0 -2.482-2.482h-11.317l16.151-20.307c2.4828-3.1215.10519-8.0513-3.8834-8.0525zm-104.19 4.1581c.0153 1.5546-.006 3.1695-.0165 4.671a2.4817 2.4817 0 0 0 2.482 2.4985l16.618.0074v.16486h-16.59a2.4817 2.4817 0 0 0 -2.482 2.493c.0313 6.0132.0621 13.081.0934 19.364h-.15936v-26.771c.0209-.88413.0623-1.5834.0549-2.4271zm31.657.34804h.15753l.0129 17.854c.00018.26515.0629.5114.0824.77118-.0497-.42974-.25278-.80645-.25278-1.2493zm22.648 0h.15936v17.376c0 .44802-.20557.8293-.25645 1.2639.0202-.26462.0841-.51562.0843-.78583zm13.771.45611v.0018h2.4802v-.0018zm2.4802.0018h14.409a2.4817 2.4817 0 0 0 -.0513-.0018h-14.357zm-2.4802 0 2.4802 2.4802v-2.4802zm36.117-.0018v.0018h2.4802v-.0018zm2.4802.0018h14.411a2.4817 2.4817 0 0 0 -.0531-.0018h-14.357zm-2.4802 0 2.4802 2.4802v-2.4802zm-50.495 20.701c-.10218.28405-.15649.57502-.28025.84811.11781-.27117.18522-.56576.28025-.84811zm-21.276.0018c.0949.28158.16092.57582.27843.84628-.12347-.27245-.17644-.56292-.27843-.84628zm20.215 2.004c-.50303.82023-.96764 1.6591-1.6559 2.3245.68903-.66379 1.1609-1.5043 1.6559-2.3245zm-19.153.0037c.49457.8186.96628 1.6582 1.6541 2.3209-.68717-.66437-1.1515-1.5022-1.6541-2.3209zm2.9034 3.1635c.7517.55178 1.4725 1.1519 2.3465 1.5094-.87831-.3579-1.5938-.95336-2.3465-1.5094zm13.343.002c-.75233.55553-1.4688 1.1499-2.3465 1.5075.87343-.35723 1.5952-.95629 2.3465-1.5075zm36.894.002v4.9641l2.482-2.482zm36.117 0v4.9641l2.482-2.482zm-77.297 1.8996c-.76847.16534-1.4873.4671-2.3044.4671.0887 0 .0518-.002-.0806-.002.83543.00002 1.5922-.29107 2.385-.46526zm-4.7479.004c.78482.17086 1.5328.46133 2.3593.46161-.12559.00016-.15983.002-.0751.002-.80961 0-1.5222-.301-2.2842-.46344z" fill="#2656a8"/><path d="m156.06 41.289c-6.4922-.12112-12.549 4.9692-13.592 11.369-.39683 2.9626-.14621 5.9658-.21665 8.9484v29.31h5.1341c-.0353-6.7892-.0708-15.067-.10614-21.857h19.073v-5.1268l-19.1-.0067c.023-3.2805-.12228-6.5674.031-9.8436.42119-4.3173 4.4442-7.997 8.8384-7.6602 3.4102-.0023 6.8202-.0044 10.23-.0067v-5.1269zm17.902 15.814v19.858c0 7.5958 6.21 13.808 13.806 13.808.0269 0 .0532-.002.08-.002.0267-.00005.0528.002.0794.002 7.5958 0 13.806-6.2124 13.806-13.808v-19.858h-5.1205l-.0136 20.335c-.003 4.6689-4.0347 8.3659-8.7517 8.3659-4.7167-.00011-8.748-3.6971-8.7512-8.3659l-.0135-20.335zm38.9.45801v4.9625h16.839l-19.353 24.335a2.4817 2.4817 0 0 0 1.9421 4.0261h21.604v-4.964h-16.46l19.353-24.333a2.4817 2.4817 0 0 0 -1.9416-4.0266zm36.117 0v4.9625h16.839l-19.353 24.335a2.4817 2.4817 0 0 0 1.9421 4.0261h21.604v-4.964h-16.46l19.353-24.333a2.4817 2.4817 0 0 0 -1.9416-4.0266z" fill="#316fd8"/></g></svg>