<svg height="149.33333" viewBox="0 0 914.66669 149.33333" width="914.66669" xmlns="http://www.w3.org/2000/svg"><g transform="matrix(.13333333 0 0 -.13333333 0 149.33333)"><g fill="#333"><path d="m6810.12 384.523-103.87 94.86c-8.39 7.797-15.49 13.937-.58 13.789 74.49-.738 111.61 25.277 111.61 65.703v60.051c0 44.793-18.67 67.183-127.32 67.183h-311.2c-85.18 0-125.25-19.515-125.25-68.793l.4-173.722c0-18.215-5.12-74.719 110.68-77.821l11.54.438c17.75.672 18.29 1.973 18.29 21.762l-.4 211.093c.02 14.024 1.27 18.825 25.74 19.86h186.4v.027h32.86c25.76 0 38.68-6.75 38.68-20.406v-18.266c0-12.66-11.84-19.414-35.59-20.394l-171.53 1.152c-18.63 0-8.09-11.973-1.25-18.723l155.65-153.461c16.92-17.753 22.51-21.929 62.76-22.035l116.75-.316c8.76-.024 24.55 1.508 5.63 18.019"/><path d="m3302.78 391.238 1.45 228.141c.29 44.781 42.56 66.906 126.8 66.391 13.84-.079 13.13-3.61 13.03-19.028l-1.87-259.801c-.19-24.816-23.29-37.929-69.53-39.578l-48.48.297c-21.39.133-21.54.254-21.4 23.578"/><path d="m3801.34 391.66 1.37 213.254c-.3 9.867-1.3 12.563-11.51 12.57l-159.74.164c-14.05.016-16.32.985-16.03 15.567l-.06 37.004c.02 14.66.2 17.328 13.45 17.285l410.97.234c68.84-4.008 92.33-24.851 96.5-56.195 2.11-15.816-2.78-14.074-16.1-14.086l-167.14.27c-9.71.023-11.47-.434-11.52-12.887l-.8-197.598c-.1-24.625-23.28-37.64-69.52-39.273l-48.46.293c-21.41.133-21.56.242-21.41 23.398"/><path d="m2103.42 559.055c10.71 0 15.67 4.82 15.67 16.894v26.418c0 9.375-9.27 16.238-17.56 16.231-81.23.007-162.48.007-243.71 0-8.29.007-17.56-6.856-17.56-16.231v-26.418c0-12.074 4.96-16.894 15.66-16.894zm-403.41-165.801.19 222.84c.03 47.199 31.48 70.273 114.6 70.273h329.74c83.13 0 114.62-23.09 114.61-70.273l-.1-223.172c.15-23.121-5.6-23.945-26.98-24.078l-41.34-.707c-46.17 1.633-69.67 14.629-69.77 39.218.04 23.93-.19 47.852-.19 71.786 0 12.328-15.12 12.152-26.13 12.152-76.64 0-153.29 0-229.94 0-11 0-26.13.176-26.13-12.152l.1-71.453c-.1-24.594-24.33-37.586-70.69-39.219l-41.19.383c-21.46.132-26.92 1.281-26.78 24.402"/><path d="m5834.27 620.773c36.17-.085 37.54-4.164 37.54-20.464 0-11.344 0-7.422 0-18.762 0-16.492-1.4-20.82-38.77-20.797-68.47.004-136.94.004-205.4 0-37.38-.023-38.78 4.305-38.78 20.797v18.762c0 16.3 1.37 20.379 37.54 20.464 69.29.004 138.58.004 207.87 0zm153.27-127.074-370.35 1.012c-29.89-.481-30.6-4.879-30.6-22.09l-.09-17.461c0-14.887 1.15-19.543 29.01-20.297l377.34-.125c13.15 0 17.95 1.723 15.87-13.879-4.76-35.488-31.68-53.226-126.35-53.226h-310.59c-54.62 0-125.34 9.035-125.34 65.066v187.071c0 54.437 67.41 66.089 102.89 66.089h354.55c37.77 0 105.66-6.57 105.66-66.089v-105.332c0-17.79-5.84-20.739-22-20.739" fill-rule="evenodd"/><path d="m3047.99 391.723-1.35 227.09c-.28 44.578-39.91 66.601-118.84 66.089-12.97-.078-12.31-3.589-12.23-18.941l1.07-157.043c.14-18.352-8.21-9.449-22.2-.539l-249.67 158.402c-23.51 14.735-32.35 16.973-62.8 18.114l-45.02-.297c-20.04-.133-20.18-.246-20.04-23.469.52-89.992.48-179.559.61-269.391-.14-22.683.35-23.14 20.71-23.273l44.64-.672c43.98 1.598 65.67 15.059 65.76 39.172l-.8 136.973c-.13 18.351 8.22 9.445 22.21.539l249.67-158.407c23.51-14.73 32.35-16.968 62.8-18.113l45.43.301c20.04.129 20.18.246 20.05 23.465"/><path d="m4295.46 391.238 1.45 228.141c.3 44.781 42.56 66.906 126.8 66.391 13.84-.079 13.14-3.61 13.04-19.028l-1.88-259.801c-.19-24.816-23.29-37.929-69.53-39.578l-48.48.297c-21.39.133-21.53.254-21.4 23.578"/><path d="m5163.57 685.801-398.62-.051c-78.32-.082-117.57-24.109-117.11-71.375.07-7.773 6.25-7.387 33.22-7.363l245.29 3.207c32.24.043 19.68-8.164 3.95-16.528l-250.91-148.246c-26.01-14.054-29.99-19.343-32.16-37.582l.27-27.207c.12-12.004.32-12.086 41.12-12.047l398.95.383c78.32.082 117.23 23.774 116.77 71.043-.07 7.774-6.25 7.383-33.21 7.363l-226.33-4.535c-32.23-.043-19.68 8.164-3.95 16.532l231.94 149.57c26.01 17.594 30 19.34 32.17 37.578l-.27 27.211c-.12 12.004-.33 12.086-41.12 12.047"/></g><path d="m1083.03 1080.67c156.06 49.74 274.93 52.8 317.71-78.82l37.8-116.303c-32.69.453-61.18.984-80.6 1.176-89.73.89-122.87-5.434-220.4-61.602-40.11-25.113-80.2-50.226-120.3-75.344-104.26-68.168-88.822-65.5-195.045-.316-40.265 25.223-80.531 50.445-120.777 75.66-95.613 55.059-129.34 62.227-215.152 61.652zm389.26-298.963 72.67-223.699c28.28-87.063-18.53-148.313-81.87-190.485l-266.12 166.731c-46.25 26.434-43.43 41.48 2.19 74.012zm-253.97-511.887c-246.48-80.066-492.937-160.172-739.402-240.2575-99.773-31.44531-274.984-52.7852-317.75 78.8285-48.059 147.949-96.1563 295.91-144.2032 443.812-42.75 131.641 111.5002 217.36 210.6992 250.555l68.699 22.32c115.84-73.547 231.676-147.094 347.496-220.652 53.891-27.09 48.786-38.16-6.64-71.899-117.531-73.648-235.078-147.289-352.645-220.945-106.281-61.203-21.605-53.035 38.067-53.531 64.769-.528 158.601-.68 191.476-.957 89.285-.762 97.016-2.375 194.551 53.781 40.258 25.586 80.527 51.152 120.793 76.723 87.316 52.578 90.059 60.281 179.299 6.25 40.1-25.469 80.21-50.934 120.31-76.418 41.91-24.125 67.08-38.782 89.25-47.61" fill="#c33"/></g></svg>